<svg width="350" height="285" viewBox="0 0 350 285" fill="none" xmlns="http://www.w3.org/2000/svg">
<path fill-rule="evenodd" clip-rule="evenodd" d="M151.272 37.395C151.417 37.6171 151.583 38.1894 151.639 38.6669C151.713 39.2885 151.844 39.6019 152.101 39.7711C153.39 40.6178 154.5 42.5004 154.688 44.1578C154.795 45.1027 154.825 45.15 155.714 45.763C156.731 46.4638 157.607 47.5704 158.066 48.7338C158.499 49.8335 158.468 51.7808 157.998 53.0228C157.366 54.691 155.718 56.2124 153.982 56.731L153.291 56.9371L152.635 59.1749C152.017 61.284 151.962 61.6621 151.683 65.7524C151.52 68.1392 151.346 70.6092 151.296 71.2409L151.205 72.3896H151.705C152.037 72.3896 152.206 72.4759 152.206 72.6449C152.206 72.8131 152.038 72.9002 151.713 72.9002C151.26 72.9002 151.216 72.9565 151.154 73.6046C151.089 74.2889 151.262 74.656 151.723 74.8098C151.841 74.8493 151.879 75.0032 151.812 75.1771C151.736 75.3747 151.59 75.4423 151.381 75.3761C151.099 75.2864 151.054 75.4072 150.962 76.5073C150.893 77.3344 150.921 77.7774 151.049 77.8563C151.153 77.9208 152.279 78.0228 153.551 78.0825C156.625 78.2272 157.062 78.3038 157.651 78.8C158.266 79.3177 158.578 80.3292 158.326 80.991C158.046 81.7279 155.479 84.5806 154.573 85.1628C153.613 85.7792 152.286 86.1698 151.143 86.1727C150.365 86.1747 150.335 86.1933 150.335 86.6681C150.335 87.6934 149.644 97.554 149.475 98.9386C149.196 101.226 148.478 103.509 147.427 105.448L147.081 106.086H149.658C151.643 106.086 152.218 106.135 152.163 106.299C152.112 106.455 151.364 106.525 149.385 106.562L147.081 106.086L146.094 107.47C145.382 108.516 143.465 110.418 142.086 111.447C141.052 112.218 138.873 113.356 137.706 113.735L137.068 113.941V124.779L137.958 124.97C138.447 125.075 139.022 125.204 139.234 125.258C139.286 125.271 139.332 125.281 139.372 125.287C139.596 125.318 139.619 125.201 139.619 124.655V123.956H145.927C150.897 123.956 152.219 124.001 152.163 124.169C152.109 124.332 150.713 124.392 146.111 124.426L140.13 124.471V124.955C140.13 125.421 140.179 125.449 141.463 125.727L142.797 126.015L143.339 125.509C143.637 125.23 144.089 124.957 144.344 124.901C144.623 124.84 148.449 125.519 153.992 126.612C159.398 127.678 163.911 128.481 164.962 128.562C165.945 128.638 195.045 128.705 229.63 128.71L292.512 128.721L294.221 130.382C295.162 131.296 295.931 132.138 295.931 132.254C295.931 132.428 279.996 175.089 279.443 176.395C279.349 176.617 278.433 179.058 277.406 181.819C276.38 184.58 275.422 187.146 275.277 187.52C275.04 188.133 272.274 195.509 270.299 200.795C269.462 203.034 269.29 203.493 268.069 206.751C267.613 207.968 266.724 210.342 266.094 212.027C265.464 213.712 264.769 215.55 264.55 216.112C263.601 218.551 261.403 224.523 261.403 224.663C261.403 224.748 259.067 226.876 256.213 229.392C253.358 231.909 251.047 234.009 251.076 234.059C251.898 235.488 252.126 236.261 252.129 237.64C252.132 238.873 252.065 239.226 251.673 240.024C250.764 241.877 248.863 243.254 246.873 243.503L245.955 243.618L246.674 244.28C248.802 246.244 249.081 249.77 247.301 252.228C246.572 253.234 245.116 254.122 243.716 254.414C242.688 254.629 242.373 254.63 241.377 254.423C240.744 254.292 240.207 254.203 240.182 254.225C240.158 254.248 240.298 254.628 240.493 255.071C240.689 255.514 240.892 256.291 240.945 256.799L241.04 257.722L295.255 257.797H349.405V37.0659L151.007 36.9909L151.272 37.395ZM166.613 73.4561C166.12 72.9928 166.112 72.5155 166.589 72.0075L166.959 71.6136H176.794C186.565 71.6136 186.632 71.616 186.988 71.9717C187.258 72.2427 187.32 72.4557 187.242 72.8468C187.206 73.0268 187.189 73.1733 187.122 73.2927C186.818 73.8378 185.498 73.8159 176.776 73.8206L167.006 73.8261L166.613 73.4561ZM188.841 89.5683C188.841 89.1656 188.955 88.912 189.219 88.727C189.557 88.4898 192.508 88.4621 217.361 88.4621C237.571 88.4621 245.239 88.5141 245.544 88.6535C246.301 88.9983 246.267 90.0829 245.488 90.5004C245.27 90.617 235.991 90.6745 217.38 90.6745C215.238 90.6745 213.256 90.6749 211.422 90.6753C211.413 90.6753 211.404 90.6753 211.395 90.6753C211.346 90.6753 211.296 90.6753 211.247 90.6753H211.245C210.044 90.6756 208.907 90.6758 207.831 90.6759C191.014 90.6774 188.979 90.642 188.814 90.0695C188.792 89.9904 188.805 89.9011 188.819 89.8003C188.83 89.7289 188.841 89.6517 188.841 89.5683ZM188.841 106.417C188.841 106.014 188.955 105.76 189.219 105.575C189.559 105.337 194.236 105.31 235.568 105.31C281.313 105.31 281.541 105.312 281.879 105.651C282.354 106.126 282.31 106.746 281.771 107.17L281.323 107.523H235.46C231.498 107.523 227.87 107.524 224.549 107.524H224.546C192.085 107.53 188.885 107.53 188.757 106.904C188.743 106.836 188.766 106.76 188.791 106.676C188.815 106.597 188.841 106.511 188.841 106.417ZM159.981 125.024C159.496 124.568 159.474 123.973 159.926 123.52C160.263 123.183 160.489 123.18 190.499 123.185C214.794 123.19 220.789 123.234 221.019 123.409C221.49 123.767 221.563 124.424 221.183 124.893L220.848 125.307L160.377 125.396L159.981 125.024ZM232.097 125.022C231.613 124.568 231.592 123.972 232.043 123.52C232.375 123.188 232.61 123.18 241.882 123.18C251.01 123.18 251.392 123.193 251.674 123.504C252.106 123.982 251.974 124.901 251.434 125.173C251.108 125.337 248.845 125.388 241.749 125.39L232.491 125.392L232.097 125.022Z" fill="#D7777B"/>
<path fill-rule="evenodd" clip-rule="evenodd" d="M136.567 0.078681C136.45 0.196109 136.402 32.9814 136.52 32.9814C136.556 32.9814 137.102 32.7396 137.734 32.4438C138.706 31.9886 139.135 31.8941 140.534 31.8267C142.182 31.7472 142.794 31.8482 144.15 32.4225C144.741 32.6727 144.9 32.9465 144.593 33.1361C144.915 33.2499 145.029 33.7538 145.046 33.9915C145.408 34.3336 146.432 34.7042 146.898 34.8467C147.808 34.9872 150.456 36.3018 151.007 36.9909L349.405 37.0659V257.797H295.255L241.04 257.722L240.896 258.403L295.481 258.436L350 258.393V0.0504301L243.34 0.0077122C184.678 -0.0157735 136.63 0.0162228 136.567 0.078681ZM241.147 19.6218C242.294 16.7201 243.828 12.8336 244.556 10.9849L245.882 7.62371H247.315C248.394 7.62371 248.728 7.67646 248.664 7.83644C248.618 7.95353 248.269 8.81501 247.889 9.75103C247.509 10.6871 246.31 13.7121 245.225 16.4734C244.14 19.2346 243.026 22.0682 242.75 22.7703C242.474 23.4723 241.568 25.7698 240.737 27.8758L239.225 31.705L237.846 31.7544C237.087 31.7816 236.465 31.7433 236.464 31.6693C236.462 31.5299 237.585 28.6415 241.147 19.6218ZM250.923 16.7487V14.4463L251.561 14.6835C254.929 15.9368 256.923 16.665 260.363 17.8995L261.894 18.4487L261.993 20.8684L261.008 21.2403C260.466 21.4449 258.76 22.0662 257.217 22.6212C255.673 23.1762 254.219 23.7139 253.985 23.8162C253.387 24.0778 251.233 24.8125 251.064 24.8125C250.986 24.8125 250.923 24.3324 250.923 23.7458V22.679L252.497 22.1098C253.362 21.7966 255.103 21.1744 256.366 20.7272C257.783 20.2253 258.662 19.8257 258.662 19.6834C258.662 19.5568 258.394 19.3633 258.067 19.2537C257.74 19.1439 256.362 18.6575 255.005 18.1727C253.649 17.6878 252.176 17.1691 251.731 17.0198L250.923 16.7487ZM226.771 17.1579C227.285 16.9742 229.046 16.3289 230.683 15.724C232.32 15.119 233.797 14.6189 233.965 14.6127C234.233 14.6027 234.265 14.7319 234.22 15.6471L234.17 16.6931L231.363 17.704C226.804 19.3461 226.26 19.5595 226.26 19.7057C226.26 19.8543 226.298 19.8686 230.343 21.2905C233.289 22.3263 234.03 22.5413 234.207 22.9829C234.285 23.1765 234.255 23.4137 234.255 23.7827C234.255 24.5531 234.195 24.8125 234.016 24.8125C233.813 24.8125 228.99 23.0836 224.56 21.4222L223.284 20.9438V18.4729L224.56 17.9824C225.261 17.7127 226.256 17.3417 226.771 17.1579Z" fill="#BF272D"/>
<path fill-rule="evenodd" clip-rule="evenodd" d="M121.666 65.9609C121.113 66.5145 121.029 66.9744 121.327 67.828C121.578 68.5491 122.052 68.6938 124.802 68.889C128.357 69.1412 128.577 69.1284 129.062 68.643C129.647 68.0586 129.651 66.8646 129.07 66.2839C128.631 65.8438 128.299 65.795 124.09 65.5504L122.187 65.4398L121.666 65.9609ZM141.726 67.0533C141.196 67.4116 141.126 67.5486 141.081 68.3064C141.038 69.033 141.094 69.2166 141.462 69.5626C141.827 69.9062 142.145 69.988 143.553 70.1017C146.369 70.3289 148.405 70.2865 148.826 69.9919C149.293 69.664 149.485 68.7041 149.214 68.0488C148.902 67.2955 148.198 67.0731 145.723 66.9463C144.507 66.884 143.244 66.7921 142.917 66.7421C142.469 66.6735 142.175 66.7504 141.726 67.0533ZM121.231 71.8705C119.774 72.1982 118.37 72.712 118.292 72.9454C118.162 73.3376 118.825 73.363 119.934 73.0081C120.554 72.8099 121.405 72.6028 121.826 72.5481C122.247 72.4933 122.803 72.4156 123.061 72.3752C123.531 72.302 123.531 72.3031 123.274 72.8002C122.917 73.4922 122.946 74.5521 123.336 75.0344C123.603 75.3633 123.851 75.4399 124.825 75.493C125.834 75.5478 126.045 75.5073 126.376 75.1952C126.683 74.9052 126.759 74.6482 126.759 73.8931C126.759 72.9956 126.776 72.9576 127.141 73.0711C127.91 73.3099 128.798 74.0408 129.556 75.0599C129.817 75.411 130.175 75.6981 130.351 75.6981C131.406 75.6981 129.543 73.4498 127.694 72.4911C126.054 71.6412 123.387 71.3851 121.231 71.8705ZM102.095 73.8148C100.923 74.1714 99.5443 75.2992 99.5443 75.9006C99.5443 76.3579 100.022 76.2738 100.473 75.7371C100.691 75.4777 101.241 75.0795 101.695 74.852C103.555 73.9198 105.911 74.6915 106.854 76.5417L107.176 77.1723L105.868 77.0964C104.587 77.0221 103.673 77.2303 103.077 77.7318C102.958 77.8322 102.651 78.0722 102.393 78.265C101.883 78.6483 101.76 79.272 102.196 79.272C102.345 79.272 102.781 79.0028 103.165 78.674C103.549 78.345 104.173 77.9924 104.552 77.8904C105.463 77.6449 106.856 77.7853 107.122 78.1495C107.454 78.6037 107.086 79.8957 106.303 81.0212C106.132 81.2678 106.14 81.3549 106.348 81.4904C106.701 81.721 107.449 80.8199 107.812 79.7262C108.557 77.482 107.368 74.9736 105.101 74.0065C104.263 73.6492 102.92 73.5636 102.095 73.8148ZM128.063 94.5321C127.799 94.7957 127.997 95.0944 128.757 95.5798C130.512 96.7004 133.18 97.3703 135.217 97.2018C137.136 97.043 139.724 96.1982 139.929 95.6635C140.094 95.2329 139.546 95.2338 138.46 95.6655C135.379 96.891 132.01 96.646 129.288 94.9982C128.251 94.3711 128.231 94.3634 128.063 94.5321Z" fill="#2E2E2E"/>
<path d="M133.836 125.1C133.836 125.621 133.014 127.118 132.338 127.828C130.951 129.284 128.825 130.279 125.659 130.952C124.238 131.254 123.363 131.326 121.25 131.315C118.138 131.298 115.783 130.987 112.505 130.158C109.824 129.48 109.577 129.402 106.707 128.325C104.651 127.553 103.924 127.244 101.434 126.087L100.074 125.454L96.9111 126.232L97.0106 127.86C97.0654 128.755 97.185 130.674 97.2763 132.125C97.3678 133.576 97.632 137.941 97.8636 141.826C98.3309 149.664 98.4152 151.029 98.5462 152.888C98.5957 153.59 98.7865 156.844 98.9702 160.121C99.1537 163.397 99.3815 167.302 99.4759 168.8C99.5705 170.298 99.8064 174.087 100 177.222C100.194 180.356 100.382 182.951 100.419 182.987C100.455 183.023 101.616 182.689 103 182.244C110.181 179.936 111.532 179.447 112.675 178.743C114.2 177.805 115.893 177.024 117.601 176.472C120.621 175.496 120.956 175.469 136.898 174.93C141.248 174.784 145.106 174.646 145.471 174.625C146.121 174.587 146.144 174.564 146.534 173.518L146.932 172.45L146.672 169.604C146.318 165.733 145.1 152.541 144.892 150.335C144.422 145.335 144.022 141.028 143.866 139.273C143.237 132.216 142.711 126.823 142.646 126.757C142.585 126.697 137.261 125.496 134.389 124.896C133.92 124.797 133.836 124.829 133.836 125.1Z" fill="#D7777B"/>
<path d="M81.6671 269.419C81.3803 270.427 80.7076 272.745 80.1722 274.571C78.2053 281.275 77.3827 284.174 77.4326 284.224C77.5504 284.342 157.223 284.264 157.221 284.145C157.207 283.528 156.003 270.383 155.849 269.167L155.757 268.444H83.0833L82.1884 267.586L81.6671 269.419Z" fill="#D7777B"/>
<path d="M209.2 186.002C209.161 186.042 213.82 186.074 219.554 186.074H229.979L229.865 185.521C229.858 185.487 229.85 185.445 229.84 185.395C229.833 185.359 229.825 185.319 229.817 185.276C229.795 185.167 229.77 185.035 229.74 184.879C229.722 184.789 229.703 184.691 229.683 184.586H210.59C209.986 185.203 209.494 185.705 209.2 186.002Z" fill="#488B1E"/>
<path d="M149.658 106.086H147.081L149.385 106.562C151.364 106.525 152.112 106.455 152.163 106.299C152.218 106.135 151.643 106.086 149.658 106.086Z" fill="#D7777B"/>
<path d="M139.619 123.956V124.655C139.619 125.201 139.596 125.318 139.372 125.287L141.463 125.727C140.179 125.449 140.13 125.421 140.13 124.955V124.471L146.111 124.426C150.713 124.392 152.109 124.332 152.163 124.169C152.219 124.001 150.897 123.956 145.927 123.956H139.619Z" fill="#D7777B"/>
<path d="M42.4529 112.608L41.5101 110.978C42.9728 110.131 43.8158 109.234 44.039 108.286C44.2711 107.333 43.9715 106.138 43.1402 104.701L40.7074 100.495C40.0079 99.2857 39.5161 98.1727 39.2319 97.1559C38.9564 96.1341 38.9142 95.1819 39.1052 94.2993C39.2962 93.4168 39.7485 92.5818 40.4622 91.7944C41.1759 91.007 42.1765 90.2406 43.464 89.4952L44.9541 92.0712C43.9381 92.6594 43.2279 93.2811 42.8236 93.9362C42.428 94.5863 42.3002 95.3153 42.4401 96.1232C42.5838 96.9173 42.9521 97.8269 43.5451 98.852L46.5862 104.109C46.9816 104.793 47.2495 105.468 47.3899 106.135C47.5391 106.797 47.4895 107.47 47.2409 108.151C46.9923 108.833 46.4847 109.542 45.718 110.279C44.9601 111.01 43.8717 111.786 42.4529 112.608ZM62.927 123.141C61.6395 123.887 60.4767 124.373 59.4387 124.599C58.4006 124.826 57.4516 124.802 56.5916 124.528C55.7315 124.254 54.9273 123.743 54.1789 122.995C53.4393 122.242 52.7197 121.261 52.0203 120.052L49.5874 115.846C48.7561 114.409 47.8697 113.554 46.9281 113.28C45.9952 113.001 44.7975 113.285 43.3348 114.132L42.392 112.502C43.8109 111.681 45.026 111.124 46.0374 110.831C47.0575 110.533 47.9249 110.446 48.6398 110.57C49.3547 110.694 49.9619 110.986 50.4614 111.445C50.9698 111.899 51.4216 112.468 51.8169 113.152L54.858 118.409C55.4511 119.434 56.0559 120.207 56.6725 120.727C57.2979 121.242 57.9908 121.49 58.7514 121.471C59.5257 121.455 60.4209 121.154 61.4369 120.565L62.927 123.141ZM43.3348 114.132L41.5101 110.978L44.6107 109.183L46.4353 112.337L43.3348 114.132Z" fill="#2E2E2E"/>
<path d="M76.8691 92.543L77.8118 94.1728C76.3491 95.0195 75.5018 95.9195 75.2698 96.8725C75.0465 97.8205 75.3505 99.013 76.1817 100.45L78.6146 104.656C79.314 105.865 79.8015 106.98 80.0769 108.002C80.3611 109.019 80.4077 109.969 80.2167 110.851C80.0257 111.734 79.5734 112.569 78.8597 113.356C78.1461 114.144 77.1455 114.91 75.858 115.655L74.3678 113.079C75.3838 112.491 76.0871 111.868 76.4776 111.209C76.882 110.554 77.0123 109.829 76.8687 109.035C76.7338 108.236 76.3698 107.324 75.7768 106.299L72.7357 101.041C72.3404 100.358 72.0681 99.6851 71.9189 99.023C71.7784 98.3557 71.8325 97.6811 72.081 96.9992C72.3296 96.3173 72.8328 95.6107 73.5908 94.8795C74.3574 94.1433 75.4502 93.3644 76.8691 92.543ZM56.3949 82.0092C57.6824 81.2639 58.8452 80.7779 59.8832 80.5512C60.9213 80.3245 61.8703 80.3482 62.7304 80.6223C63.5904 80.8963 64.3903 81.41 65.1299 82.1631C65.8783 82.9111 66.6022 83.8898 67.3017 85.0989L69.7346 89.3047C70.5658 90.7417 71.4478 91.5995 72.3807 91.8782C73.3223 92.1518 74.5245 91.8652 75.9872 91.0184L76.9299 92.6482C75.511 93.4696 74.2915 94.0294 73.2714 94.3275C72.2601 94.6206 71.397 94.705 70.6821 94.5809C69.9673 94.4567 69.3557 94.1675 68.8474 93.7132C68.3478 93.2538 67.9003 92.6824 67.505 91.999L64.4639 86.7418C63.8709 85.7166 63.2617 84.9464 62.6363 84.4313C62.0146 83.9022 61.3191 83.6499 60.5498 83.6742C59.7893 83.6934 58.901 83.9971 57.8851 84.5853L56.3949 82.0092ZM75.9872 91.0184L77.8118 94.1728L74.7113 95.9677L72.8866 92.8134L75.9872 91.0184Z" fill="#2E2E2E"/>
<path d="M4.04753 56.076L4.44886 52.5353L19.3131 47.9046L18.8514 51.9785L8.71716 54.7718L8.87182 54.5754L8.81481 55.0783L8.70804 54.8523L17.9598 59.8446L17.4981 63.9185L4.04753 56.076Z" fill="#D7777B"/>
<path d="M33.1386 44.0833L23.7067 67.9951L20.0165 67.5765L29.4484 43.6647L33.1386 44.0833Z" fill="#D7777B"/>
<path d="M48.483 61.1165L33.6187 65.7471L34.0804 61.6732L44.2147 58.8799L44.06 59.0764L44.117 58.5734L44.2238 58.7995L34.972 53.8071L35.4338 49.7333L48.8843 57.5758L48.483 61.1165Z" fill="#D7777B"/>
<path d="M81.3209 58.2498L58.669 26.664L60.6917 25.2123L83.3436 56.7981L81.3209 58.2498ZM72.2726 31.2535C71.2279 30.1095 69.9316 29.5697 68.3837 29.6341C66.8357 29.6985 65.2971 30.2795 63.7678 31.3772C62.6495 32.1798 61.8009 33.063 61.2218 34.0268C60.6509 34.9848 60.3582 35.9486 60.3437 36.9183C60.3375 37.8822 60.6234 38.7671 61.2015 39.5732C61.6852 40.2477 62.2615 40.7125 62.9302 40.9677C63.6012 41.2087 64.3066 41.3067 65.0465 41.2616C65.7804 41.2083 66.5007 41.0838 67.2072 40.8882C67.9079 40.6843 68.5368 40.4759 69.094 40.2629L72.1548 39.1126C72.9365 38.8133 73.8393 38.5266 74.8634 38.2526C75.8956 37.9727 76.9706 37.8304 78.0881 37.8257C79.2079 37.8069 80.3024 38.0306 81.3715 38.4968C82.4406 38.9629 83.3999 39.7882 84.2493 40.9727C85.2286 42.3381 85.7557 43.8286 85.8309 45.4443C85.9142 47.054 85.5064 48.6735 84.6076 50.303C83.7169 51.9265 82.3014 53.4346 80.3609 54.8273C78.552 56.1256 76.7763 56.9578 75.0337 57.3238C73.2993 57.684 71.6793 57.6133 70.1737 57.1116C68.6763 56.6039 67.3828 55.6946 66.2931 54.3835L69.4504 52.1174C70.2169 53.0126 71.1039 53.5721 72.1113 53.7959C73.1211 54.0057 74.1667 53.9529 75.2483 53.6376C76.3323 53.3082 77.3758 52.7835 78.3789 52.0635C79.5464 51.2256 80.4591 50.284 81.1169 49.2387C81.7687 48.1853 82.1212 47.1225 82.1742 46.0503C82.2214 44.9699 81.9146 43.969 81.2539 43.0478C80.6523 42.2088 79.9283 41.6943 79.0821 41.5042C78.2359 41.3141 77.3125 41.329 76.3119 41.5488C75.3113 41.7686 74.2785 42.0738 73.2135 42.4644L69.4684 43.8067C67.088 44.6554 64.9448 44.9665 63.0386 44.7398C61.1324 44.5131 59.5688 43.5484 58.3477 41.8457C57.3331 40.431 56.8306 38.9227 56.8402 37.321C56.8521 35.7052 57.2982 34.1391 58.1785 32.6227C59.0611 31.0922 60.3082 29.7486 61.9198 28.592C63.5478 27.4235 65.2043 26.6769 66.8894 26.3521C68.5685 26.0191 70.1379 26.0888 71.5976 26.5612C73.0655 27.0277 74.2771 27.8836 75.2326 29.1291L72.2726 31.2535Z" fill="#BF272D"/>
<path d="M222.964 182.733L221.482 182.448L222.479 181.878L222.964 182.733Z" fill="#2E2E2E"/>
<path d="M228.891 183.873L227.409 183.588L228.406 183.018L228.891 183.873Z" fill="#2E2E2E"/>
<path d="M226.041 181.023L224.559 180.737L225.557 180.167L226.041 181.023Z" fill="#2E2E2E"/>
<path d="M217.265 183.018L215.783 182.733L216.78 182.163L217.265 183.018Z" fill="#2E2E2E"/>
<path d="M220.114 179.882L218.632 179.597L219.63 179.027L220.114 179.882Z" fill="#2E2E2E"/>
<path d="M224.013 178.457L222.531 178.172L223.528 177.602L224.013 178.457Z" fill="#2E2E2E"/>
<path fill-rule="evenodd" clip-rule="evenodd" d="M222.96 171.818L222.531 172.264C220.677 174.187 218.392 176.557 217.265 177.727C216.004 179.036 212.647 182.483 210.59 184.586H229.683C229.378 182.99 228.753 179.669 227.964 175.437C227.824 174.688 227.601 173.501 227.468 172.799C227.335 172.097 227.097 170.776 226.939 169.864C226.782 168.951 226.606 168.204 226.548 168.204C226.49 168.204 224.876 169.831 222.96 171.818ZM215.783 182.733L217.265 183.018L216.78 182.163L215.783 182.733ZM222.964 182.733L221.482 182.448L222.479 181.878L222.964 182.733ZM227.409 183.588L228.891 183.873L228.406 183.018L227.409 183.588ZM226.041 181.023L224.559 180.737L225.557 180.167L226.041 181.023ZM222.531 178.172L224.013 178.457L223.528 177.602L222.531 178.172ZM220.114 179.882L218.632 179.597L219.63 179.027L220.114 179.882ZM224.013 175.036L225.495 175.321L225.01 174.466L224.013 175.036Z" fill="#BF272D"/>
<path d="M225.495 175.321L224.013 175.036L225.01 174.466L225.495 175.321Z" fill="#2E2E2E"/>
<path fill-rule="evenodd" clip-rule="evenodd" d="M240.671 259.167L240.896 258.403L241.04 257.722L240.945 256.799C240.892 256.291 240.689 255.514 240.493 255.071C240.298 254.628 240.158 254.248 240.182 254.225C240.207 254.203 240.744 254.292 241.377 254.423C242.373 254.63 242.688 254.629 243.716 254.414C245.116 254.122 246.572 253.234 247.301 252.228C249.081 249.77 248.802 246.244 246.674 244.28L245.955 243.618L246.873 243.503C248.863 243.254 250.764 241.877 251.673 240.024C252.065 239.226 252.132 238.873 252.129 237.64C252.126 236.261 251.898 235.488 251.076 234.059C251.047 234.009 253.358 231.909 256.213 229.392C259.067 226.876 261.403 224.748 261.403 224.663C261.403 224.523 263.601 218.551 264.55 216.112C264.769 215.55 265.464 213.712 266.094 212.027C266.724 210.342 267.613 207.968 268.069 206.751C269.29 203.493 269.462 203.034 270.299 200.795C272.274 195.509 275.04 188.133 275.277 187.52C275.422 187.146 276.38 184.58 277.406 181.819C278.433 179.058 279.349 176.617 279.443 176.395C279.996 175.089 295.931 132.428 295.931 132.254C295.931 132.138 295.162 131.296 294.221 130.382L292.512 128.721L229.63 128.71C195.045 128.705 165.945 128.638 164.962 128.562C163.911 128.481 159.398 127.678 153.992 126.612C148.449 125.519 144.623 124.84 144.344 124.901C144.089 124.957 143.637 125.23 143.339 125.509L142.797 126.015L141.463 125.727L139.372 125.287C139.332 125.281 139.286 125.271 139.234 125.258C139.022 125.204 138.447 125.075 137.958 124.97L137.068 124.779V113.941L137.706 113.735C138.873 113.356 141.052 112.218 142.086 111.447C143.465 110.418 145.382 108.516 146.094 107.47L147.081 106.086L147.427 105.448C148.478 103.509 149.196 101.226 149.475 98.9386C149.644 97.554 150.335 87.6934 150.335 86.6681C150.335 86.1933 150.365 86.1747 151.143 86.1727C152.286 86.1698 153.613 85.7792 154.573 85.1628C155.479 84.5806 158.046 81.7279 158.326 80.991C158.578 80.3292 158.266 79.3177 157.651 78.8C157.062 78.3038 156.625 78.2272 153.551 78.0825C152.279 78.0228 151.153 77.9208 151.049 77.8563C150.921 77.7774 150.893 77.3344 150.962 76.5073C151.054 75.4072 151.099 75.2864 151.381 75.3761C151.59 75.4423 151.736 75.3747 151.812 75.1771C151.879 75.0032 151.841 74.8493 151.723 74.8098C151.262 74.656 151.089 74.2889 151.154 73.6046C151.216 72.9565 151.26 72.9002 151.713 72.9002C152.038 72.9002 152.206 72.8131 152.206 72.6449C152.206 72.4759 152.037 72.3896 151.705 72.3896H151.205L151.296 71.2409C151.346 70.6092 151.52 68.1392 151.683 65.7524C151.962 61.6621 152.017 61.284 152.635 59.1749L153.291 56.9371L153.982 56.731C155.718 56.2124 157.366 54.691 157.998 53.0228C158.468 51.7808 158.499 49.8335 158.066 48.7338C157.607 47.5704 156.731 46.4638 155.714 45.763C154.825 45.15 154.795 45.1027 154.688 44.1578C154.5 42.5004 153.39 40.6178 152.101 39.7711C151.844 39.6019 151.713 39.2885 151.639 38.6669C151.583 38.1894 151.417 37.6171 151.272 37.395L151.007 36.9909C150.456 36.3018 147.808 34.9872 146.898 34.8467C146.432 34.7042 145.408 34.3336 145.046 33.9915C145.029 33.7538 144.915 33.2499 144.593 33.1361C144.523 33.1798 143.929 33.0331 143.275 32.8102C140.862 31.9878 138.072 32.4909 136.362 34.0568C135.799 34.5721 135.346 34.4999 135.177 33.8677C134.8 32.4572 133.626 31.6383 132.041 31.68C131.329 31.6987 131.115 31.6466 131.115 31.4545C131.115 31.0395 130.807 31.1679 129.979 31.9279C129.533 32.3372 129.162 32.5656 129.123 32.4541C128.718 31.2722 126.702 29.3433 125.058 28.5654C119.988 26.1652 114.074 28.8765 112.49 34.3279C112.28 35.0512 112.138 35.2884 111.958 35.2191C110.944 34.8298 109.664 34.582 108.611 34.5711C102.606 34.5088 98.4055 40.1101 100.083 45.9443C100.173 46.2583 100.096 46.3176 99.474 46.4172C98.5096 46.5716 97.8762 46.9242 97.3767 47.5849C96.3891 48.891 96.4577 50.5577 97.5451 51.6778L98.1341 52.2847L97.9327 55.2318C97.7439 57.9951 97.808 66.7378 98.0387 69.6667L98.1257 70.7729L97.3988 71.2884C95.6567 72.5234 94.6478 75.1058 95.043 77.3184C95.4089 79.3669 96.6551 81.0176 98.6998 82.1617L99.7666 82.7586L100.069 84.1689C100.935 88.2037 102.346 92.515 103.839 95.6874L104.751 97.6269L104.749 123.531L101.221 124.446C100.857 124.541 100.524 124.628 100.218 124.707C97.6747 125.371 97.0656 125.53 96.6622 125.311C96.5353 125.241 96.4287 125.135 96.2885 124.995C96.2353 124.941 96.1767 124.883 96.1109 124.82C95.4759 124.216 95.2813 124.126 94.6035 124.126C94.1756 124.126 91.1363 124.814 87.8498 125.655C77.0264 128.425 71.8877 129.742 68.182 130.694C64.4378 131.657 63.2904 132.077 61.8075 133.028L60.9608 133.572L78.8991 133.657C95.8598 133.737 96.8404 133.758 96.895 134.042C96.9499 134.327 96.0403 134.341 78.588 134.335L60.2232 134.328L59.4275 134.801C56.7428 136.395 55.0159 137.791 53.488 139.604C52.642 140.608 46.0704 150.144 46.0704 150.369C46.0704 150.397 57.5705 150.399 71.6263 150.372C85.6819 150.346 97.3544 150.367 97.5648 150.418C98.0055 150.526 98.0747 150.93 97.6784 151.082C97.5304 151.139 85.862 151.186 71.7484 151.186C49.9842 151.186 46.0667 151.15 45.9514 150.949C45.8551 150.781 45.3433 151.412 44.1994 153.109C42.2803 155.957 35.1101 166.631 29.0728 175.628C26.6936 179.174 24.493 182.438 24.1827 182.881C23.8725 183.325 23.6187 183.727 23.6187 183.775C23.6187 183.822 35.1188 183.858 49.1745 183.854L74.7304 183.847L76.9621 179.897C78.2407 177.635 79.3122 175.924 79.4709 175.893C80.1242 175.763 79.9661 176.084 75.8198 183.307L75.5029 183.859L97.6924 183.947L96.8419 184.283C96.0369 184.601 95.4286 184.624 85.4694 184.708L74.9474 184.797L72.8829 188.407C70.6163 192.37 70.3186 192.804 69.7578 192.964C69.4071 193.064 69.4289 192.983 70.041 191.913L72.4071 187.777C73.3436 186.14 74.0905 184.781 74.0669 184.758C74.0432 184.734 62.7141 184.713 48.891 184.711C33.458 184.709 23.6424 184.646 23.4581 184.547C23.1994 184.409 22.6487 185.146 19.4764 189.876C17.4515 192.895 15.7946 195.477 15.7946 195.615C15.7946 195.752 16.0625 196.262 16.3899 196.749C16.7174 197.235 16.9852 197.68 16.9852 197.737C16.9852 197.793 16.1171 199.156 15.0561 200.764C13.0513 203.803 11.0061 206.92 8.04775 211.447C7.09407 212.906 6.12575 214.285 5.89596 214.51C5.666 214.736 5.14604 215.495 4.74038 216.197C4.33472 216.899 3.71934 217.894 3.37321 218.409C1.84649 220.679 0.693288 223.563 0.208535 226.323C-0.150182 228.365 -0.0331604 231.885 0.460097 233.896C2.03444 240.313 6.55471 245.44 12.6092 247.677C15.0423 248.576 16.2639 248.778 19.2814 248.779C22.5198 248.78 23.8138 248.545 26.8504 247.402C27.7391 247.068 29.8822 246.312 31.6129 245.722C33.3435 245.133 37.1323 243.832 40.0323 242.833C42.9323 241.833 46.8358 240.491 48.7068 239.85C50.5778 239.21 52.2487 238.631 52.42 238.565C52.7105 238.452 52.7246 238.534 52.6296 239.787C52.5736 240.525 52.4521 243.465 52.3596 246.32C52.2673 249.175 52.1154 253.655 52.0222 256.276L51.8555 260.967L51.4303 272.942C51.1977 279.488 51.0477 284.883 51.0969 284.932C51.2214 285.057 176.373 284.994 176.498 284.869C176.607 284.76 176.759 280.905 176.957 273.252L177.082 268.444H212.029L213.456 267.172C214.241 266.473 214.93 265.899 214.987 265.896C215.044 265.893 216.269 266.552 217.708 267.359C219.148 268.167 220.579 268.935 220.889 269.067C224.195 270.479 228.027 268.672 229.028 265.228C229.378 264.023 229.268 262.156 228.788 261.168C228.595 260.771 228.461 260.445 228.492 260.445C228.523 260.445 229.147 260.802 229.88 261.237C231.989 262.491 233.016 262.956 234.107 263.15C236.852 263.638 239.897 261.791 240.671 259.167ZM133.048 56.8185C135.311 56.4718 137.564 55.3339 138.825 53.901L139.479 53.1578L140.357 53.9013C142.104 55.3807 144.065 55.5291 146.265 54.3482L146.872 54.0223L147.512 54.7885C148.261 55.6859 149.2 56.3152 150.406 56.7286L151.27 57.0251L151.24 59.304C151.212 61.4634 150.536 73.4567 150.421 73.8517C150.386 73.97 149.819 73.8502 148.862 73.5222C147.568 73.0789 147.109 73.0064 145.572 73.003C143.37 72.9979 142.214 73.3234 140.856 74.3318C139.619 75.2499 139.211 75.7101 139.338 76.0423C139.493 76.4465 139.887 76.3536 140.35 75.8041C140.83 75.2333 142.439 74.1589 143.042 74.0069C143.44 73.9065 143.445 73.9206 143.39 75.0062C143.339 76.0058 143.37 76.1308 143.73 76.3596C144.246 76.6875 145.427 76.8734 146.082 76.7295C146.82 76.5674 147.171 75.8167 147.051 74.6557L146.958 73.7508L147.413 73.8575C147.664 73.9162 148.29 74.1145 148.804 74.2981C149.319 74.4816 149.883 74.6749 150.058 74.7275C150.351 74.8151 150.367 74.946 150.259 76.2849C150.194 77.0886 150.12 77.767 150.095 77.792C150.07 77.817 148.87 77.7515 147.428 77.6465C145.987 77.5413 143.915 77.4452 142.824 77.4328C140.964 77.4115 140.821 77.4338 140.507 77.7942C140.323 78.0054 140.124 78.4842 140.064 78.8579C140.004 79.2316 139.914 79.5374 139.863 79.5374C139.813 79.5374 139.49 79.346 139.146 79.112C138.801 78.878 138.397 78.6865 138.247 78.6865C138.029 78.6865 137.844 78.0226 137.317 75.3495C136.685 72.143 136.465 71.5591 136.047 71.9841C135.963 72.0694 136.114 73.2377 136.396 74.6871C136.67 76.0912 136.952 77.5463 137.024 77.9207C137.149 78.5682 137.128 78.6159 136.602 78.8993C136.298 79.063 135.857 79.1971 135.623 79.1971C135.241 79.1971 135.197 79.1283 135.197 78.5294C135.197 78.0642 135.067 77.7073 134.768 77.3522C134.748 77.3277 134.729 77.3042 134.71 77.2817L134.709 77.2808C134.66 77.2205 134.617 77.1675 134.568 77.1205C134.22 76.7866 133.589 76.7483 128.478 76.4381L127.958 76.4065L127.628 76.3865C125.289 76.2442 122.342 76.0508 121.08 75.9569C117.963 75.7253 117.245 75.9761 116.841 77.438C116.618 78.2473 116.813 78.7645 118.027 80.5817C119.277 82.4522 120.06 83.2317 121.289 83.8287C122.423 84.3801 122.716 84.4226 127.492 84.7307C131.349 84.9795 131.458 84.9776 132.348 84.6444C133.862 84.0773 135.012 82.5067 135.026 80.984C135.034 80.0674 135.207 79.8312 135.767 79.9718C136.062 80.046 136.365 79.9901 136.638 79.8114C136.868 79.6608 137.123 79.5374 137.204 79.5374C137.286 79.5374 137.489 80.4374 137.655 81.5371C137.822 82.6369 138.021 83.8432 138.098 84.2176C138.176 84.592 138.292 85.4872 138.356 86.2069L138.365 86.3092C138.432 87.0461 138.473 87.4965 138.27 87.7594C137.952 88.1728 137.033 88.1229 134.668 87.9946L134.459 87.9833C132.061 87.8534 131.938 87.8623 131.995 88.1594C132.038 88.3858 132.266 88.5028 132.818 88.5833C134.199 88.7843 137.533 88.946 137.98 88.8335C138.774 88.6342 139.109 88.0903 139.109 87.0016C139.109 86.0268 138.551 81.7749 138.253 80.4735C138.167 80.0991 138.095 79.7354 138.093 79.6651C138.085 79.434 138.453 79.5317 138.892 79.8778C139.13 80.065 139.458 80.2182 139.621 80.2182C139.872 80.2182 139.928 80.4306 139.992 81.6222C140.08 83.2579 140.522 84.1388 141.676 84.9749C142.551 85.609 143.47 85.7926 146.834 86.0045C148.323 86.0983 149.568 86.2014 149.6 86.2336C149.632 86.2657 149.476 87.0124 149.254 87.8927C149.031 88.7731 148.603 90.5655 148.302 91.8759C147.63 94.8076 147.547 95.0244 147.091 95.0244C146.89 95.0244 145.935 94.3646 144.919 93.523C140.703 90.0313 140.513 89.9673 133.156 89.5658C129.704 89.3774 129.221 89.3848 128.223 89.6407C126.648 90.0451 125.265 90.7733 123.828 91.9554C123.142 92.5201 122.478 92.9821 122.354 92.9821C122.23 92.9821 122.101 93.0645 122.067 93.1653C121.989 93.3999 120.222 93.393 115.977 93.1411C112.271 92.9212 111.517 92.7209 110.518 91.6896C109.91 91.0618 109.775 90.6736 108.814 86.8042C108.362 84.9831 108.229 84.6444 108.001 84.7397C107.471 84.9608 105.231 85.0387 105.108 84.8403C105.043 84.7356 104.229 84.2679 103.297 83.8008C97.9446 81.1158 96.7164 80.1918 96.0462 78.3461C94.669 74.5532 97.2704 70.7245 101.271 70.6563C102.625 70.6331 103.232 70.8515 105.771 72.2732C106.941 72.9284 108.166 73.6131 108.493 73.795C108.82 73.9768 109.341 74.3161 109.649 74.549C110.25 75.0023 110.703 74.9727 110.705 74.4797C110.706 74.3131 110.863 73.9468 111.055 73.666C112.153 72.0557 113.608 68.6481 113.954 66.8715C114.191 65.6601 115.294 56.9357 115.295 56.2645C115.297 55.6241 115.307 55.6202 116.028 55.9932C118.647 57.3491 122.22 56.7695 124.369 54.6403L125.193 53.8242L125.645 54.2835C126.32 54.9692 127.968 55.9965 128.872 56.2945C130.002 56.6674 132.218 56.9454 133.048 56.8185ZM124.979 96.3008C125.65 94.8758 127.572 93.3433 129.499 92.6966C130.255 92.443 134.448 92.5054 137.067 92.8092C138.768 93.0065 140.113 93.6016 141.569 94.8006C142.94 95.9298 143.401 96.7892 143.393 98.1978C143.387 99.1858 143.331 99.3776 142.917 99.8097C142.467 100.28 142.383 100.3 140.906 100.299C139.06 100.297 137.354 100.043 136.814 99.69C136.599 99.5484 136.331 99.2121 136.219 98.9427C135.938 98.2642 135.513 97.9197 134.815 97.8066C134.15 97.6985 132.986 98.1509 132.986 98.5174C132.986 98.6388 132.75 98.9364 132.462 99.1788C131.986 99.5801 131.807 99.6189 130.464 99.6133C129.653 99.61 128.224 99.5389 127.289 99.4555C125.691 99.3127 125.562 99.2724 125.121 98.7782C124.554 98.1434 124.506 97.3059 124.979 96.3008ZM105.691 98.5983C105.829 98.5983 105.946 98.5026 105.952 98.3856C105.965 98.109 106.081 98.2901 107.209 100.349C108.03 101.848 108.773 102.939 110.016 104.467C110.862 105.508 113.736 108.274 114.463 108.747C114.875 109.015 115.288 109.317 115.382 109.417C115.553 109.6 116.019 109.924 117.151 110.646C118.404 111.445 121.733 112.943 123.461 113.486C125.621 114.164 126.781 114.416 128.904 114.666L130.52 114.857L130.567 119.109C130.594 121.447 130.573 123.531 130.522 123.74C129.939 126.125 123.198 127.717 116.912 126.955C114.698 126.686 111.587 125.967 109.514 125.243C108.178 124.777 105.939 123.811 105.642 123.573C105.473 123.437 105.429 120.782 105.434 110.999C105.439 100.184 105.472 98.5983 105.691 98.5983ZM133.028 114.707C133.987 114.647 135.001 114.527 135.282 114.441C135.312 114.431 135.342 114.422 135.37 114.413C135.417 114.398 135.462 114.383 135.505 114.369C135.759 114.285 135.94 114.225 136.069 114.282C136.393 114.425 136.392 115.303 136.388 118.381C136.388 118.716 136.388 119.076 136.388 119.464C136.388 123.557 136.342 124.657 136.175 124.599C136.058 124.559 134.91 124.302 133.624 124.028L131.285 123.531L131.285 114.818L133.028 114.707ZM132.338 127.828C133.014 127.118 133.836 125.621 133.836 125.1C133.836 124.829 133.92 124.797 134.389 124.896C137.261 125.496 142.585 126.697 142.646 126.757C142.711 126.823 143.237 132.216 143.866 139.273C144.022 141.028 144.422 145.335 144.892 150.335C145.1 152.541 146.318 165.733 146.672 169.604L146.932 172.45L146.534 173.518C146.144 174.564 146.121 174.587 145.471 174.625C145.106 174.646 141.248 174.784 136.898 174.93C120.956 175.469 120.621 175.496 117.601 176.472C115.893 177.024 114.2 177.805 112.675 178.743C111.532 179.447 110.181 179.936 103 182.244C101.616 182.689 100.455 183.023 100.419 182.987C100.382 182.951 100.194 180.356 100 177.222C99.8064 174.087 99.5705 170.298 99.4759 168.8C99.3815 167.302 99.1537 163.397 98.9702 160.121C98.7865 156.844 98.5957 153.59 98.5462 152.888C98.4152 151.029 98.3309 149.664 97.8636 141.826C97.632 137.941 97.3678 133.576 97.2763 132.125C97.185 130.674 97.0654 128.755 97.0106 127.86L96.9111 126.232L100.074 125.454L101.434 126.087C103.924 127.244 104.651 127.553 106.707 128.325C109.577 129.402 109.824 129.48 112.505 130.158C115.783 130.987 118.138 131.298 121.25 131.315C123.363 131.326 124.238 131.254 125.659 130.952C128.825 130.279 130.951 129.284 132.338 127.828ZM134.676 207.007C139.119 195.171 163.139 131.091 163.622 129.785L163.763 129.402H292.282L294.816 131.954L166.598 132.04L159.93 149.824C138.135 207.96 132.142 223.905 132.052 223.995C131.997 224.05 131.351 223.486 130.615 222.741L129.278 221.387L134.676 207.007ZM143.701 134.112C143.701 133.986 143.752 133.832 143.815 133.77C143.877 133.708 147.863 133.657 152.672 133.657C160.908 133.657 161.412 133.674 161.358 133.954C161.305 134.233 160.727 134.255 152.501 134.296C145.23 134.333 143.701 134.301 143.701 134.112ZM145.414 150.944C145.255 150.753 145.278 150.666 145.52 150.529C145.919 150.304 155.097 150.264 155.097 150.487C155.097 151.185 155.093 151.186 150.252 151.186C146.454 151.186 145.578 151.142 145.414 150.944ZM35.0997 167.694C35.0419 167.6 35.042 167.447 35.1 167.353C35.1698 167.24 45.9582 167.183 67.0868 167.185C98.7978 167.187 98.968 167.189 98.968 167.525C98.968 167.862 98.7984 167.864 67.0864 167.864C46.0155 167.864 35.1691 167.806 35.0997 167.694ZM147.8 167.831C146.879 167.884 146.457 167.711 146.669 167.368C146.732 167.266 147.243 167.183 147.806 167.183C148.688 167.183 148.821 167.224 148.772 167.481C148.728 167.713 148.512 167.79 147.8 167.831ZM210.59 184.586C212.647 182.483 216.004 179.036 217.265 177.727C218.392 176.557 220.677 174.187 222.531 172.264L222.96 171.818C224.876 169.831 226.49 168.204 226.548 168.204C226.606 168.204 226.782 168.951 226.939 169.864C227.097 170.776 227.335 172.097 227.468 172.799C227.601 173.501 227.824 174.688 227.964 175.437C228.753 179.669 229.378 182.99 229.683 184.586L229.74 184.879C229.77 185.035 229.795 185.167 229.817 185.276L229.84 185.395C229.85 185.445 229.858 185.487 229.865 185.521L229.979 186.074H219.554C213.82 186.074 209.161 186.042 209.2 186.002C209.494 185.705 209.986 185.203 210.59 184.586ZM17.0456 196.553C16.5456 195.816 16.5459 195.812 17.1128 195.726C17.8731 195.611 18.346 195.598 18.346 195.693C18.346 195.742 18.1435 196.088 17.8961 196.462L17.4462 197.142L17.0456 196.553ZM44.4546 201.05C43.0915 201.553 41.718 201.455 42.0733 200.88C42.132 200.785 42.868 200.716 43.7417 200.723L45.305 200.736L44.4546 201.05ZM123.536 226.663C124.177 226.102 125.627 224.826 126.758 223.828C128.273 222.491 128.882 222.051 129.071 222.156C129.213 222.234 129.863 222.847 130.516 223.518L131.704 224.738L131.107 225.275C130.779 225.571 129.977 226.281 129.325 226.854C128.672 227.427 127.067 228.845 125.757 230.006C124.447 231.166 123.064 232.382 122.683 232.708C122.302 233.034 119.704 235.33 116.91 237.81C114.115 240.291 110.827 243.201 109.603 244.277C108.378 245.354 107.111 246.478 106.787 246.775C106.462 247.072 106.005 247.48 105.772 247.682C104.52 248.763 103.038 250.067 102.285 250.749C101.817 251.173 100.899 251.976 100.244 252.534C99.5888 253.091 98.3642 254.171 97.5223 254.933C96.6803 255.695 93.3126 258.679 90.0384 261.562C86.7642 264.446 84.047 266.849 84.0002 266.902C83.9534 266.954 83.7417 267.144 83.5298 267.324C83.1498 267.646 83.1407 267.646 82.8826 267.324C82.3791 266.696 81.9666 265.63 81.9629 264.949C81.9544 263.373 82.2952 263.028 94.0354 252.745C95.1113 251.803 96.4169 250.642 96.9368 250.165C97.4568 249.688 98.3669 248.877 98.9595 248.362L99.0277 248.303C99.6904 247.727 100.062 247.404 100.433 247.08C100.897 246.674 101.361 246.266 102.395 245.357L102.428 245.327L102.442 245.315L102.459 245.3L102.478 245.283C103.479 244.402 106.332 241.88 108.819 239.678C111.306 237.476 114.685 234.489 116.328 233.041C117.972 231.592 120.003 229.795 120.843 229.046C121.683 228.297 122.895 227.225 123.536 226.663ZM195.135 225.046C137.862 225.046 137.748 225.046 137.748 224.706C137.748 224.366 137.862 224.366 195.125 224.366C226.682 224.366 252.547 224.412 252.603 224.467C252.659 224.523 252.664 224.677 252.613 224.808C252.535 225.012 244.21 225.046 195.135 225.046ZM235.752 237.328C233.188 234.491 234.312 230.133 237.955 228.78C239.291 228.284 240.649 228.411 242.133 229.173C243.709 229.982 244.463 230.391 244.564 230.492C244.611 230.539 244.819 230.673 245.026 230.788C249.359 233.209 249.867 233.568 250.602 234.731C251.951 236.864 251.726 239.428 250.037 241.165C248.325 242.925 245.868 243.294 243.633 242.124C240.775 240.629 236.242 237.87 235.752 237.328ZM77.0266 234.858L63.1643 234.884L65.5456 234.087L78.2172 234.119C90.7646 234.151 90.8888 234.155 90.8888 234.492C90.8888 234.829 90.7667 234.832 77.0266 234.858ZM227.53 244.51C226.515 241.837 228.131 238.644 230.957 237.739C232.01 237.402 233.276 237.413 234.189 237.768C234.61 237.932 235.681 238.495 236.57 239.02C237.459 239.545 239.806 240.911 241.787 242.056C243.768 243.201 245.699 244.403 246.078 244.728C246.486 245.078 246.977 245.758 247.282 246.396C248.541 249.037 247.428 252.031 244.689 253.371C243.794 253.808 243.583 253.844 242.281 253.775C240.989 253.707 240.744 253.636 239.69 253.017C237.333 251.632 233.198 249.228 231.244 248.107C229.017 246.829 228.057 245.899 227.53 244.51ZM221.094 248.784C221.806 247.749 223.128 246.879 224.408 246.603C226.061 246.246 227.014 246.597 231.625 249.255C233.924 250.581 236.276 251.919 236.851 252.229C238.069 252.884 239.28 254.017 239.691 254.886C240.104 255.756 240.355 257.3 240.218 258.123C239.942 259.777 238.587 261.464 236.982 262.152C236.091 262.535 234.1 262.593 233.253 262.262C232.617 262.013 228.374 259.611 226.831 258.626C226.198 258.223 225.653 257.892 225.619 257.892C225.367 257.892 222.081 255.884 221.629 255.454C219.875 253.786 219.643 250.894 221.094 248.784ZM52.7039 251.369C52.7039 251.244 52.7549 251.091 52.8173 251.028C52.8796 250.966 60.4489 250.915 69.6379 250.915C83.8141 250.915 86.359 250.951 86.4366 251.153C86.4869 251.285 86.4823 251.438 86.4264 251.494C86.3706 251.55 78.7601 251.595 69.5143 251.595C55.619 251.595 52.7039 251.556 52.7039 251.369ZM215.817 256.147C216.052 256.052 216.512 255.867 216.84 255.738C217.227 255.585 217.851 255.528 218.625 255.575C219.891 255.652 220.353 255.849 223.473 257.638C224.268 258.094 225.187 258.599 225.514 258.761C226.537 259.267 227.516 260.245 228.012 261.258C228.416 262.079 228.491 262.446 228.491 263.594C228.491 264.739 228.415 265.108 228.016 265.922C227.002 267.987 224.755 269.133 222.437 268.767C221.836 268.672 220.628 268.12 218.487 266.963C214.057 264.568 213.252 263.671 213.128 260.993C213.069 259.729 213.11 259.487 213.529 258.63C214.026 257.614 215.113 256.434 215.817 256.147ZM52.1035 268.266C52.0429 268.168 52.0361 267.976 52.0882 267.84C52.17 267.627 54.1809 267.593 66.8213 267.593C80.0863 267.593 81.4693 267.618 81.564 267.865C81.6215 268.015 81.5617 268.206 81.4312 268.288C81.0786 268.512 52.2417 268.489 52.1035 268.266ZM80.1722 274.571C80.7076 272.745 81.3803 270.427 81.6671 269.419L82.1884 267.586L83.0833 268.444H155.757L155.849 269.167C156.003 270.383 157.207 283.528 157.221 284.145C157.223 284.264 77.5504 284.342 77.4326 284.224C77.3827 284.174 78.2053 281.275 80.1722 274.571ZM156.705 268.26C156.646 268.165 156.641 267.976 156.693 267.84C156.774 267.628 158.186 267.593 166.658 267.593C176.227 267.593 176.529 267.603 176.529 267.915C176.529 268.116 176.37 268.277 176.106 268.343C175.363 268.53 156.822 268.45 156.705 268.26ZM137.304 175.694C134.17 175.813 129.425 175.992 126.759 176.093C119.659 176.359 117.046 177.032 112.546 179.753C111.603 180.324 110.164 180.833 103.456 182.97C102.1 183.402 100.186 184.015 99.2041 184.331C98.2219 184.647 96.0405 185.345 94.3566 185.881C92.6727 186.417 90.7592 187.034 90.1044 187.251C89.4495 187.468 87.4212 188.119 85.597 188.699C83.7728 189.279 80.7878 190.237 78.9636 190.827C77.1394 191.418 74.1543 192.376 72.3301 192.956C70.5059 193.535 67.5208 194.494 65.6966 195.086C63.8724 195.678 60.4281 196.784 58.0426 197.544C55.6572 198.303 52.9017 199.184 51.9195 199.501C49.7998 200.186 43.3279 202.264 37.2918 204.197C34.9063 204.961 32.5336 205.726 32.0191 205.896C28.3047 207.128 25.0157 208.105 24.8738 208.017C24.7811 207.96 24.7053 207.808 24.7053 207.681C24.7053 207.443 26.2129 206.939 41.0338 202.215C42.3275 201.803 42.3451 201.74 41.3459 201.115C39.067 199.69 34.4372 197.607 32.1041 196.957C29.0602 196.109 24.8541 195.507 21.9968 195.511C19.8339 195.514 19.3903 195.622 18.9802 196.249C18.7874 196.544 18.1056 197.59 17.4654 198.572C16.8252 199.555 16.2404 200.385 16.1661 200.416C16.0916 200.447 16.0307 200.54 16.0307 200.622C16.0307 200.704 14.6724 202.823 13.0122 205.33C11.3519 207.838 9.95515 209.966 9.90804 210.06C9.82691 210.221 7.8156 213.292 6.54181 215.199C6.21694 215.686 5.76961 216.255 5.54799 216.463C5.32636 216.671 5.14504 216.9 5.14504 216.972C5.14504 217.044 4.68869 217.834 4.1308 218.729C1.90893 222.294 0.950997 225.087 0.771383 228.523C0.617453 231.469 1.24389 234.791 2.43859 237.366C3.10534 238.803 4.59549 241.032 5.69154 242.232C6.5311 243.152 8.75535 244.959 9.82249 245.59C13.4649 247.743 17.9502 248.644 21.9593 248.03C23.7403 247.757 25.6028 247.174 33.72 244.35C35.9184 243.585 38.0615 242.855 38.4824 242.728C38.9034 242.601 40.5873 242.026 42.2244 241.45C47.232 239.689 52.9225 237.72 54.9811 237.037C56.0569 236.68 58.7358 235.764 60.9342 235.001C65.3432 233.472 66.5374 233.061 70.5442 231.693C72.0409 231.183 75.0643 230.136 77.2627 229.369C79.4611 228.601 81.6042 227.872 82.0252 227.748C82.4461 227.625 83.4412 227.285 84.2363 226.994C85.0315 226.702 86.5623 226.166 87.6381 225.802C88.7139 225.437 91.3928 224.519 93.5912 223.76C95.7896 223.002 98.7527 221.987 100.176 221.504L100.515 221.361L121.071 212.769L122.102 212.154L122.044 210.171C122.013 209.08 121.912 206.387 121.821 204.187C121.73 201.987 121.656 199.44 121.656 198.528C121.656 197.501 121.589 196.871 121.48 196.871C121.254 196.871 120.022 197.5 118.512 198.386C117.859 198.769 117.189 199.083 117.024 199.083C116.48 199.083 116.691 198.483 117.361 198.123C117.712 197.934 118.87 197.303 119.936 196.72C121.001 196.138 121.977 195.701 122.104 195.75C122.25 195.806 122.336 196.109 122.336 196.567C122.335 196.968 122.414 199.249 122.511 201.636C122.607 204.023 122.796 209.147 122.93 213.024C123.173 220.023 123.177 220.079 123.614 220.971C124.111 221.987 124.704 222.667 125.559 223.2L126.146 223.565L127.445 222.392C128.682 221.277 128.771 221.147 129.267 219.724C129.824 218.127 131.72 213.1 132.558 211.001L133.065 209.729L132.889 204.534C132.792 201.676 132.663 198.432 132.602 197.323L132.492 195.309L132.899 195.366C132.911 195.368 132.923 195.369 132.934 195.371L132.949 195.372C132.989 195.377 133.026 195.381 133.058 195.393C133.336 195.502 133.364 196.252 133.622 203.377L133.659 204.411C133.72 206.078 133.814 207.397 133.867 207.343C133.921 207.29 134.056 206.998 134.167 206.696C134.825 204.908 138.258 195.729 139.624 192.105C140.136 190.748 140.965 188.527 141.466 187.17C141.968 185.813 143.15 182.673 144.093 180.192C145.036 177.712 145.808 175.625 145.808 175.555C145.809 175.398 144.564 175.418 137.304 175.694ZM95.0637 224.095C95.1426 224.018 96.7761 223.422 98.6939 222.771L122.081 213.019L122.192 214.433C122.253 215.21 122.311 216.612 122.322 217.548C122.333 218.484 122.442 219.676 122.564 220.198C122.843 221.379 123.825 222.886 124.725 223.51C125.101 223.77 125.381 224.067 125.347 224.17C125.314 224.272 124.603 224.959 123.769 225.697C122.934 226.434 121.715 227.513 121.061 228.094C120.406 228.675 119.181 229.755 118.339 230.494C117.497 231.232 116.54 232.078 116.213 232.372C115.886 232.666 114.846 233.587 113.903 234.418C107.772 239.819 106.684 240.782 105.842 241.55C105.325 242.021 103.945 243.245 102.776 244.269C101.607 245.293 100.382 246.375 100.055 246.672C99.7272 246.969 98.7321 247.844 97.8434 248.615C96.9547 249.387 95.9214 250.294 95.5472 250.632C94.8084 251.3 92.5302 253.318 87.6636 257.616C85.9471 259.132 84.5117 260.342 84.4743 260.304C84.4367 260.267 84.5906 259.63 84.8162 258.889C85.2514 257.46 85.4326 256.842 87.7299 248.947C88.5334 246.186 89.4485 243.046 89.7635 241.97C90.0785 240.893 90.9256 237.983 91.6461 235.503L91.7057 235.297L91.7819 235.035C92.4911 232.593 93.4309 229.358 93.938 227.613C94.4782 225.755 94.9847 224.171 95.0637 224.095Z" fill="#2E2E2E"/>
<path d="M98.6939 222.771C96.7761 223.422 95.1426 224.018 95.0637 224.095C94.9847 224.171 94.4782 225.755 93.938 227.613C93.4309 229.358 92.4911 232.593 91.7819 235.035L91.7057 235.297L91.6461 235.503C90.9256 237.983 90.0785 240.893 89.7635 241.97C89.4485 243.046 88.5334 246.186 87.7299 248.947C85.4326 256.842 85.2514 257.46 84.8162 258.889C84.5906 259.63 84.4367 260.267 84.4743 260.304C84.5117 260.342 85.9471 259.132 87.6636 257.616C92.5302 253.318 94.8084 251.3 95.5472 250.632C95.9214 250.294 96.9547 249.387 97.8434 248.615C98.7321 247.844 99.7272 246.969 100.055 246.672C100.382 246.375 101.607 245.293 102.776 244.269C103.945 243.245 105.325 242.021 105.842 241.55C106.684 240.782 107.772 239.819 113.903 234.418C114.846 233.587 115.886 232.666 116.213 232.372C116.54 232.078 117.497 231.232 118.339 230.494C119.181 229.755 120.406 228.675 121.061 228.094C121.715 227.513 122.934 226.434 123.769 225.697C124.603 224.959 125.314 224.272 125.347 224.17C125.381 224.067 125.101 223.77 124.725 223.51C123.825 222.886 122.843 221.379 122.564 220.198C122.442 219.676 122.333 218.484 122.322 217.548C122.311 216.612 122.253 215.21 122.192 214.433L122.081 213.019L98.6939 222.771Z" fill="#D7777B"/>
</svg>
