<svg width="164" height="30" viewBox="0 0 164 30" fill="none" xmlns="http://www.w3.org/2000/svg">
<path d="M7 0V0C3.13401 0 0 3.13401 0 7V30V30C3.86599 30 7 26.866 7 23V0Z" fill="#BF272D"/>
<path d="M19.455 18.505H15.285L14.595 20.5H12.39L16.155 10.015H18.6L22.365 20.5H20.145L19.455 18.505ZM18.885 16.825L17.37 12.445L15.855 16.825H18.885ZM23.2323 16.315C23.2323 15.475 23.3973 14.73 23.7273 14.08C24.0673 13.43 24.5273 12.93 25.1073 12.58C25.6873 12.23 26.3323 12.055 27.0423 12.055C27.5823 12.055 28.0973 12.175 28.5873 12.415C29.0773 12.645 29.4673 12.955 29.7573 13.345V9.4H31.8873V20.5H29.7573V19.27C29.4973 19.68 29.1323 20.01 28.6623 20.26C28.1923 20.51 27.6473 20.635 27.0273 20.635C26.3273 20.635 25.6873 20.455 25.1073 20.095C24.5273 19.735 24.0673 19.23 23.7273 18.58C23.3973 17.92 23.2323 17.165 23.2323 16.315ZM29.7723 16.345C29.7723 15.835 29.6723 15.4 29.4723 15.04C29.2723 14.67 29.0023 14.39 28.6623 14.2C28.3223 14 27.9573 13.9 27.5673 13.9C27.1773 13.9 26.8173 13.995 26.4873 14.185C26.1573 14.375 25.8873 14.655 25.6773 15.025C25.4773 15.385 25.3773 15.815 25.3773 16.315C25.3773 16.815 25.4773 17.255 25.6773 17.635C25.8873 18.005 26.1573 18.29 26.4873 18.49C26.8273 18.69 27.1873 18.79 27.5673 18.79C27.9573 18.79 28.3223 18.695 28.6623 18.505C29.0023 18.305 29.2723 18.025 29.4723 17.665C29.6723 17.295 29.7723 16.855 29.7723 16.345ZM33.3983 16.315C33.3983 15.475 33.5633 14.73 33.8933 14.08C34.2333 13.43 34.6933 12.93 35.2733 12.58C35.8533 12.23 36.4983 12.055 37.2083 12.055C37.7483 12.055 38.2633 12.175 38.7533 12.415C39.2433 12.645 39.6333 12.955 39.9233 13.345V9.4H42.0533V20.5H39.9233V19.27C39.6633 19.68 39.2983 20.01 38.8283 20.26C38.3583 20.51 37.8133 20.635 37.1933 20.635C36.4933 20.635 35.8533 20.455 35.2733 20.095C34.6933 19.735 34.2333 19.23 33.8933 18.58C33.5633 17.92 33.3983 17.165 33.3983 16.315ZM39.9383 16.345C39.9383 15.835 39.8383 15.4 39.6383 15.04C39.4383 14.67 39.1683 14.39 38.8283 14.2C38.4883 14 38.1233 13.9 37.7333 13.9C37.3433 13.9 36.9833 13.995 36.6533 14.185C36.3233 14.375 36.0533 14.655 35.8433 15.025C35.6433 15.385 35.5433 15.815 35.5433 16.315C35.5433 16.815 35.6433 17.255 35.8433 17.635C36.0533 18.005 36.3233 18.29 36.6533 18.49C36.9933 18.69 37.3533 18.79 37.7333 18.79C38.1233 18.79 38.4883 18.695 38.8283 18.505C39.1683 18.305 39.4383 18.025 39.6383 17.665C39.8383 17.295 39.9383 16.855 39.9383 16.345ZM56.6336 20.5H54.5336L49.7786 13.315V20.5H47.6786V10.015H49.7786L54.5336 17.215V10.015H56.6336V20.5ZM66.4338 16.165C66.4338 16.465 66.4138 16.735 66.3738 16.975H60.2988C60.3488 17.575 60.5588 18.045 60.9288 18.385C61.2988 18.725 61.7538 18.895 62.2938 18.895C63.0738 18.895 63.6288 18.56 63.9588 17.89H66.2238C65.9838 18.69 65.5238 19.35 64.8438 19.87C64.1638 20.38 63.3288 20.635 62.3388 20.635C61.5388 20.635 60.8188 20.46 60.1788 20.11C59.5488 19.75 59.0538 19.245 58.6938 18.595C58.3438 17.945 58.1688 17.195 58.1688 16.345C58.1688 15.485 58.3438 14.73 58.6938 14.08C59.0438 13.43 59.5338 12.93 60.1638 12.58C60.7938 12.23 61.5188 12.055 62.3388 12.055C63.1288 12.055 63.8338 12.225 64.4538 12.565C65.0838 12.905 65.5688 13.39 65.9088 14.02C66.2588 14.64 66.4338 15.355 66.4338 16.165ZM64.2588 15.565C64.2488 15.025 64.0538 14.595 63.6738 14.275C63.2938 13.945 62.8288 13.78 62.2788 13.78C61.7588 13.78 61.3188 13.94 60.9588 14.26C60.6088 14.57 60.3938 15.005 60.3138 15.565H64.2588ZM79.4866 12.19L77.0566 20.5H74.7916L73.2766 14.695L71.7616 20.5H69.4816L67.0366 12.19H69.1666L70.6366 18.52L72.2266 12.19H74.4466L76.0066 18.505L77.4766 12.19H79.4866ZM83.6871 15.25C83.6871 14.22 83.9171 13.3 84.3771 12.49C84.8471 11.67 85.4821 11.035 86.2821 10.585C87.0921 10.125 87.9971 9.895 88.9971 9.895C90.1671 9.895 91.1921 10.195 92.0721 10.795C92.9521 11.395 93.5671 12.225 93.9171 13.285H91.5021C91.2621 12.785 90.9221 12.41 90.4821 12.16C90.0521 11.91 89.5521 11.785 88.9821 11.785C88.3721 11.785 87.8271 11.93 87.3471 12.22C86.8771 12.5 86.5071 12.9 86.2371 13.42C85.9771 13.94 85.8471 14.55 85.8471 15.25C85.8471 15.94 85.9771 16.55 86.2371 17.08C86.5071 17.6 86.8771 18.005 87.3471 18.295C87.8271 18.575 88.3721 18.715 88.9821 18.715C89.5521 18.715 90.0521 18.59 90.4821 18.34C90.9221 18.08 91.2621 17.7 91.5021 17.2H93.9171C93.5671 18.27 92.9521 19.105 92.0721 19.705C91.2021 20.295 90.1771 20.59 88.9971 20.59C87.9971 20.59 87.0921 20.365 86.2821 19.915C85.4821 19.455 84.8471 18.82 84.3771 18.01C83.9171 17.2 83.6871 16.28 83.6871 15.25ZM103.436 16.165C103.436 16.465 103.416 16.735 103.376 16.975H97.3008C97.3508 17.575 97.5608 18.045 97.9308 18.385C98.3008 18.725 98.7558 18.895 99.2958 18.895C100.076 18.895 100.631 18.56 100.961 17.89H103.226C102.986 18.69 102.526 19.35 101.846 19.87C101.166 20.38 100.331 20.635 99.3408 20.635C98.5408 20.635 97.8208 20.46 97.1808 20.11C96.5508 19.75 96.0558 19.245 95.6958 18.595C95.3458 17.945 95.1708 17.195 95.1708 16.345C95.1708 15.485 95.3458 14.73 95.6958 14.08C96.0458 13.43 96.5358 12.93 97.1658 12.58C97.7958 12.23 98.5208 12.055 99.3408 12.055C100.131 12.055 100.836 12.225 101.456 12.565C102.086 12.905 102.571 13.39 102.911 14.02C103.261 14.64 103.436 15.355 103.436 16.165ZM101.261 15.565C101.251 15.025 101.056 14.595 100.676 14.275C100.296 13.945 99.8308 13.78 99.2808 13.78C98.7608 13.78 98.3208 13.94 97.9608 14.26C97.6108 14.57 97.3958 15.005 97.3158 15.565H101.261ZM107.069 13.48C107.339 13.04 107.689 12.695 108.119 12.445C108.559 12.195 109.059 12.07 109.619 12.07V14.275H109.064C108.404 14.275 107.904 14.43 107.564 14.74C107.234 15.05 107.069 15.59 107.069 16.36V20.5H104.969V12.19H107.069V13.48ZM113.478 13.915V17.935C113.478 18.215 113.543 18.42 113.673 18.55C113.813 18.67 114.043 18.73 114.363 18.73H115.338V20.5H114.018C112.248 20.5 111.363 19.64 111.363 17.92V13.915H110.373V12.19H111.363V10.135H113.478V12.19H115.338V13.915H113.478ZM117.913 11.2C117.543 11.2 117.233 11.085 116.983 10.855C116.743 10.615 116.623 10.32 116.623 9.97C116.623 9.62 116.743 9.33 116.983 9.1C117.233 8.86 117.543 8.74 117.913 8.74C118.283 8.74 118.588 8.86 118.828 9.1C119.078 9.33 119.203 9.62 119.203 9.97C119.203 10.32 119.078 10.615 118.828 10.855C118.588 11.085 118.283 11.2 117.913 11.2ZM118.948 12.19V20.5H116.848V12.19H118.948ZM124.833 13.915H123.378V20.5H121.248V13.915H120.303V12.19H121.248V11.77C121.248 10.75 121.538 10 122.118 9.52C122.698 9.04 123.573 8.815 124.743 8.845V10.615C124.233 10.605 123.878 10.69 123.678 10.87C123.478 11.05 123.378 11.375 123.378 11.845V12.19H124.833V13.915ZM127.259 11.2C126.889 11.2 126.579 11.085 126.329 10.855C126.089 10.615 125.969 10.32 125.969 9.97C125.969 9.62 126.089 9.33 126.329 9.1C126.579 8.86 126.889 8.74 127.259 8.74C127.629 8.74 127.934 8.86 128.174 9.1C128.424 9.33 128.549 9.62 128.549 9.97C128.549 10.32 128.424 10.615 128.174 10.855C127.934 11.085 127.629 11.2 127.259 11.2ZM128.294 12.19V20.5H126.194V12.19H128.294ZM129.829 16.345C129.829 15.485 130.004 14.735 130.354 14.095C130.704 13.445 131.189 12.945 131.809 12.595C132.429 12.235 133.139 12.055 133.939 12.055C134.969 12.055 135.819 12.315 136.489 12.835C137.169 13.345 137.624 14.065 137.854 14.995H135.589C135.469 14.635 135.264 14.355 134.974 14.155C134.694 13.945 134.344 13.84 133.924 13.84C133.324 13.84 132.849 14.06 132.499 14.5C132.149 14.93 131.974 15.545 131.974 16.345C131.974 17.135 132.149 17.75 132.499 18.19C132.849 18.62 133.324 18.835 133.924 18.835C134.774 18.835 135.329 18.455 135.589 17.695H137.854C137.624 18.595 137.169 19.31 136.489 19.84C135.809 20.37 134.959 20.635 133.939 20.635C133.139 20.635 132.429 20.46 131.809 20.11C131.189 19.75 130.704 19.25 130.354 18.61C130.004 17.96 129.829 17.205 129.829 16.345ZM138.852 16.315C138.852 15.475 139.017 14.73 139.347 14.08C139.687 13.43 140.142 12.93 140.712 12.58C141.292 12.23 141.937 12.055 142.647 12.055C143.267 12.055 143.807 12.18 144.267 12.43C144.737 12.68 145.112 12.995 145.392 13.375V12.19H147.507V20.5H145.392V19.285C145.122 19.675 144.747 20 144.267 20.26C143.797 20.51 143.252 20.635 142.632 20.635C141.932 20.635 141.292 20.455 140.712 20.095C140.142 19.735 139.687 19.23 139.347 18.58C139.017 17.92 138.852 17.165 138.852 16.315ZM145.392 16.345C145.392 15.835 145.292 15.4 145.092 15.04C144.892 14.67 144.622 14.39 144.282 14.2C143.942 14 143.577 13.9 143.187 13.9C142.797 13.9 142.437 13.995 142.107 14.185C141.777 14.375 141.507 14.655 141.297 15.025C141.097 15.385 140.997 15.815 140.997 16.315C140.997 16.815 141.097 17.255 141.297 17.635C141.507 18.005 141.777 18.29 142.107 18.49C142.447 18.69 142.807 18.79 143.187 18.79C143.577 18.79 143.942 18.695 144.282 18.505C144.622 18.305 144.892 18.025 145.092 17.665C145.292 17.295 145.392 16.855 145.392 16.345ZM152.003 13.915V17.935C152.003 18.215 152.068 18.42 152.198 18.55C152.338 18.67 152.568 18.73 152.888 18.73H153.863V20.5H152.543C150.773 20.5 149.888 19.64 149.888 17.92V13.915H148.898V12.19H149.888V10.135H152.003V12.19H153.863V13.915H152.003ZM163.099 16.165C163.099 16.465 163.079 16.735 163.039 16.975H156.964C157.014 17.575 157.224 18.045 157.594 18.385C157.964 18.725 158.419 18.895 158.959 18.895C159.739 18.895 160.294 18.56 160.624 17.89H162.889C162.649 18.69 162.189 19.35 161.509 19.87C160.829 20.38 159.994 20.635 159.004 20.635C158.204 20.635 157.484 20.46 156.844 20.11C156.214 19.75 155.719 19.245 155.359 18.595C155.009 17.945 154.834 17.195 154.834 16.345C154.834 15.485 155.009 14.73 155.359 14.08C155.709 13.43 156.199 12.93 156.829 12.58C157.459 12.23 158.184 12.055 159.004 12.055C159.794 12.055 160.499 12.225 161.119 12.565C161.749 12.905 162.234 13.39 162.574 14.02C162.924 14.64 163.099 15.355 163.099 16.165ZM160.924 15.565C160.914 15.025 160.719 14.595 160.339 14.275C159.959 13.945 159.494 13.78 158.944 13.78C158.424 13.78 157.984 13.94 157.624 14.26C157.274 14.57 157.059 15.005 156.979 15.565H160.924Z" fill="#2E2E2E"/>
</svg>
