<svg width="96" height="30" viewBox="0 0 96 30" fill="none" xmlns="http://www.w3.org/2000/svg">
<path d="M7 0V0C3.13401 0 0 3.13401 0 7V30V30C3.86599 30 7 26.866 7 23V0Z" fill="#BF272D"/>
<path d="M12.645 16.375C12.645 15.525 12.815 14.785 13.155 14.155C13.495 13.515 13.965 13.02 14.565 12.67C15.175 12.32 15.87 12.145 16.65 12.145C17.66 12.145 18.49 12.39 19.14 12.88C19.8 13.37 20.235 14.05 20.445 14.92H18.975C18.835 14.42 18.56 14.025 18.15 13.735C17.75 13.445 17.25 13.3 16.65 13.3C15.87 13.3 15.24 13.57 14.76 14.11C14.28 14.64 14.04 15.395 14.04 16.375C14.04 17.365 14.28 18.13 14.76 18.67C15.24 19.21 15.87 19.48 16.65 19.48C17.25 19.48 17.75 19.34 18.15 19.06C18.55 18.78 18.825 18.38 18.975 17.86H20.445C20.225 18.7 19.785 19.375 19.125 19.885C18.465 20.385 17.64 20.635 16.65 20.635C15.87 20.635 15.175 20.46 14.565 20.11C13.965 19.76 13.495 19.265 13.155 18.625C12.815 17.985 12.645 17.235 12.645 16.375ZM29.7663 16.075C29.7663 16.335 29.7513 16.61 29.7213 16.9H23.1513C23.2013 17.71 23.4763 18.345 23.9763 18.805C24.4863 19.255 25.1013 19.48 25.8213 19.48C26.4113 19.48 26.9013 19.345 27.2913 19.075C27.6913 18.795 27.9713 18.425 28.1313 17.965H29.6013C29.3813 18.755 28.9413 19.4 28.2813 19.9C27.6213 20.39 26.8013 20.635 25.8213 20.635C25.0413 20.635 24.3413 20.46 23.7213 20.11C23.1113 19.76 22.6313 19.265 22.2813 18.625C21.9313 17.975 21.7563 17.225 21.7563 16.375C21.7563 15.525 21.9263 14.78 22.2663 14.14C22.6063 13.5 23.0813 13.01 23.6913 12.67C24.3113 12.32 25.0213 12.145 25.8213 12.145C26.6013 12.145 27.2913 12.315 27.8913 12.655C28.4913 12.995 28.9513 13.465 29.2713 14.065C29.6013 14.655 29.7663 15.325 29.7663 16.075ZM28.3563 15.79C28.3563 15.27 28.2413 14.825 28.0113 14.455C27.7813 14.075 27.4663 13.79 27.0663 13.6C26.6763 13.4 26.2413 13.3 25.7613 13.3C25.0713 13.3 24.4813 13.52 23.9913 13.96C23.5113 14.4 23.2363 15.01 23.1663 15.79H28.3563ZM32.9331 13.615C33.1731 13.145 33.5131 12.78 33.9531 12.52C34.4031 12.26 34.9481 12.13 35.5881 12.13V13.54H35.2281C33.6981 13.54 32.9331 14.37 32.9331 16.03V20.5H31.5681V12.28H32.9331V13.615ZM38.8288 13.405V18.25C38.8288 18.65 38.9138 18.935 39.0838 19.105C39.2538 19.265 39.5488 19.345 39.9688 19.345H40.9738V20.5H39.7438C38.9838 20.5 38.4138 20.325 38.0338 19.975C37.6538 19.625 37.4638 19.05 37.4638 18.25V13.405H36.3988V12.28H37.4638V10.21H38.8288V12.28H40.9738V13.405H38.8288ZM43.3327 10.945C43.0727 10.945 42.8527 10.855 42.6727 10.675C42.4927 10.495 42.4027 10.275 42.4027 10.015C42.4027 9.755 42.4927 9.535 42.6727 9.355C42.8527 9.175 43.0727 9.085 43.3327 9.085C43.5827 9.085 43.7927 9.175 43.9627 9.355C44.1427 9.535 44.2327 9.755 44.2327 10.015C44.2327 10.275 44.1427 10.495 43.9627 10.675C43.7927 10.855 43.5827 10.945 43.3327 10.945ZM43.9927 12.28V20.5H42.6277V12.28H43.9927ZM49.6641 13.405H47.9391V20.5H46.5741V13.405H45.5091V12.28H46.5741V11.695C46.5741 10.775 46.8091 10.105 47.2791 9.685C47.7591 9.255 48.5241 9.04 49.5741 9.04V10.18C48.9741 10.18 48.5491 10.3 48.2991 10.54C48.0591 10.77 47.9391 11.155 47.9391 11.695V12.28H49.6641V13.405ZM51.9606 10.945C51.7006 10.945 51.4806 10.855 51.3006 10.675C51.1206 10.495 51.0306 10.275 51.0306 10.015C51.0306 9.755 51.1206 9.535 51.3006 9.355C51.4806 9.175 51.7006 9.085 51.9606 9.085C52.2106 9.085 52.4206 9.175 52.5906 9.355C52.7706 9.535 52.8606 9.755 52.8606 10.015C52.8606 10.275 52.7706 10.495 52.5906 10.675C52.4206 10.855 52.2106 10.945 51.9606 10.945ZM52.6206 12.28V20.5H51.2556V12.28H52.6206ZM54.437 16.375C54.437 15.525 54.607 14.785 54.947 14.155C55.287 13.515 55.757 13.02 56.357 12.67C56.967 12.32 57.662 12.145 58.442 12.145C59.452 12.145 60.282 12.39 60.932 12.88C61.592 13.37 62.027 14.05 62.237 14.92H60.767C60.627 14.42 60.352 14.025 59.942 13.735C59.542 13.445 59.042 13.3 58.442 13.3C57.662 13.3 57.032 13.57 56.552 14.11C56.072 14.64 55.832 15.395 55.832 16.375C55.832 17.365 56.072 18.13 56.552 18.67C57.032 19.21 57.662 19.48 58.442 19.48C59.042 19.48 59.542 19.34 59.942 19.06C60.342 18.78 60.617 18.38 60.767 17.86H62.237C62.017 18.7 61.577 19.375 60.917 19.885C60.257 20.385 59.432 20.635 58.442 20.635C57.662 20.635 56.967 20.46 56.357 20.11C55.757 19.76 55.287 19.265 54.947 18.625C54.607 17.985 54.437 17.235 54.437 16.375ZM63.5483 16.36C63.5483 15.52 63.7183 14.785 64.0583 14.155C64.3983 13.515 64.8633 13.02 65.4533 12.67C66.0533 12.32 66.7183 12.145 67.4483 12.145C68.1683 12.145 68.7933 12.3 69.3233 12.61C69.8533 12.92 70.2483 13.31 70.5083 13.78V12.28H71.8883V20.5H70.5083V18.97C70.2383 19.45 69.8333 19.85 69.2933 20.17C68.7633 20.48 68.1433 20.635 67.4333 20.635C66.7033 20.635 66.0433 20.455 65.4533 20.095C64.8633 19.735 64.3983 19.23 64.0583 18.58C63.7183 17.93 63.5483 17.19 63.5483 16.36ZM70.5083 16.375C70.5083 15.755 70.3833 15.215 70.1333 14.755C69.8833 14.295 69.5433 13.945 69.1133 13.705C68.6933 13.455 68.2283 13.33 67.7183 13.33C67.2083 13.33 66.7433 13.45 66.3233 13.69C65.9033 13.93 65.5683 14.28 65.3183 14.74C65.0683 15.2 64.9433 15.74 64.9433 16.36C64.9433 16.99 65.0683 17.54 65.3183 18.01C65.5683 18.47 65.9033 18.825 66.3233 19.075C66.7433 19.315 67.2083 19.435 67.7183 19.435C68.2283 19.435 68.6933 19.315 69.1133 19.075C69.5433 18.825 69.8833 18.47 70.1333 18.01C70.3833 17.54 70.5083 16.995 70.5083 16.375ZM75.86 13.405V18.25C75.86 18.65 75.945 18.935 76.115 19.105C76.285 19.265 76.58 19.345 77 19.345H78.005V20.5H76.775C76.015 20.5 75.445 20.325 75.065 19.975C74.685 19.625 74.495 19.05 74.495 18.25V13.405H73.43V12.28H74.495V10.21H75.86V12.28H78.005V13.405H75.86ZM87.1589 16.075C87.1589 16.335 87.1439 16.61 87.1139 16.9H80.5439C80.5939 17.71 80.8689 18.345 81.3689 18.805C81.8789 19.255 82.4939 19.48 83.2139 19.48C83.8039 19.48 84.2939 19.345 84.6839 19.075C85.0839 18.795 85.3639 18.425 85.5239 17.965H86.9939C86.7739 18.755 86.3339 19.4 85.6739 19.9C85.0139 20.39 84.1939 20.635 83.2139 20.635C82.4339 20.635 81.7339 20.46 81.1139 20.11C80.5039 19.76 80.0239 19.265 79.6739 18.625C79.3239 17.975 79.1489 17.225 79.1489 16.375C79.1489 15.525 79.3189 14.78 79.6589 14.14C79.9989 13.5 80.4739 13.01 81.0839 12.67C81.7039 12.32 82.4139 12.145 83.2139 12.145C83.9939 12.145 84.6839 12.315 85.2839 12.655C85.8839 12.995 86.3439 13.465 86.6639 14.065C86.9939 14.655 87.1589 15.325 87.1589 16.075ZM85.7489 15.79C85.7489 15.27 85.6339 14.825 85.4039 14.455C85.1739 14.075 84.8589 13.79 84.4589 13.6C84.0689 13.4 83.6339 13.3 83.1539 13.3C82.4639 13.3 81.8739 13.52 81.3839 13.96C80.9039 14.4 80.6289 15.01 80.5589 15.79H85.7489ZM91.8707 20.635C91.2407 20.635 90.6757 20.53 90.1757 20.32C89.6757 20.1 89.2807 19.8 88.9907 19.42C88.7007 19.03 88.5407 18.585 88.5107 18.085H89.9207C89.9607 18.495 90.1507 18.83 90.4907 19.09C90.8407 19.35 91.2957 19.48 91.8557 19.48C92.3757 19.48 92.7857 19.365 93.0857 19.135C93.3857 18.905 93.5357 18.615 93.5357 18.265C93.5357 17.905 93.3757 17.64 93.0557 17.47C92.7357 17.29 92.2407 17.115 91.5707 16.945C90.9607 16.785 90.4607 16.625 90.0707 16.465C89.6907 16.295 89.3607 16.05 89.0807 15.73C88.8107 15.4 88.6757 14.97 88.6757 14.44C88.6757 14.02 88.8007 13.635 89.0507 13.285C89.3007 12.935 89.6557 12.66 90.1157 12.46C90.5757 12.25 91.1007 12.145 91.6907 12.145C92.6007 12.145 93.3357 12.375 93.8957 12.835C94.4557 13.295 94.7557 13.925 94.7957 14.725H93.4307C93.4007 14.295 93.2257 13.95 92.9057 13.69C92.5957 13.43 92.1757 13.3 91.6457 13.3C91.1557 13.3 90.7657 13.405 90.4757 13.615C90.1857 13.825 90.0407 14.1 90.0407 14.44C90.0407 14.71 90.1257 14.935 90.2957 15.115C90.4757 15.285 90.6957 15.425 90.9557 15.535C91.2257 15.635 91.5957 15.75 92.0657 15.88C92.6557 16.04 93.1357 16.2 93.5057 16.36C93.8757 16.51 94.1907 16.74 94.4507 17.05C94.7207 17.36 94.8607 17.765 94.8707 18.265C94.8707 18.715 94.7457 19.12 94.4957 19.48C94.2457 19.84 93.8907 20.125 93.4307 20.335C92.9807 20.535 92.4607 20.635 91.8707 20.635Z" fill="#2E2E2E"/>
</svg>
