<svg width="99" height="30" viewBox="0 0 99 30" fill="none" xmlns="http://www.w3.org/2000/svg">
<path d="M7 0V0C3.13401 0 0 3.13401 0 7V30V30C3.86599 30 7 26.866 7 23V0Z" fill="#BF272D"/>
<path d="M12.495 16.345C12.495 15.485 12.67 14.735 13.02 14.095C13.37 13.445 13.855 12.945 14.475 12.595C15.095 12.235 15.805 12.055 16.605 12.055C17.635 12.055 18.485 12.315 19.155 12.835C19.835 13.345 20.29 14.065 20.52 14.995H18.255C18.135 14.635 17.93 14.355 17.64 14.155C17.36 13.945 17.01 13.84 16.59 13.84C15.99 13.84 15.515 14.06 15.165 14.5C14.815 14.93 14.64 15.545 14.64 16.345C14.64 17.135 14.815 17.75 15.165 18.19C15.515 18.62 15.99 18.835 16.59 18.835C17.44 18.835 17.995 18.455 18.255 17.695H20.52C20.29 18.595 19.835 19.31 19.155 19.84C18.475 20.37 17.625 20.635 16.605 20.635C15.805 20.635 15.095 20.46 14.475 20.11C13.855 19.75 13.37 19.25 13.02 18.61C12.67 17.96 12.495 17.205 12.495 16.345ZM29.7834 16.165C29.7834 16.465 29.7634 16.735 29.7234 16.975H23.6484C23.6984 17.575 23.9084 18.045 24.2784 18.385C24.6484 18.725 25.1034 18.895 25.6434 18.895C26.4234 18.895 26.9784 18.56 27.3084 17.89H29.5734C29.3334 18.69 28.8734 19.35 28.1934 19.87C27.5134 20.38 26.6784 20.635 25.6884 20.635C24.8884 20.635 24.1684 20.46 23.5284 20.11C22.8984 19.75 22.4034 19.245 22.0434 18.595C21.6934 17.945 21.5184 17.195 21.5184 16.345C21.5184 15.485 21.6934 14.73 22.0434 14.08C22.3934 13.43 22.8834 12.93 23.5134 12.58C24.1434 12.23 24.8684 12.055 25.6884 12.055C26.4784 12.055 27.1834 12.225 27.8034 12.565C28.4334 12.905 28.9184 13.39 29.2584 14.02C29.6084 14.64 29.7834 15.355 29.7834 16.165ZM27.6084 15.565C27.5984 15.025 27.4034 14.595 27.0234 14.275C26.6434 13.945 26.1784 13.78 25.6284 13.78C25.1084 13.78 24.6684 13.94 24.3084 14.26C23.9584 14.57 23.7434 15.005 23.6634 15.565H27.6084ZM33.4163 13.48C33.6863 13.04 34.0363 12.695 34.4663 12.445C34.9063 12.195 35.4063 12.07 35.9663 12.07V14.275H35.4113C34.7513 14.275 34.2513 14.43 33.9113 14.74C33.5813 15.05 33.4163 15.59 33.4163 16.36V20.5H31.3163V12.19H33.4163V13.48ZM39.8257 13.915V17.935C39.8257 18.215 39.8907 18.42 40.0207 18.55C40.1607 18.67 40.3907 18.73 40.7107 18.73H41.6857V20.5H40.3657C38.5957 20.5 37.7107 19.64 37.7107 17.92V13.915H36.7207V12.19H37.7107V10.135H39.8257V12.19H41.6857V13.915H39.8257ZM44.2611 11.2C43.8911 11.2 43.5811 11.085 43.3311 10.855C43.0911 10.615 42.9711 10.32 42.9711 9.97C42.9711 9.62 43.0911 9.33 43.3311 9.1C43.5811 8.86 43.8911 8.74 44.2611 8.74C44.6311 8.74 44.9361 8.86 45.1761 9.1C45.4261 9.33 45.5511 9.62 45.5511 9.97C45.5511 10.32 45.4261 10.615 45.1761 10.855C44.9361 11.085 44.6311 11.2 44.2611 11.2ZM45.2961 12.19V20.5H43.1961V12.19H45.2961ZM51.1809 13.915H49.7259V20.5H47.5959V13.915H46.6509V12.19H47.5959V11.77C47.5959 10.75 47.8859 10 48.4659 9.52C49.0459 9.04 49.9209 8.815 51.0909 8.845V10.615C50.5809 10.605 50.2259 10.69 50.0259 10.87C49.8259 11.05 49.7259 11.375 49.7259 11.845V12.19H51.1809V13.915ZM53.6068 11.2C53.2368 11.2 52.9268 11.085 52.6768 10.855C52.4368 10.615 52.3168 10.32 52.3168 9.97C52.3168 9.62 52.4368 9.33 52.6768 9.1C52.9268 8.86 53.2368 8.74 53.6068 8.74C53.9768 8.74 54.2818 8.86 54.5218 9.1C54.7718 9.33 54.8968 9.62 54.8968 9.97C54.8968 10.32 54.7718 10.615 54.5218 10.855C54.2818 11.085 53.9768 11.2 53.6068 11.2ZM54.6418 12.19V20.5H52.5418V12.19H54.6418ZM56.1766 16.345C56.1766 15.485 56.3516 14.735 56.7016 14.095C57.0516 13.445 57.5366 12.945 58.1566 12.595C58.7766 12.235 59.4866 12.055 60.2866 12.055C61.3166 12.055 62.1666 12.315 62.8366 12.835C63.5166 13.345 63.9716 14.065 64.2016 14.995H61.9366C61.8166 14.635 61.6116 14.355 61.3216 14.155C61.0416 13.945 60.6916 13.84 60.2716 13.84C59.6716 13.84 59.1966 14.06 58.8466 14.5C58.4966 14.93 58.3216 15.545 58.3216 16.345C58.3216 17.135 58.4966 17.75 58.8466 18.19C59.1966 18.62 59.6716 18.835 60.2716 18.835C61.1216 18.835 61.6766 18.455 61.9366 17.695H64.2016C63.9716 18.595 63.5166 19.31 62.8366 19.84C62.1566 20.37 61.3066 20.635 60.2866 20.635C59.4866 20.635 58.7766 20.46 58.1566 20.11C57.5366 19.75 57.0516 19.25 56.7016 18.61C56.3516 17.96 56.1766 17.205 56.1766 16.345ZM65.2001 16.315C65.2001 15.475 65.3651 14.73 65.6951 14.08C66.0351 13.43 66.4901 12.93 67.0601 12.58C67.6401 12.23 68.2851 12.055 68.9951 12.055C69.6151 12.055 70.1551 12.18 70.6151 12.43C71.0851 12.68 71.4601 12.995 71.7401 13.375V12.19H73.8551V20.5H71.7401V19.285C71.4701 19.675 71.0951 20 70.6151 20.26C70.1451 20.51 69.6001 20.635 68.9801 20.635C68.2801 20.635 67.6401 20.455 67.0601 20.095C66.4901 19.735 66.0351 19.23 65.6951 18.58C65.3651 17.92 65.2001 17.165 65.2001 16.315ZM71.7401 16.345C71.7401 15.835 71.6401 15.4 71.4401 15.04C71.2401 14.67 70.9701 14.39 70.6301 14.2C70.2901 14 69.9251 13.9 69.5351 13.9C69.1451 13.9 68.7851 13.995 68.4551 14.185C68.1251 14.375 67.8551 14.655 67.6451 15.025C67.4451 15.385 67.3451 15.815 67.3451 16.315C67.3451 16.815 67.4451 17.255 67.6451 17.635C67.8551 18.005 68.1251 18.29 68.4551 18.49C68.7951 18.69 69.1551 18.79 69.5351 18.79C69.9251 18.79 70.2901 18.695 70.6301 18.505C70.9701 18.305 71.2401 18.025 71.4401 17.665C71.6401 17.295 71.7401 16.855 71.7401 16.345ZM78.3511 13.915V17.935C78.3511 18.215 78.4161 18.42 78.5461 18.55C78.6861 18.67 78.9161 18.73 79.2361 18.73H80.2111V20.5H78.8911C77.1211 20.5 76.2361 19.64 76.2361 17.92V13.915H75.2461V12.19H76.2361V10.135H78.3511V12.19H80.2111V13.915H78.3511ZM89.4465 16.165C89.4465 16.465 89.4265 16.735 89.3865 16.975H83.3115C83.3615 17.575 83.5715 18.045 83.9415 18.385C84.3115 18.725 84.7665 18.895 85.3065 18.895C86.0865 18.895 86.6415 18.56 86.9715 17.89H89.2365C88.9965 18.69 88.5365 19.35 87.8565 19.87C87.1765 20.38 86.3415 20.635 85.3515 20.635C84.5515 20.635 83.8315 20.46 83.1915 20.11C82.5615 19.75 82.0665 19.245 81.7065 18.595C81.3565 17.945 81.1815 17.195 81.1815 16.345C81.1815 15.485 81.3565 14.73 81.7065 14.08C82.0565 13.43 82.5465 12.93 83.1765 12.58C83.8065 12.23 84.5315 12.055 85.3515 12.055C86.1415 12.055 86.8465 12.225 87.4665 12.565C88.0965 12.905 88.5815 13.39 88.9215 14.02C89.2715 14.64 89.4465 15.355 89.4465 16.165ZM87.2715 15.565C87.2615 15.025 87.0665 14.595 86.6865 14.275C86.3065 13.945 85.8415 13.78 85.2915 13.78C84.7715 13.78 84.3315 13.94 83.9715 14.26C83.6215 14.57 83.4065 15.005 83.3265 15.565H87.2715ZM94.1593 20.635C93.4793 20.635 92.8693 20.515 92.3293 20.275C91.7893 20.025 91.3593 19.69 91.0393 19.27C90.7293 18.85 90.5593 18.385 90.5293 17.875H92.6443C92.6843 18.195 92.8393 18.46 93.1093 18.67C93.3893 18.88 93.7343 18.985 94.1443 18.985C94.5443 18.985 94.8543 18.905 95.0743 18.745C95.3043 18.585 95.4193 18.38 95.4193 18.13C95.4193 17.86 95.2793 17.66 94.9993 17.53C94.7293 17.39 94.2943 17.24 93.6943 17.08C93.0743 16.93 92.5643 16.775 92.1643 16.615C91.7743 16.455 91.4343 16.21 91.1443 15.88C90.8643 15.55 90.7243 15.105 90.7243 14.545C90.7243 14.085 90.8543 13.665 91.1143 13.285C91.3843 12.905 91.7643 12.605 92.2543 12.385C92.7543 12.165 93.3393 12.055 94.0093 12.055C94.9993 12.055 95.7893 12.305 96.3793 12.805C96.9693 13.295 97.2943 13.96 97.3543 14.8H95.3443C95.3143 14.47 95.1743 14.21 94.9243 14.02C94.6843 13.82 94.3593 13.72 93.9493 13.72C93.5693 13.72 93.2743 13.79 93.0643 13.93C92.8643 14.07 92.7643 14.265 92.7643 14.515C92.7643 14.795 92.9043 15.01 93.1843 15.16C93.4643 15.3 93.8993 15.445 94.4893 15.595C95.0893 15.745 95.5843 15.9 95.9743 16.06C96.3643 16.22 96.6993 16.47 96.9793 16.81C97.2693 17.14 97.4193 17.58 97.4293 18.13C97.4293 18.61 97.2943 19.04 97.0243 19.42C96.7643 19.8 96.3843 20.1 95.8843 20.32C95.3943 20.53 94.8193 20.635 94.1593 20.635Z" fill="#F6F6F6"/>
</svg>
