<svg width="136" height="30" viewBox="0 0 136 30" fill="none" xmlns="http://www.w3.org/2000/svg">
<path d="M7 0V0C3.13401 0 0 3.13401 0 7V30V30C3.86599 30 7 26.866 7 23V0Z" fill="#BF272D"/>
<path d="M12.525 15.25C12.525 14.22 12.755 13.3 13.215 12.49C13.685 11.67 14.32 11.035 15.12 10.585C15.93 10.125 16.835 9.895 17.835 9.895C19.005 9.895 20.03 10.195 20.91 10.795C21.79 11.395 22.405 12.225 22.755 13.285H20.34C20.1 12.785 19.76 12.41 19.32 12.16C18.89 11.91 18.39 11.785 17.82 11.785C17.21 11.785 16.665 11.93 16.185 12.22C15.715 12.5 15.345 12.9 15.075 13.42C14.815 13.94 14.685 14.55 14.685 15.25C14.685 15.94 14.815 16.55 15.075 17.08C15.345 17.6 15.715 18.005 16.185 18.295C16.665 18.575 17.21 18.715 17.82 18.715C18.39 18.715 18.89 18.59 19.32 18.34C19.76 18.08 20.1 17.7 20.34 17.2H22.755C22.405 18.27 21.79 19.105 20.91 19.705C20.04 20.295 19.015 20.59 17.835 20.59C16.835 20.59 15.93 20.365 15.12 19.915C14.32 19.455 13.685 18.82 13.215 18.01C12.755 17.2 12.525 16.28 12.525 15.25ZM29.2287 12.07C29.8587 12.07 30.4187 12.21 30.9087 12.49C31.3987 12.76 31.7787 13.165 32.0487 13.705C32.3287 14.235 32.4687 14.875 32.4687 15.625V20.5H30.3687V15.91C30.3687 15.25 30.2037 14.745 29.8737 14.395C29.5437 14.035 29.0937 13.855 28.5237 13.855C27.9437 13.855 27.4837 14.035 27.1437 14.395C26.8137 14.745 26.6487 15.25 26.6487 15.91V20.5H24.5487V9.4H26.6487V13.225C26.9187 12.865 27.2787 12.585 27.7287 12.385C28.1787 12.175 28.6787 12.07 29.2287 12.07ZM38.1557 20.635C37.3557 20.635 36.6357 20.46 35.9957 20.11C35.3557 19.75 34.8507 19.245 34.4807 18.595C34.1207 17.945 33.9407 17.195 33.9407 16.345C33.9407 15.495 34.1257 14.745 34.4957 14.095C34.8757 13.445 35.3907 12.945 36.0407 12.595C36.6907 12.235 37.4157 12.055 38.2157 12.055C39.0157 12.055 39.7407 12.235 40.3907 12.595C41.0407 12.945 41.5507 13.445 41.9207 14.095C42.3007 14.745 42.4907 15.495 42.4907 16.345C42.4907 17.195 42.2957 17.945 41.9057 18.595C41.5257 19.245 41.0057 19.75 40.3457 20.11C39.6957 20.46 38.9657 20.635 38.1557 20.635ZM38.1557 18.805C38.5357 18.805 38.8907 18.715 39.2207 18.535C39.5607 18.345 39.8307 18.065 40.0307 17.695C40.2307 17.325 40.3307 16.875 40.3307 16.345C40.3307 15.555 40.1207 14.95 39.7007 14.53C39.2907 14.1 38.7857 13.885 38.1857 13.885C37.5857 13.885 37.0807 14.1 36.6707 14.53C36.2707 14.95 36.0707 15.555 36.0707 16.345C36.0707 17.135 36.2657 17.745 36.6557 18.175C37.0557 18.595 37.5557 18.805 38.1557 18.805ZM47.7211 20.635C46.9211 20.635 46.2011 20.46 45.5611 20.11C44.9211 19.75 44.4161 19.245 44.0461 18.595C43.6861 17.945 43.5061 17.195 43.5061 16.345C43.5061 15.495 43.6911 14.745 44.0611 14.095C44.4411 13.445 44.9561 12.945 45.6061 12.595C46.2561 12.235 46.9811 12.055 47.7811 12.055C48.5811 12.055 49.3061 12.235 49.9561 12.595C50.6061 12.945 51.1161 13.445 51.4861 14.095C51.8661 14.745 52.0561 15.495 52.0561 16.345C52.0561 17.195 51.8611 17.945 51.4711 18.595C51.0911 19.245 50.5711 19.75 49.9111 20.11C49.2611 20.46 48.5311 20.635 47.7211 20.635ZM47.7211 18.805C48.1011 18.805 48.4561 18.715 48.7861 18.535C49.1261 18.345 49.3961 18.065 49.5961 17.695C49.7961 17.325 49.8961 16.875 49.8961 16.345C49.8961 15.555 49.6861 14.95 49.2661 14.53C48.8561 14.1 48.3511 13.885 47.7511 13.885C47.1511 13.885 46.6461 14.1 46.2361 14.53C45.8361 14.95 45.6361 15.555 45.6361 16.345C45.6361 17.135 45.8311 17.745 46.2211 18.175C46.6211 18.595 47.1211 18.805 47.7211 18.805ZM56.7765 20.635C56.0965 20.635 55.4865 20.515 54.9465 20.275C54.4065 20.025 53.9765 19.69 53.6565 19.27C53.3465 18.85 53.1765 18.385 53.1465 17.875H55.2615C55.3015 18.195 55.4565 18.46 55.7265 18.67C56.0065 18.88 56.3515 18.985 56.7615 18.985C57.1615 18.985 57.4715 18.905 57.6915 18.745C57.9215 18.585 58.0365 18.38 58.0365 18.13C58.0365 17.86 57.8965 17.66 57.6165 17.53C57.3465 17.39 56.9115 17.24 56.3115 17.08C55.6915 16.93 55.1815 16.775 54.7815 16.615C54.3915 16.455 54.0515 16.21 53.7615 15.88C53.4815 15.55 53.3415 15.105 53.3415 14.545C53.3415 14.085 53.4715 13.665 53.7315 13.285C54.0015 12.905 54.3815 12.605 54.8715 12.385C55.3715 12.165 55.9565 12.055 56.6265 12.055C57.6165 12.055 58.4065 12.305 58.9965 12.805C59.5865 13.295 59.9115 13.96 59.9715 14.8H57.9615C57.9315 14.47 57.7915 14.21 57.5415 14.02C57.3015 13.82 56.9765 13.72 56.5665 13.72C56.1865 13.72 55.8915 13.79 55.6815 13.93C55.4815 14.07 55.3815 14.265 55.3815 14.515C55.3815 14.795 55.5215 15.01 55.8015 15.16C56.0815 15.3 56.5165 15.445 57.1065 15.595C57.7065 15.745 58.2015 15.9 58.5915 16.06C58.9815 16.22 59.3165 16.47 59.5965 16.81C59.8865 17.14 60.0365 17.58 60.0465 18.13C60.0465 18.61 59.9115 19.04 59.6415 19.42C59.3815 19.8 59.0015 20.1 58.5015 20.32C58.0115 20.53 57.4365 20.635 56.7765 20.635ZM69.4954 16.165C69.4954 16.465 69.4754 16.735 69.4354 16.975H63.3604C63.4104 17.575 63.6204 18.045 63.9904 18.385C64.3604 18.725 64.8154 18.895 65.3554 18.895C66.1354 18.895 66.6904 18.56 67.0204 17.89H69.2854C69.0454 18.69 68.5854 19.35 67.9054 19.87C67.2254 20.38 66.3904 20.635 65.4004 20.635C64.6004 20.635 63.8804 20.46 63.2404 20.11C62.6104 19.75 62.1154 19.245 61.7554 18.595C61.4054 17.945 61.2304 17.195 61.2304 16.345C61.2304 15.485 61.4054 14.73 61.7554 14.08C62.1054 13.43 62.5954 12.93 63.2254 12.58C63.8554 12.23 64.5804 12.055 65.4004 12.055C66.1904 12.055 66.8954 12.225 67.5154 12.565C68.1454 12.905 68.6304 13.39 68.9704 14.02C69.3204 14.64 69.4954 15.355 69.4954 16.165ZM67.3204 15.565C67.3104 15.025 67.1154 14.595 66.7354 14.275C66.3554 13.945 65.8904 13.78 65.3404 13.78C64.8204 13.78 64.3804 13.94 64.0204 14.26C63.6704 14.57 63.4554 15.005 63.3754 15.565H67.3204ZM75.6674 11.2C75.2874 11.2 74.9724 11.085 74.7224 10.855C74.4824 10.615 74.3624 10.32 74.3624 9.97C74.3624 9.62 74.4824 9.33 74.7224 9.1C74.9724 8.86 75.2874 8.74 75.6674 8.74C76.0374 8.74 76.3424 8.86 76.5824 9.1C76.8224 9.33 76.9424 9.62 76.9424 9.97C76.9424 10.32 76.8224 10.615 76.5824 10.855C76.3424 11.085 76.0374 11.2 75.6674 11.2ZM76.7024 21.865C76.7024 22.785 76.4724 23.445 76.0124 23.845C75.5624 24.255 74.9124 24.46 74.0624 24.46H73.1324V22.675H73.7324C74.0524 22.675 74.2774 22.61 74.4074 22.48C74.5374 22.36 74.6024 22.16 74.6024 21.88V12.19H76.7024V21.865ZM82.4672 20.635C81.6672 20.635 80.9472 20.46 80.3072 20.11C79.6672 19.75 79.1622 19.245 78.7922 18.595C78.4322 17.945 78.2522 17.195 78.2522 16.345C78.2522 15.495 78.4372 14.745 78.8072 14.095C79.1872 13.445 79.7022 12.945 80.3522 12.595C81.0022 12.235 81.7272 12.055 82.5272 12.055C83.3272 12.055 84.0522 12.235 84.7022 12.595C85.3522 12.945 85.8622 13.445 86.2322 14.095C86.6122 14.745 86.8022 15.495 86.8022 16.345C86.8022 17.195 86.6072 17.945 86.2172 18.595C85.8372 19.245 85.3172 19.75 84.6572 20.11C84.0072 20.46 83.2772 20.635 82.4672 20.635ZM82.4672 18.805C82.8472 18.805 83.2022 18.715 83.5322 18.535C83.8722 18.345 84.1422 18.065 84.3422 17.695C84.5422 17.325 84.6422 16.875 84.6422 16.345C84.6422 15.555 84.4322 14.95 84.0122 14.53C83.6022 14.1 83.0972 13.885 82.4972 13.885C81.8972 13.885 81.3922 14.1 80.9822 14.53C80.5822 14.95 80.3822 15.555 80.3822 16.345C80.3822 17.135 80.5772 17.745 80.9672 18.175C81.3672 18.595 81.8672 18.805 82.4672 18.805ZM90.4426 13.405C90.7126 13.005 91.0826 12.68 91.5526 12.43C92.0326 12.18 92.5776 12.055 93.1876 12.055C93.8976 12.055 94.5376 12.23 95.1076 12.58C95.6876 12.93 96.1426 13.43 96.4726 14.08C96.8126 14.72 96.9826 15.465 96.9826 16.315C96.9826 17.165 96.8126 17.92 96.4726 18.58C96.1426 19.23 95.6876 19.735 95.1076 20.095C94.5376 20.455 93.8976 20.635 93.1876 20.635C92.5676 20.635 92.0226 20.515 91.5526 20.275C91.0926 20.025 90.7226 19.705 90.4426 19.315V20.5H88.3426V9.4H90.4426V13.405ZM94.8376 16.315C94.8376 15.815 94.7326 15.385 94.5226 15.025C94.3226 14.655 94.0526 14.375 93.7126 14.185C93.3826 13.995 93.0226 13.9 92.6326 13.9C92.2526 13.9 91.8926 14 91.5526 14.2C91.2226 14.39 90.9526 14.67 90.7426 15.04C90.5426 15.41 90.4426 15.845 90.4426 16.345C90.4426 16.845 90.5426 17.28 90.7426 17.65C90.9526 18.02 91.2226 18.305 91.5526 18.505C91.8926 18.695 92.2526 18.79 92.6326 18.79C93.0226 18.79 93.3826 18.69 93.7126 18.49C94.0526 18.29 94.3226 18.005 94.5226 17.635C94.7326 17.265 94.8376 16.825 94.8376 16.315ZM104.528 13.915V17.935C104.528 18.215 104.593 18.42 104.723 18.55C104.863 18.67 105.093 18.73 105.413 18.73H106.388V20.5H105.068C103.298 20.5 102.413 19.64 102.413 17.92V13.915H101.423V12.19H102.413V10.135H104.528V12.19H106.388V13.915H104.528ZM115.848 12.19L110.703 24.43H108.468L110.268 20.29L106.938 12.19H109.293L111.438 17.995L113.613 12.19H115.848ZM119.08 13.39C119.35 13.01 119.72 12.695 120.19 12.445C120.67 12.185 121.215 12.055 121.825 12.055C122.535 12.055 123.175 12.23 123.745 12.58C124.325 12.93 124.78 13.43 125.11 14.08C125.45 14.72 125.62 15.465 125.62 16.315C125.62 17.165 125.45 17.92 125.11 18.58C124.78 19.23 124.325 19.735 123.745 20.095C123.175 20.455 122.535 20.635 121.825 20.635C121.215 20.635 120.675 20.51 120.205 20.26C119.745 20.01 119.37 19.695 119.08 19.315V24.46H116.98V12.19H119.08V13.39ZM123.475 16.315C123.475 15.815 123.37 15.385 123.16 15.025C122.96 14.655 122.69 14.375 122.35 14.185C122.02 13.995 121.66 13.9 121.27 13.9C120.89 13.9 120.53 14 120.19 14.2C119.86 14.39 119.59 14.67 119.38 15.04C119.18 15.41 119.08 15.845 119.08 16.345C119.08 16.845 119.18 17.28 119.38 17.65C119.59 18.02 119.86 18.305 120.19 18.505C120.53 18.695 120.89 18.79 121.27 18.79C121.66 18.79 122.02 18.69 122.35 18.49C122.69 18.29 122.96 18.005 123.16 17.635C123.37 17.265 123.475 16.825 123.475 16.315ZM134.871 16.165C134.871 16.465 134.851 16.735 134.811 16.975H128.736C128.786 17.575 128.996 18.045 129.366 18.385C129.736 18.725 130.191 18.895 130.731 18.895C131.511 18.895 132.066 18.56 132.396 17.89H134.661C134.421 18.69 133.961 19.35 133.281 19.87C132.601 20.38 131.766 20.635 130.776 20.635C129.976 20.635 129.256 20.46 128.616 20.11C127.986 19.75 127.491 19.245 127.131 18.595C126.781 17.945 126.606 17.195 126.606 16.345C126.606 15.485 126.781 14.73 127.131 14.08C127.481 13.43 127.971 12.93 128.601 12.58C129.231 12.23 129.956 12.055 130.776 12.055C131.566 12.055 132.271 12.225 132.891 12.565C133.521 12.905 134.006 13.39 134.346 14.02C134.696 14.64 134.871 15.355 134.871 16.165ZM132.696 15.565C132.686 15.025 132.491 14.595 132.111 14.275C131.731 13.945 131.266 13.78 130.716 13.78C130.196 13.78 129.756 13.94 129.396 14.26C129.046 14.57 128.831 15.005 128.751 15.565H132.696Z" fill="#2E2E2E"/>
</svg>
