<svg width="51" height="71" viewBox="0 0 51 71" fill="none" xmlns="http://www.w3.org/2000/svg">
<path d="M25.1002 25.225C20.2252 25.225 15.3252 27.125 11.6252 30.95C8.02547 34.6487 6.02327 39.6138 6.05019 44.775C6.05019 50 8.0252 54.9 11.6252 58.6C13.3707 60.4116 15.4638 61.8523 17.7791 62.8361C20.0945 63.8198 22.5845 64.3262 25.1002 64.325C30.2002 64.325 34.9752 62.3 38.5752 58.6C46.0002 50.975 46.0002 38.575 38.5752 30.95C36.8315 29.1361 34.7387 27.6938 32.423 26.7099C30.1072 25.7261 27.6163 25.2209 25.1002 25.225ZM26.6252 34.65L28.7002 38.95C28.9502 39.45 29.4252 39.825 29.9752 39.9L34.6002 40.6C35.9752 40.8 36.5502 42.55 35.5252 43.55L32.3252 46.75C31.8502 47.225 31.7002 47.925 31.9002 48.575L33.3752 52.85C33.8752 54.275 32.4752 55.625 31.1002 55.025L25.7502 52.625C25.5388 52.5266 25.3084 52.4756 25.0752 52.4756C24.842 52.4756 24.6116 52.5266 24.4002 52.625L19.0502 55.025C17.7002 55.625 16.2752 54.275 16.7752 52.85L18.2502 48.575C18.4752 47.925 18.3002 47.225 17.8252 46.75L14.6252 43.55C13.6252 42.55 14.1752 40.8 15.5502 40.6L20.1752 39.9C20.7252 39.825 21.2002 39.475 21.4502 38.95L23.5252 34.65C24.2002 33.35 26.0002 33.35 26.6252 34.65Z" fill="#FF9A47"/>
<path d="M2.92518 0.5C1.38768 0.5 0.125178 1.775 0.125178 3.35V17.825C0.125178 18.825 0.655178 19.775 1.51268 20.275L9.23018 24.845C6.3267 27.2889 3.99521 30.3405 2.40034 33.7843C0.805469 37.228 -0.013872 40.9799 0.000177677 44.775C0.000177677 58.9825 11.2377 70.5 25.1002 70.5C38.9627 70.5 50.2002 58.9825 50.2002 44.775C50.2145 41.001 49.4047 37.2694 47.8273 33.8409C46.2499 30.4123 43.943 27.3695 41.0677 24.925L48.7677 20.275C49.6052 19.775 50.1252 18.825 50.1252 17.825V3.35C50.1252 1.775 48.8902 0.5 47.3827 0.5H2.92518ZM39.2502 3V23.525C37.2486 22.1194 35.0497 21.0183 32.7252 20.2575V3H39.2502ZM17.7252 3V20.1775C15.4157 20.9063 13.2257 21.9702 11.2252 23.335V3H17.7252ZM25.1252 67.4C19.2252 67.4 13.6752 65.05 9.52518 60.775C5.34888 56.4993 3.02295 50.7518 3.05018 44.775C3.05018 38.725 5.35018 33.05 9.52518 28.775C11.5509 26.6815 13.977 25.0168 16.6591 23.8799C19.3412 22.743 22.2246 22.1571 25.1377 22.1571C28.0508 22.1571 30.9342 22.743 33.6163 23.8799C36.2984 25.0168 38.7244 26.6815 40.7502 28.775C49.3502 37.6 49.3502 51.95 40.7502 60.775C36.5502 65.05 31.0002 67.4 25.1252 67.4Z" fill="#FF9A47" fill-opacity="0.5"/>
</svg>
