<svg width="277" height="30" viewBox="0 0 277 30" fill="none" xmlns="http://www.w3.org/2000/svg">
<path d="M7 0V0C3.13401 0 0 3.13401 0 7V30V30C3.86599 30 7 26.866 7 23V0Z" fill="#BF272D"/>
<path d="M19.5 10.03V11.725H15.135V14.41H18.48V16.075H15.135V20.5H13.035V10.03H19.5ZM23.0891 13.48C23.3591 13.04 23.7091 12.695 24.1391 12.445C24.5791 12.195 25.0791 12.07 25.6391 12.07V14.275H25.0841C24.4241 14.275 23.9241 14.43 23.5841 14.74C23.2541 15.05 23.0891 15.59 23.0891 16.36V20.5H20.9891V12.19H23.0891V13.48ZM34.7786 16.165C34.7786 16.465 34.7586 16.735 34.7186 16.975H28.6436C28.6936 17.575 28.9036 18.045 29.2736 18.385C29.6436 18.725 30.0986 18.895 30.6386 18.895C31.4186 18.895 31.9736 18.56 32.3036 17.89H34.5686C34.3286 18.69 33.8686 19.35 33.1886 19.87C32.5086 20.38 31.6736 20.635 30.6836 20.635C29.8836 20.635 29.1636 20.46 28.5236 20.11C27.8936 19.75 27.3986 19.245 27.0386 18.595C26.6886 17.945 26.5136 17.195 26.5136 16.345C26.5136 15.485 26.6886 14.73 27.0386 14.08C27.3886 13.43 27.8786 12.93 28.5086 12.58C29.1386 12.23 29.8636 12.055 30.6836 12.055C31.4736 12.055 32.1786 12.225 32.7986 12.565C33.4286 12.905 33.9136 13.39 34.2536 14.02C34.6036 14.64 34.7786 15.355 34.7786 16.165ZM32.6036 15.565C32.5936 15.025 32.3986 14.595 32.0186 14.275C31.6386 13.945 31.1736 13.78 30.6236 13.78C30.1036 13.78 29.6636 13.94 29.3036 14.26C28.9536 14.57 28.7386 15.005 28.6586 15.565H32.6036ZM44.0364 16.165C44.0364 16.465 44.0164 16.735 43.9764 16.975H37.9014C37.9514 17.575 38.1614 18.045 38.5314 18.385C38.9014 18.725 39.3564 18.895 39.8964 18.895C40.6764 18.895 41.2314 18.56 41.5614 17.89H43.8264C43.5864 18.69 43.1264 19.35 42.4464 19.87C41.7664 20.38 40.9314 20.635 39.9414 20.635C39.1414 20.635 38.4214 20.46 37.7814 20.11C37.1514 19.75 36.6564 19.245 36.2964 18.595C35.9464 17.945 35.7714 17.195 35.7714 16.345C35.7714 15.485 35.9464 14.73 36.2964 14.08C36.6464 13.43 37.1364 12.93 37.7664 12.58C38.3964 12.23 39.1214 12.055 39.9414 12.055C40.7314 12.055 41.4364 12.225 42.0564 12.565C42.6864 12.905 43.1714 13.39 43.5114 14.02C43.8614 14.64 44.0364 15.355 44.0364 16.165ZM41.8614 15.565C41.8514 15.025 41.6564 14.595 41.2764 14.275C40.8964 13.945 40.4314 13.78 39.8814 13.78C39.3614 13.78 38.9214 13.94 38.5614 14.26C38.2114 14.57 37.9964 15.005 37.9164 15.565H41.8614ZM47.6692 9.4V20.5H45.5692V9.4H47.6692ZM49.204 16.315C49.204 15.475 49.369 14.73 49.699 14.08C50.039 13.43 50.494 12.93 51.064 12.58C51.644 12.23 52.289 12.055 52.999 12.055C53.619 12.055 54.159 12.18 54.619 12.43C55.089 12.68 55.464 12.995 55.744 13.375V12.19H57.859V20.5H55.744V19.285C55.474 19.675 55.099 20 54.619 20.26C54.149 20.51 53.604 20.635 52.984 20.635C52.284 20.635 51.644 20.455 51.064 20.095C50.494 19.735 50.039 19.23 49.699 18.58C49.369 17.92 49.204 17.165 49.204 16.315ZM55.744 16.345C55.744 15.835 55.644 15.4 55.444 15.04C55.244 14.67 54.974 14.39 54.634 14.2C54.294 14 53.929 13.9 53.539 13.9C53.149 13.9 52.789 13.995 52.459 14.185C52.129 14.375 51.859 14.655 51.649 15.025C51.449 15.385 51.349 15.815 51.349 16.315C51.349 16.815 51.449 17.255 51.649 17.635C51.859 18.005 52.129 18.29 52.459 18.49C52.799 18.69 53.159 18.79 53.539 18.79C53.929 18.79 54.294 18.695 54.634 18.505C54.974 18.305 55.244 18.025 55.444 17.665C55.644 17.295 55.744 16.855 55.744 16.345ZM64.515 12.07C65.505 12.07 66.305 12.385 66.915 13.015C67.525 13.635 67.83 14.505 67.83 15.625V20.5H65.73V15.91C65.73 15.25 65.565 14.745 65.235 14.395C64.905 14.035 64.455 13.855 63.885 13.855C63.305 13.855 62.845 14.035 62.505 14.395C62.175 14.745 62.01 15.25 62.01 15.91V20.5H59.91V12.19H62.01V13.225C62.29 12.865 62.645 12.585 63.075 12.385C63.515 12.175 63.995 12.07 64.515 12.07ZM69.287 16.345C69.287 15.485 69.462 14.735 69.812 14.095C70.162 13.445 70.647 12.945 71.267 12.595C71.887 12.235 72.597 12.055 73.397 12.055C74.427 12.055 75.277 12.315 75.947 12.835C76.627 13.345 77.082 14.065 77.312 14.995H75.047C74.927 14.635 74.722 14.355 74.432 14.155C74.152 13.945 73.802 13.84 73.382 13.84C72.782 13.84 72.307 14.06 71.957 14.5C71.607 14.93 71.432 15.545 71.432 16.345C71.432 17.135 71.607 17.75 71.957 18.19C72.307 18.62 72.782 18.835 73.382 18.835C74.232 18.835 74.787 18.455 75.047 17.695H77.312C77.082 18.595 76.627 19.31 75.947 19.84C75.267 20.37 74.417 20.635 73.397 20.635C72.597 20.635 71.887 20.46 71.267 20.11C70.647 19.75 70.162 19.25 69.812 18.61C69.462 17.96 69.287 17.205 69.287 16.345ZM79.9154 11.2C79.5454 11.2 79.2354 11.085 78.9854 10.855C78.7454 10.615 78.6254 10.32 78.6254 9.97C78.6254 9.62 78.7454 9.33 78.9854 9.1C79.2354 8.86 79.5454 8.74 79.9154 8.74C80.2854 8.74 80.5904 8.86 80.8304 9.1C81.0804 9.33 81.2054 9.62 81.2054 9.97C81.2054 10.32 81.0804 10.615 80.8304 10.855C80.5904 11.085 80.2854 11.2 79.9154 11.2ZM80.9504 12.19V20.5H78.8504V12.19H80.9504ZM87.6302 12.07C88.6202 12.07 89.4202 12.385 90.0302 13.015C90.6402 13.635 90.9452 14.505 90.9452 15.625V20.5H88.8452V15.91C88.8452 15.25 88.6802 14.745 88.3502 14.395C88.0202 14.035 87.5702 13.855 87.0002 13.855C86.4202 13.855 85.9602 14.035 85.6202 14.395C85.2902 14.745 85.1252 15.25 85.1252 15.91V20.5H83.0252V12.19H85.1252V13.225C85.4052 12.865 85.7602 12.585 86.1902 12.385C86.6302 12.175 87.1102 12.07 87.6302 12.07ZM96.1972 12.055C96.8172 12.055 97.3622 12.18 97.8322 12.43C98.3022 12.67 98.6722 12.985 98.9422 13.375V12.19H101.057V20.56C101.057 21.33 100.902 22.015 100.592 22.615C100.282 23.225 99.8172 23.705 99.1972 24.055C98.5772 24.415 97.8272 24.595 96.9472 24.595C95.7672 24.595 94.7972 24.32 94.0372 23.77C93.2872 23.22 92.8622 22.47 92.7622 21.52H94.8472C94.9572 21.9 95.1922 22.2 95.5522 22.42C95.9222 22.65 96.3672 22.765 96.8872 22.765C97.4972 22.765 97.9922 22.58 98.3722 22.21C98.7522 21.85 98.9422 21.3 98.9422 20.56V19.27C98.6722 19.66 98.2972 19.985 97.8172 20.245C97.3472 20.505 96.8072 20.635 96.1972 20.635C95.4972 20.635 94.8572 20.455 94.2772 20.095C93.6972 19.735 93.2372 19.23 92.8972 18.58C92.5672 17.92 92.4022 17.165 92.4022 16.315C92.4022 15.475 92.5672 14.73 92.8972 14.08C93.2372 13.43 93.6922 12.93 94.2622 12.58C94.8422 12.23 95.4872 12.055 96.1972 12.055ZM98.9422 16.345C98.9422 15.835 98.8422 15.4 98.6422 15.04C98.4422 14.67 98.1722 14.39 97.8322 14.2C97.4922 14 97.1272 13.9 96.7372 13.9C96.3472 13.9 95.9872 13.995 95.6572 14.185C95.3272 14.375 95.0572 14.655 94.8472 15.025C94.6472 15.385 94.5472 15.815 94.5472 16.315C94.5472 16.815 94.6472 17.255 94.8472 17.635C95.0572 18.005 95.3272 18.29 95.6572 18.49C95.9972 18.69 96.3572 18.79 96.7372 18.79C97.1272 18.79 97.4922 18.695 97.8322 18.505C98.1722 18.305 98.4422 18.025 98.6422 17.665C98.8422 17.295 98.9422 16.855 98.9422 16.345ZM107.747 11.2C107.367 11.2 107.052 11.085 106.802 10.855C106.562 10.615 106.442 10.32 106.442 9.97C106.442 9.62 106.562 9.33 106.802 9.1C107.052 8.86 107.367 8.74 107.747 8.74C108.117 8.74 108.422 8.86 108.662 9.1C108.902 9.33 109.022 9.62 109.022 9.97C109.022 10.32 108.902 10.615 108.662 10.855C108.422 11.085 108.117 11.2 107.747 11.2ZM108.782 21.865C108.782 22.785 108.552 23.445 108.092 23.845C107.642 24.255 106.992 24.46 106.142 24.46H105.212V22.675H105.812C106.132 22.675 106.357 22.61 106.487 22.48C106.617 22.36 106.682 22.16 106.682 21.88V12.19H108.782V21.865ZM114.547 20.635C113.747 20.635 113.027 20.46 112.387 20.11C111.747 19.75 111.242 19.245 110.872 18.595C110.512 17.945 110.332 17.195 110.332 16.345C110.332 15.495 110.517 14.745 110.887 14.095C111.267 13.445 111.782 12.945 112.432 12.595C113.082 12.235 113.807 12.055 114.607 12.055C115.407 12.055 116.132 12.235 116.782 12.595C117.432 12.945 117.942 13.445 118.312 14.095C118.692 14.745 118.882 15.495 118.882 16.345C118.882 17.195 118.687 17.945 118.297 18.595C117.917 19.245 117.397 19.75 116.737 20.11C116.087 20.46 115.357 20.635 114.547 20.635ZM114.547 18.805C114.927 18.805 115.282 18.715 115.612 18.535C115.952 18.345 116.222 18.065 116.422 17.695C116.622 17.325 116.722 16.875 116.722 16.345C116.722 15.555 116.512 14.95 116.092 14.53C115.682 14.1 115.177 13.885 114.577 13.885C113.977 13.885 113.472 14.1 113.062 14.53C112.662 14.95 112.462 15.555 112.462 16.345C112.462 17.135 112.657 17.745 113.047 18.175C113.447 18.595 113.947 18.805 114.547 18.805ZM122.523 13.405C122.793 13.005 123.163 12.68 123.633 12.43C124.113 12.18 124.658 12.055 125.268 12.055C125.978 12.055 126.618 12.23 127.188 12.58C127.768 12.93 128.223 13.43 128.553 14.08C128.893 14.72 129.063 15.465 129.063 16.315C129.063 17.165 128.893 17.92 128.553 18.58C128.223 19.23 127.768 19.735 127.188 20.095C126.618 20.455 125.978 20.635 125.268 20.635C124.648 20.635 124.103 20.515 123.633 20.275C123.173 20.025 122.803 19.705 122.523 19.315V20.5H120.423V9.4H122.523V13.405ZM126.918 16.315C126.918 15.815 126.813 15.385 126.603 15.025C126.403 14.655 126.133 14.375 125.793 14.185C125.463 13.995 125.103 13.9 124.713 13.9C124.333 13.9 123.973 14 123.633 14.2C123.303 14.39 123.033 14.67 122.823 15.04C122.623 15.41 122.523 15.845 122.523 16.345C122.523 16.845 122.623 17.28 122.823 17.65C123.033 18.02 123.303 18.305 123.633 18.505C123.973 18.695 124.333 18.79 124.713 18.79C125.103 18.79 125.463 18.69 125.793 18.49C126.133 18.29 126.403 18.005 126.603 17.635C126.813 17.265 126.918 16.825 126.918 16.315ZM145.683 12.19L143.253 20.5H140.988L139.473 14.695L137.958 20.5H135.678L133.233 12.19H135.363L136.833 18.52L138.423 12.19H140.643L142.203 18.505L143.673 12.19H145.683ZM147.884 11.2C147.514 11.2 147.204 11.085 146.954 10.855C146.714 10.615 146.594 10.32 146.594 9.97C146.594 9.62 146.714 9.33 146.954 9.1C147.204 8.86 147.514 8.74 147.884 8.74C148.254 8.74 148.559 8.86 148.799 9.1C149.049 9.33 149.174 9.62 149.174 9.97C149.174 10.32 149.049 10.615 148.799 10.855C148.559 11.085 148.254 11.2 147.884 11.2ZM148.919 12.19V20.5H146.819V12.19H148.919ZM153.439 13.915V17.935C153.439 18.215 153.504 18.42 153.634 18.55C153.774 18.67 154.004 18.73 154.324 18.73H155.299V20.5H153.979C152.209 20.5 151.324 19.64 151.324 17.92V13.915H150.334V12.19H151.324V10.135H153.439V12.19H155.299V13.915H153.439ZM161.489 12.07C162.119 12.07 162.679 12.21 163.169 12.49C163.659 12.76 164.039 13.165 164.309 13.705C164.589 14.235 164.729 14.875 164.729 15.625V20.5H162.629V15.91C162.629 15.25 162.464 14.745 162.134 14.395C161.804 14.035 161.354 13.855 160.784 13.855C160.204 13.855 159.744 14.035 159.404 14.395C159.074 14.745 158.909 15.25 158.909 15.91V20.5H156.809V9.4H158.909V13.225C159.179 12.865 159.539 12.585 159.989 12.385C160.439 12.175 160.939 12.07 161.489 12.07ZM169.761 16.315C169.761 15.475 169.926 14.73 170.256 14.08C170.596 13.43 171.056 12.93 171.636 12.58C172.216 12.23 172.861 12.055 173.571 12.055C174.111 12.055 174.626 12.175 175.116 12.415C175.606 12.645 175.996 12.955 176.286 13.345V9.4H178.416V20.5H176.286V19.27C176.026 19.68 175.661 20.01 175.191 20.26C174.721 20.51 174.176 20.635 173.556 20.635C172.856 20.635 172.216 20.455 171.636 20.095C171.056 19.735 170.596 19.23 170.256 18.58C169.926 17.92 169.761 17.165 169.761 16.315ZM176.301 16.345C176.301 15.835 176.201 15.4 176.001 15.04C175.801 14.67 175.531 14.39 175.191 14.2C174.851 14 174.486 13.9 174.096 13.9C173.706 13.9 173.346 13.995 173.016 14.185C172.686 14.375 172.416 14.655 172.206 15.025C172.006 15.385 171.906 15.815 171.906 16.315C171.906 16.815 172.006 17.255 172.206 17.635C172.416 18.005 172.686 18.29 173.016 18.49C173.356 18.69 173.716 18.79 174.096 18.79C174.486 18.79 174.851 18.695 175.191 18.505C175.531 18.305 175.801 18.025 176.001 17.665C176.201 17.295 176.301 16.855 176.301 16.345ZM181.532 11.2C181.162 11.2 180.852 11.085 180.602 10.855C180.362 10.615 180.242 10.32 180.242 9.97C180.242 9.62 180.362 9.33 180.602 9.1C180.852 8.86 181.162 8.74 181.532 8.74C181.902 8.74 182.207 8.86 182.447 9.1C182.697 9.33 182.822 9.62 182.822 9.97C182.822 10.32 182.697 10.615 182.447 10.855C182.207 11.085 181.902 11.2 181.532 11.2ZM182.567 12.19V20.5H180.467V12.19H182.567ZM186.741 13.48C187.011 13.04 187.361 12.695 187.791 12.445C188.231 12.195 188.731 12.07 189.291 12.07V14.275H188.736C188.076 14.275 187.576 14.43 187.236 14.74C186.906 15.05 186.741 15.59 186.741 16.36V20.5H184.641V12.19H186.741V13.48ZM198.431 16.165C198.431 16.465 198.411 16.735 198.371 16.975H192.296C192.346 17.575 192.556 18.045 192.926 18.385C193.296 18.725 193.751 18.895 194.291 18.895C195.071 18.895 195.626 18.56 195.956 17.89H198.221C197.981 18.69 197.521 19.35 196.841 19.87C196.161 20.38 195.326 20.635 194.336 20.635C193.536 20.635 192.816 20.46 192.176 20.11C191.546 19.75 191.051 19.245 190.691 18.595C190.341 17.945 190.166 17.195 190.166 16.345C190.166 15.485 190.341 14.73 190.691 14.08C191.041 13.43 191.531 12.93 192.161 12.58C192.791 12.23 193.516 12.055 194.336 12.055C195.126 12.055 195.831 12.225 196.451 12.565C197.081 12.905 197.566 13.39 197.906 14.02C198.256 14.64 198.431 15.355 198.431 16.165ZM196.256 15.565C196.246 15.025 196.051 14.595 195.671 14.275C195.291 13.945 194.826 13.78 194.276 13.78C193.756 13.78 193.316 13.94 192.956 14.26C192.606 14.57 192.391 15.005 192.311 15.565H196.256ZM199.424 16.345C199.424 15.485 199.599 14.735 199.949 14.095C200.299 13.445 200.784 12.945 201.404 12.595C202.024 12.235 202.734 12.055 203.534 12.055C204.564 12.055 205.414 12.315 206.084 12.835C206.764 13.345 207.219 14.065 207.449 14.995H205.184C205.064 14.635 204.859 14.355 204.569 14.155C204.289 13.945 203.939 13.84 203.519 13.84C202.919 13.84 202.444 14.06 202.094 14.5C201.744 14.93 201.569 15.545 201.569 16.345C201.569 17.135 201.744 17.75 202.094 18.19C202.444 18.62 202.919 18.835 203.519 18.835C204.369 18.835 204.924 18.455 205.184 17.695H207.449C207.219 18.595 206.764 19.31 206.084 19.84C205.404 20.37 204.554 20.635 203.534 20.635C202.734 20.635 202.024 20.46 201.404 20.11C200.784 19.75 200.299 19.25 199.949 18.61C199.599 17.96 199.424 17.205 199.424 16.345ZM211.432 13.915V17.935C211.432 18.215 211.497 18.42 211.627 18.55C211.767 18.67 211.997 18.73 212.317 18.73H213.292V20.5H211.972C210.202 20.5 209.317 19.64 209.317 17.92V13.915H208.327V12.19H209.317V10.135H211.432V12.19H213.292V13.915H211.432ZM217.837 16.345C217.837 15.485 218.012 14.735 218.362 14.095C218.712 13.445 219.197 12.945 219.817 12.595C220.437 12.235 221.147 12.055 221.947 12.055C222.977 12.055 223.827 12.315 224.497 12.835C225.177 13.345 225.632 14.065 225.862 14.995H223.597C223.477 14.635 223.272 14.355 222.982 14.155C222.702 13.945 222.352 13.84 221.932 13.84C221.332 13.84 220.857 14.06 220.507 14.5C220.157 14.93 219.982 15.545 219.982 16.345C219.982 17.135 220.157 17.75 220.507 18.19C220.857 18.62 221.332 18.835 221.932 18.835C222.782 18.835 223.337 18.455 223.597 17.695H225.862C225.632 18.595 225.177 19.31 224.497 19.84C223.817 20.37 222.967 20.635 221.947 20.635C221.147 20.635 220.437 20.46 219.817 20.11C219.197 19.75 218.712 19.25 218.362 18.61C218.012 17.96 217.837 17.205 217.837 16.345ZM231.09 20.635C230.29 20.635 229.57 20.46 228.93 20.11C228.29 19.75 227.785 19.245 227.415 18.595C227.055 17.945 226.875 17.195 226.875 16.345C226.875 15.495 227.06 14.745 227.43 14.095C227.81 13.445 228.325 12.945 228.975 12.595C229.625 12.235 230.35 12.055 231.15 12.055C231.95 12.055 232.675 12.235 233.325 12.595C233.975 12.945 234.485 13.445 234.855 14.095C235.235 14.745 235.425 15.495 235.425 16.345C235.425 17.195 235.23 17.945 234.84 18.595C234.46 19.245 233.94 19.75 233.28 20.11C232.63 20.46 231.9 20.635 231.09 20.635ZM231.09 18.805C231.47 18.805 231.825 18.715 232.155 18.535C232.495 18.345 232.765 18.065 232.965 17.695C233.165 17.325 233.265 16.875 233.265 16.345C233.265 15.555 233.055 14.95 232.635 14.53C232.225 14.1 231.72 13.885 231.12 13.885C230.52 13.885 230.015 14.1 229.605 14.53C229.205 14.95 229.005 15.555 229.005 16.345C229.005 17.135 229.2 17.745 229.59 18.175C229.99 18.595 230.49 18.805 231.09 18.805ZM241.571 12.07C242.561 12.07 243.361 12.385 243.971 13.015C244.581 13.635 244.886 14.505 244.886 15.625V20.5H242.786V15.91C242.786 15.25 242.621 14.745 242.291 14.395C241.961 14.035 241.511 13.855 240.941 13.855C240.361 13.855 239.901 14.035 239.561 14.395C239.231 14.745 239.066 15.25 239.066 15.91V20.5H236.966V12.19H239.066V13.225C239.346 12.865 239.701 12.585 240.131 12.385C240.571 12.175 241.051 12.07 241.571 12.07ZM249.328 13.915V17.935C249.328 18.215 249.393 18.42 249.523 18.55C249.663 18.67 249.893 18.73 250.213 18.73H251.188V20.5H249.868C248.098 20.5 247.213 19.64 247.213 17.92V13.915H246.223V12.19H247.213V10.135H249.328V12.19H251.188V13.915H249.328ZM252.158 16.315C252.158 15.475 252.323 14.73 252.653 14.08C252.993 13.43 253.448 12.93 254.018 12.58C254.598 12.23 255.243 12.055 255.953 12.055C256.573 12.055 257.113 12.18 257.573 12.43C258.043 12.68 258.418 12.995 258.698 13.375V12.19H260.813V20.5H258.698V19.285C258.428 19.675 258.053 20 257.573 20.26C257.103 20.51 256.558 20.635 255.938 20.635C255.238 20.635 254.598 20.455 254.018 20.095C253.448 19.735 252.993 19.23 252.653 18.58C252.323 17.92 252.158 17.165 252.158 16.315ZM258.698 16.345C258.698 15.835 258.598 15.4 258.398 15.04C258.198 14.67 257.928 14.39 257.588 14.2C257.248 14 256.883 13.9 256.493 13.9C256.103 13.9 255.743 13.995 255.413 14.185C255.083 14.375 254.813 14.655 254.603 15.025C254.403 15.385 254.303 15.815 254.303 16.315C254.303 16.815 254.403 17.255 254.603 17.635C254.813 18.005 255.083 18.29 255.413 18.49C255.753 18.69 256.113 18.79 256.493 18.79C256.883 18.79 257.248 18.695 257.588 18.505C257.928 18.305 258.198 18.025 258.398 17.665C258.598 17.295 258.698 16.855 258.698 16.345ZM262.324 16.345C262.324 15.485 262.499 14.735 262.849 14.095C263.199 13.445 263.684 12.945 264.304 12.595C264.924 12.235 265.634 12.055 266.434 12.055C267.464 12.055 268.314 12.315 268.984 12.835C269.664 13.345 270.119 14.065 270.349 14.995H268.084C267.964 14.635 267.759 14.355 267.469 14.155C267.189 13.945 266.839 13.84 266.419 13.84C265.819 13.84 265.344 14.06 264.994 14.5C264.644 14.93 264.469 15.545 264.469 16.345C264.469 17.135 264.644 17.75 264.994 18.19C265.344 18.62 265.819 18.835 266.419 18.835C267.269 18.835 267.824 18.455 268.084 17.695H270.349C270.119 18.595 269.664 19.31 268.984 19.84C268.304 20.37 267.454 20.635 266.434 20.635C265.634 20.635 264.924 20.46 264.304 20.11C263.684 19.75 263.199 19.25 262.849 18.61C262.499 17.96 262.324 17.205 262.324 16.345ZM274.333 13.915V17.935C274.333 18.215 274.398 18.42 274.528 18.55C274.668 18.67 274.898 18.73 275.218 18.73H276.193V20.5H274.873C273.103 20.5 272.218 19.64 272.218 17.92V13.915H271.228V12.19H272.218V10.135H274.333V12.19H276.193V13.915H274.333Z" fill="#2E2E2E"/>
</svg>
