<svg width="200" height="149" viewBox="0 0 200 149" fill="none" xmlns="http://www.w3.org/2000/svg">
<g opacity="0.15">
<path fill-rule="evenodd" clip-rule="evenodd" d="M47.6949 69.5679L53.8887 74.8353C55.2385 75.983 56.9149 76.6774 58.6809 76.8204L66.785 77.4753C70.9135 77.809 74.191 81.0865 74.5247 85.215L75.1798 93.3191C75.3228 95.0851 76.0171 96.7615 77.1647 98.1113L82.4321 104.305C85.1152 107.46 85.1152 112.095 82.4321 115.25L77.1647 121.444C76.017 122.794 75.3226 124.47 75.1796 126.236L74.5245 134.341C74.191 138.469 70.9133 141.747 66.785 142.08L58.6809 142.735C56.9149 142.878 55.2386 143.573 53.8887 144.72L47.6949 149.988C44.5397 152.671 39.9045 152.671 36.7493 149.988L30.5557 144.72C29.2059 143.573 27.5295 142.878 25.7636 142.735L17.6595 142.08C13.5309 141.747 10.2534 138.469 9.91974 134.341L9.26463 126.236C9.12163 124.47 8.42721 122.794 7.27953 121.444L2.01237 115.25C-0.670789 112.095 -0.670789 107.46 2.01237 104.305L7.27972 98.1113C8.4274 96.7615 9.12182 95.0851 9.26483 93.3191L9.91974 85.215C10.2534 81.0865 13.5309 77.809 17.6595 77.4753L25.7636 76.8202C27.5295 76.6772 29.2059 75.9828 30.5557 74.8351L36.7493 69.5679C39.9045 66.8848 44.5397 66.8848 47.6949 69.5679ZM58.1053 94.6762L37.9835 114.907L28.3022 105.226L22.3317 111.197L37.9835 126.849L64.0761 100.647L58.1053 94.6762Z" fill="#44B40D"/>
<path d="M30.3232 0C23.9098 0 17.7591 2.54641 13.2241 7.07906C8.68913 11.6117 6.14141 17.7593 6.14141 24.1694V68.5324C9.58732 64.2786 13.662 60.5565 18.2323 57.4991V24.1694C18.2323 20.9644 19.5062 17.8906 21.7737 15.6243C24.0412 13.3579 27.1165 12.0847 30.3232 12.0847H175.414C178.621 12.0847 181.696 13.3579 183.964 15.6243C186.231 17.8906 187.505 20.9644 187.505 24.1694V120.847C187.505 124.052 186.231 127.126 183.964 129.392C181.696 131.659 178.621 132.932 175.414 132.932H93.7038C92.783 134.296 91.8069 135.623 90.7778 136.908V145.017H175.414C181.828 145.017 187.978 142.47 192.513 137.938C197.048 133.405 199.596 127.257 199.596 120.847V24.1694C199.596 17.7593 197.048 11.6117 192.513 7.07906C187.978 2.54641 181.828 0 175.414 0H30.3232ZM42.4141 42.2965C42.4141 40.694 43.0511 39.1571 44.1848 38.0239C45.3186 36.8908 46.8562 36.2542 48.4596 36.2542H157.278C158.881 36.2542 160.419 36.8908 161.553 38.0239C162.686 39.1571 163.323 40.694 163.323 42.2965C163.323 43.899 162.686 45.4359 161.553 46.5691C160.419 47.7023 158.881 48.3389 157.278 48.3389H48.4596C46.8562 48.3389 45.3186 47.7023 44.1848 46.5691C43.0511 45.4359 42.4141 43.899 42.4141 42.2965ZM108.914 84.593C107.311 84.593 105.773 85.2296 104.639 86.3628C103.506 87.4959 102.869 89.0329 102.869 90.6354C102.869 92.2379 103.506 93.7748 104.639 94.908C105.773 96.0411 107.311 96.6777 108.914 96.6777H157.278C158.881 96.6777 160.419 96.0411 161.553 94.908C162.686 93.7748 163.323 92.2379 163.323 90.6354C163.323 89.0329 162.686 87.4959 161.553 86.3628C160.419 85.2296 158.881 84.593 157.278 84.593H108.914Z" fill="#44B40D" fill-opacity="0.5"/>
</g>
</svg>
