<svg width="165" height="22" viewBox="0 0 165 22" fill="none" xmlns="http://www.w3.org/2000/svg">
<path d="M9.01172 2.54V4.8H3.19172V8.38H7.65172V10.6H3.19172V16.5H0.391719V2.54H9.01172ZM13.7972 7.14C14.1572 6.55333 14.6239 6.09333 15.1972 5.76C15.7839 5.42667 16.4505 5.26 17.1972 5.26V8.2H16.4572C15.5772 8.2 14.9105 8.40667 14.4572 8.82C14.0172 9.23333 13.7972 9.95333 13.7972 10.98V16.5H10.9972V5.42H13.7972V7.14ZM29.3831 10.72C29.3831 11.12 29.3565 11.48 29.3031 11.8H21.2031C21.2698 12.6 21.5498 13.2267 22.0431 13.68C22.5365 14.1333 23.1431 14.36 23.8631 14.36C24.9031 14.36 25.6431 13.9133 26.0831 13.02H29.1031C28.7831 14.0867 28.1698 14.9667 27.2631 15.66C26.3565 16.34 25.2431 16.68 23.9231 16.68C22.8565 16.68 21.8965 16.4467 21.0431 15.98C20.2031 15.5 19.5431 14.8267 19.0631 13.96C18.5965 13.0933 18.3631 12.0933 18.3631 10.96C18.3631 9.81333 18.5965 8.80667 19.0631 7.94C19.5298 7.07333 20.1831 6.40667 21.0231 5.94C21.8631 5.47333 22.8298 5.24 23.9231 5.24C24.9765 5.24 25.9165 5.46667 26.7431 5.92C27.5831 6.37333 28.2298 7.02 28.6831 7.86C29.1498 8.68667 29.3831 9.64 29.3831 10.72ZM26.4831 9.92C26.4698 9.2 26.2098 8.62667 25.7031 8.2C25.1965 7.76 24.5765 7.54 23.8431 7.54C23.1498 7.54 22.5631 7.75333 22.0831 8.18C21.6165 8.59333 21.3298 9.17333 21.2231 9.92H26.4831ZM41.7269 10.72C41.7269 11.12 41.7002 11.48 41.6469 11.8H33.5469C33.6135 12.6 33.8935 13.2267 34.3869 13.68C34.8802 14.1333 35.4869 14.36 36.2069 14.36C37.2469 14.36 37.9869 13.9133 38.4269 13.02H41.4469C41.1269 14.0867 40.5135 14.9667 39.6069 15.66C38.7002 16.34 37.5869 16.68 36.2669 16.68C35.2002 16.68 34.2402 16.4467 33.3869 15.98C32.5469 15.5 31.8869 14.8267 31.4069 13.96C30.9402 13.0933 30.7069 12.0933 30.7069 10.96C30.7069 9.81333 30.9402 8.80667 31.4069 7.94C31.8735 7.07333 32.5269 6.40667 33.3669 5.94C34.2069 5.47333 35.1735 5.24 36.2669 5.24C37.3202 5.24 38.2602 5.46667 39.0869 5.92C39.9269 6.37333 40.5735 7.02 41.0269 7.86C41.4935 8.68667 41.7269 9.64 41.7269 10.72ZM38.8269 9.92C38.8135 9.2 38.5535 8.62667 38.0469 8.2C37.5402 7.76 36.9202 7.54 36.1869 7.54C35.4935 7.54 34.9069 7.75333 34.4269 8.18C33.9602 8.59333 33.6735 9.17333 33.5669 9.92H38.8269ZM46.5706 1.7V16.5H43.7706V1.7H46.5706ZM48.617 10.92C48.617 9.8 48.837 8.80667 49.277 7.94C49.7304 7.07333 50.337 6.40667 51.097 5.94C51.8704 5.47333 52.7304 5.24 53.677 5.24C54.5037 5.24 55.2237 5.40667 55.837 5.74C56.4637 6.07333 56.9637 6.49333 57.337 7V5.42H60.157V16.5H57.337V14.88C56.977 15.4 56.477 15.8333 55.837 16.18C55.2104 16.5133 54.4837 16.68 53.657 16.68C52.7237 16.68 51.8704 16.44 51.097 15.96C50.337 15.48 49.7304 14.8067 49.277 13.94C48.837 13.06 48.617 12.0533 48.617 10.92ZM57.337 10.96C57.337 10.28 57.2037 9.7 56.937 9.22C56.6704 8.72667 56.3104 8.35333 55.857 8.1C55.4037 7.83333 54.917 7.7 54.397 7.7C53.877 7.7 53.397 7.82667 52.957 8.08C52.517 8.33333 52.157 8.70667 51.877 9.2C51.6104 9.68 51.477 10.2533 51.477 10.92C51.477 11.5867 51.6104 12.1733 51.877 12.68C52.157 13.1733 52.517 13.5533 52.957 13.82C53.4104 14.0867 53.8904 14.22 54.397 14.22C54.917 14.22 55.4037 14.0933 55.857 13.84C56.3104 13.5733 56.6704 13.2 56.937 12.72C57.2037 12.2267 57.337 11.64 57.337 10.96ZM69.0317 5.26C70.3517 5.26 71.4184 5.68 72.2317 6.52C73.0451 7.34667 73.4517 8.50667 73.4517 10V16.5H70.6517V10.38C70.6517 9.5 70.4317 8.82667 69.9917 8.36C69.5517 7.88 68.9517 7.64 68.1917 7.64C67.4184 7.64 66.8051 7.88 66.3517 8.36C65.9117 8.82667 65.6917 9.5 65.6917 10.38V16.5H62.8917V5.42H65.6917V6.8C66.0651 6.32 66.5384 5.94667 67.1117 5.68C67.6984 5.4 68.3384 5.26 69.0317 5.26ZM75.3944 10.96C75.3944 9.81333 75.6277 8.81333 76.0944 7.96C76.561 7.09333 77.2077 6.42667 78.0344 5.96C78.861 5.48 79.8077 5.24 80.8744 5.24C82.2477 5.24 83.381 5.58667 84.2744 6.28C85.181 6.96 85.7877 7.92 86.0944 9.16H83.0744C82.9144 8.68 82.641 8.30667 82.2544 8.04C81.881 7.76 81.4144 7.62 80.8544 7.62C80.0544 7.62 79.421 7.91333 78.9544 8.5C78.4877 9.07333 78.2544 9.89333 78.2544 10.96C78.2544 12.0133 78.4877 12.8333 78.9544 13.42C79.421 13.9933 80.0544 14.28 80.8544 14.28C81.9877 14.28 82.7277 13.7733 83.0744 12.76H86.0944C85.7877 13.96 85.181 14.9133 84.2744 15.62C83.3677 16.3267 82.2344 16.68 80.8744 16.68C79.8077 16.68 78.861 16.4467 78.0344 15.98C77.2077 15.5 76.561 14.8333 76.0944 13.98C75.6277 13.1133 75.3944 12.1067 75.3944 10.96ZM89.5656 4.1C89.0723 4.1 88.659 3.94667 88.3256 3.64C88.0056 3.32 87.8456 2.92667 87.8456 2.46C87.8456 1.99333 88.0056 1.60667 88.3256 1.3C88.659 0.979999 89.0723 0.819999 89.5656 0.819999C90.059 0.819999 90.4656 0.979999 90.7856 1.3C91.119 1.60667 91.2856 1.99333 91.2856 2.46C91.2856 2.92667 91.119 3.32 90.7856 3.64C90.4656 3.94667 90.059 4.1 89.5656 4.1ZM90.9456 5.42V16.5H88.1456V5.42H90.9456ZM99.852 5.26C101.172 5.26 102.239 5.68 103.052 6.52C103.865 7.34667 104.272 8.50667 104.272 10V16.5H101.472V10.38C101.472 9.5 101.252 8.82667 100.812 8.36C100.372 7.88 99.772 7.64 99.012 7.64C98.2387 7.64 97.6254 7.88 97.172 8.36C96.732 8.82667 96.512 9.5 96.512 10.38V16.5H93.712V5.42H96.512V6.8C96.8854 6.32 97.3587 5.94667 97.932 5.68C98.5187 5.4 99.1587 5.26 99.852 5.26ZM111.275 5.24C112.101 5.24 112.828 5.40667 113.455 5.74C114.081 6.06 114.575 6.48 114.935 7V5.42H117.755V16.58C117.755 17.6067 117.548 18.52 117.135 19.32C116.721 20.1333 116.101 20.7733 115.275 21.24C114.448 21.72 113.448 21.96 112.275 21.96C110.701 21.96 109.408 21.5933 108.395 20.86C107.395 20.1267 106.828 19.1267 106.695 17.86H109.475C109.621 18.3667 109.935 18.7667 110.415 19.06C110.908 19.3667 111.501 19.52 112.195 19.52C113.008 19.52 113.668 19.2733 114.175 18.78C114.681 18.3 114.935 17.5667 114.935 16.58V14.86C114.575 15.38 114.075 15.8133 113.435 16.16C112.808 16.5067 112.088 16.68 111.275 16.68C110.341 16.68 109.488 16.44 108.715 15.96C107.941 15.48 107.328 14.8067 106.875 13.94C106.435 13.06 106.215 12.0533 106.215 10.92C106.215 9.8 106.435 8.80667 106.875 7.94C107.328 7.07333 107.935 6.40667 108.695 5.94C109.468 5.47333 110.328 5.24 111.275 5.24ZM114.935 10.96C114.935 10.28 114.801 9.7 114.535 9.22C114.268 8.72667 113.908 8.35333 113.455 8.1C113.001 7.83333 112.515 7.7 111.995 7.7C111.475 7.7 110.995 7.82667 110.555 8.08C110.115 8.33333 109.755 8.70667 109.475 9.2C109.208 9.68 109.075 10.2533 109.075 10.92C109.075 11.5867 109.208 12.1733 109.475 12.68C109.755 13.1733 110.115 13.5533 110.555 13.82C111.008 14.0867 111.488 14.22 111.995 14.22C112.515 14.22 113.001 14.0933 113.455 13.84C113.908 13.5733 114.268 13.2 114.535 12.72C114.801 12.2267 114.935 11.64 114.935 10.96ZM136.835 2.54V16.5H134.035V10.56H128.055V16.5H125.255V2.54H128.055V8.28H134.035V2.54H136.835ZM150.051 5.42V16.5H147.231V15.1C146.871 15.58 146.398 15.96 145.811 16.24C145.238 16.5067 144.611 16.64 143.931 16.64C143.064 16.64 142.298 16.46 141.631 16.1C140.964 15.7267 140.438 15.1867 140.051 14.48C139.678 13.76 139.491 12.9067 139.491 11.92V5.42H142.291V11.52C142.291 12.4 142.511 13.08 142.951 13.56C143.391 14.0267 143.991 14.26 144.751 14.26C145.524 14.26 146.131 14.0267 146.571 13.56C147.011 13.08 147.231 12.4 147.231 11.52V5.42H150.051ZM155.614 7.04C155.974 6.50667 156.467 6.07333 157.094 5.74C157.734 5.40667 158.46 5.24 159.274 5.24C160.22 5.24 161.074 5.47333 161.834 5.94C162.607 6.40667 163.214 7.07333 163.654 7.94C164.107 8.79333 164.334 9.78667 164.334 10.92C164.334 12.0533 164.107 13.06 163.654 13.94C163.214 14.8067 162.607 15.48 161.834 15.96C161.074 16.44 160.22 16.68 159.274 16.68C158.447 16.68 157.72 16.52 157.094 16.2C156.48 15.8667 155.987 15.44 155.614 14.92V16.5H152.814V1.7H155.614V7.04ZM161.474 10.92C161.474 10.2533 161.334 9.68 161.054 9.2C160.787 8.70667 160.427 8.33333 159.974 8.08C159.534 7.82667 159.054 7.7 158.534 7.7C158.027 7.7 157.547 7.83333 157.094 8.1C156.654 8.35333 156.294 8.72667 156.014 9.22C155.747 9.71333 155.614 10.2933 155.614 10.96C155.614 11.6267 155.747 12.2067 156.014 12.7C156.294 13.1933 156.654 13.5733 157.094 13.84C157.547 14.0933 158.027 14.22 158.534 14.22C159.054 14.22 159.534 14.0867 159.974 13.82C160.427 13.5533 160.787 13.1733 161.054 12.68C161.334 12.1867 161.474 11.6 161.474 10.92Z" fill="#BF272D"/>
</svg>
