<svg width="150" height="150" viewBox="0 0 150 150" fill="none" xmlns="http://www.w3.org/2000/svg">
<path fill-rule="evenodd" clip-rule="evenodd" d="M75 0C33.5775 0 0 33.5775 0 75C0 116.422 33.5775 150 75 150C116.422 150 150 116.422 150 75C150 33.5775 116.422 0 75 0ZM48.75 56.25C48.75 52.8028 49.429 49.3894 50.7482 46.2046C52.0673 43.0198 54.0009 40.126 56.4384 37.6884C58.876 35.2509 61.7698 33.3173 64.9546 31.9982C68.1394 30.679 71.5528 30 75 30C78.4472 30 81.8606 30.679 85.0454 31.9982C88.2302 33.3173 91.124 35.2509 93.5616 37.6884C95.9991 40.126 97.9327 43.0198 99.2518 46.2046C100.571 49.3894 101.25 52.8028 101.25 56.25C101.25 63.2119 98.4844 69.8887 93.5616 74.8116C88.6387 79.7344 81.9619 82.5 75 82.5C68.0381 82.5 61.3613 79.7344 56.4384 74.8116C51.5156 69.8887 48.75 63.2119 48.75 56.25ZM121.935 112.38C116.319 119.44 109.181 125.141 101.054 129.058C92.9277 132.974 84.0214 135.006 75 135C65.9786 135.006 57.0724 132.974 48.9455 129.058C40.8187 125.141 33.6811 119.44 28.065 112.38C40.2225 103.657 56.8125 97.5 75 97.5C93.1875 97.5 109.777 103.657 121.935 112.38Z" fill="#A6A5A5"/>
</svg>
