<svg width="94" height="151" viewBox="0 0 94 151" fill="none" xmlns="http://www.w3.org/2000/svg">
<path d="M73.8643 150.356L74.2958 66.77H93.5V128.337C92.9821 148.175 80.1937 151.282 73.8643 150.356Z" fill="#BF272D"/>
<path d="M19.92 10.1198C19.92 15.4327 15.5726 19.7397 10.21 19.7397C4.8473 19.7397 0.5 15.4327 0.5 10.1198C0.5 4.80695 4.8473 0.5 10.21 0.5C15.5726 0.5 19.92 4.80695 19.92 10.1198Z" fill="#BF272D"/>
<path fill-rule="evenodd" clip-rule="evenodd" d="M58.1125 139.667V61.4257H93.5V41.5447H20.7831C20.7111 35.274 16.6401 22.9463 0.931555 23.8014V105.677C3.08933 112.233 10.0805 124.489 20.7831 121.069V61.4257H37.1821V121.069C37.4698 127.268 42.0587 139.667 58.1125 139.667ZM83.1427 59.0742C87.3137 59.0742 90.6949 55.7243 90.6949 51.5921C90.6949 47.4598 87.3137 44.11 83.1427 44.11C78.9717 44.11 75.5905 47.4598 75.5905 51.5921C75.5905 55.7243 78.9717 59.0742 83.1427 59.0742Z" fill="#BF272D"/>
</svg>
