<svg width="143" height="30" viewBox="0 0 143 30" fill="none" xmlns="http://www.w3.org/2000/svg">
<path d="M7 0V0C3.13401 0 0 3.13401 0 7V30V30C3.86599 30 7 26.866 7 23V0Z" fill="#BF272D"/>
<path d="M19.5 10.03V11.725H15.135V14.41H18.48V16.075H15.135V20.5H13.035V10.03H19.5ZM23.0891 13.48C23.3591 13.04 23.7091 12.695 24.1391 12.445C24.5791 12.195 25.0791 12.07 25.6391 12.07V14.275H25.0841C24.4241 14.275 23.9241 14.43 23.5841 14.74C23.2541 15.05 23.0891 15.59 23.0891 16.36V20.5H20.9891V12.19H23.0891V13.48ZM34.7786 16.165C34.7786 16.465 34.7586 16.735 34.7186 16.975H28.6436C28.6936 17.575 28.9036 18.045 29.2736 18.385C29.6436 18.725 30.0986 18.895 30.6386 18.895C31.4186 18.895 31.9736 18.56 32.3036 17.89H34.5686C34.3286 18.69 33.8686 19.35 33.1886 19.87C32.5086 20.38 31.6736 20.635 30.6836 20.635C29.8836 20.635 29.1636 20.46 28.5236 20.11C27.8936 19.75 27.3986 19.245 27.0386 18.595C26.6886 17.945 26.5136 17.195 26.5136 16.345C26.5136 15.485 26.6886 14.73 27.0386 14.08C27.3886 13.43 27.8786 12.93 28.5086 12.58C29.1386 12.23 29.8636 12.055 30.6836 12.055C31.4736 12.055 32.1786 12.225 32.7986 12.565C33.4286 12.905 33.9136 13.39 34.2536 14.02C34.6036 14.64 34.7786 15.355 34.7786 16.165ZM32.6036 15.565C32.5936 15.025 32.3986 14.595 32.0186 14.275C31.6386 13.945 31.1736 13.78 30.6236 13.78C30.1036 13.78 29.6636 13.94 29.3036 14.26C28.9536 14.57 28.7386 15.005 28.6586 15.565H32.6036ZM44.0364 16.165C44.0364 16.465 44.0164 16.735 43.9764 16.975H37.9014C37.9514 17.575 38.1614 18.045 38.5314 18.385C38.9014 18.725 39.3564 18.895 39.8964 18.895C40.6764 18.895 41.2314 18.56 41.5614 17.89H43.8264C43.5864 18.69 43.1264 19.35 42.4464 19.87C41.7664 20.38 40.9314 20.635 39.9414 20.635C39.1414 20.635 38.4214 20.46 37.7814 20.11C37.1514 19.75 36.6564 19.245 36.2964 18.595C35.9464 17.945 35.7714 17.195 35.7714 16.345C35.7714 15.485 35.9464 14.73 36.2964 14.08C36.6464 13.43 37.1364 12.93 37.7664 12.58C38.3964 12.23 39.1214 12.055 39.9414 12.055C40.7314 12.055 41.4364 12.225 42.0564 12.565C42.6864 12.905 43.1714 13.39 43.5114 14.02C43.8614 14.64 44.0364 15.355 44.0364 16.165ZM41.8614 15.565C41.8514 15.025 41.6564 14.595 41.2764 14.275C40.8964 13.945 40.4314 13.78 39.8814 13.78C39.3614 13.78 38.9214 13.94 38.5614 14.26C38.2114 14.57 37.9964 15.005 37.9164 15.565H41.8614ZM47.6692 9.4V20.5H45.5692V9.4H47.6692ZM49.204 16.315C49.204 15.475 49.369 14.73 49.699 14.08C50.039 13.43 50.494 12.93 51.064 12.58C51.644 12.23 52.289 12.055 52.999 12.055C53.619 12.055 54.159 12.18 54.619 12.43C55.089 12.68 55.464 12.995 55.744 13.375V12.19H57.859V20.5H55.744V19.285C55.474 19.675 55.099 20 54.619 20.26C54.149 20.51 53.604 20.635 52.984 20.635C52.284 20.635 51.644 20.455 51.064 20.095C50.494 19.735 50.039 19.23 49.699 18.58C49.369 17.92 49.204 17.165 49.204 16.315ZM55.744 16.345C55.744 15.835 55.644 15.4 55.444 15.04C55.244 14.67 54.974 14.39 54.634 14.2C54.294 14 53.929 13.9 53.539 13.9C53.149 13.9 52.789 13.995 52.459 14.185C52.129 14.375 51.859 14.655 51.649 15.025C51.449 15.385 51.349 15.815 51.349 16.315C51.349 16.815 51.449 17.255 51.649 17.635C51.859 18.005 52.129 18.29 52.459 18.49C52.799 18.69 53.159 18.79 53.539 18.79C53.929 18.79 54.294 18.695 54.634 18.505C54.974 18.305 55.244 18.025 55.444 17.665C55.644 17.295 55.744 16.855 55.744 16.345ZM64.515 12.07C65.505 12.07 66.305 12.385 66.915 13.015C67.525 13.635 67.83 14.505 67.83 15.625V20.5H65.73V15.91C65.73 15.25 65.565 14.745 65.235 14.395C64.905 14.035 64.455 13.855 63.885 13.855C63.305 13.855 62.845 14.035 62.505 14.395C62.175 14.745 62.01 15.25 62.01 15.91V20.5H59.91V12.19H62.01V13.225C62.29 12.865 62.645 12.585 63.075 12.385C63.515 12.175 63.995 12.07 64.515 12.07ZM69.287 16.345C69.287 15.485 69.462 14.735 69.812 14.095C70.162 13.445 70.647 12.945 71.267 12.595C71.887 12.235 72.597 12.055 73.397 12.055C74.427 12.055 75.277 12.315 75.947 12.835C76.627 13.345 77.082 14.065 77.312 14.995H75.047C74.927 14.635 74.722 14.355 74.432 14.155C74.152 13.945 73.802 13.84 73.382 13.84C72.782 13.84 72.307 14.06 71.957 14.5C71.607 14.93 71.432 15.545 71.432 16.345C71.432 17.135 71.607 17.75 71.957 18.19C72.307 18.62 72.782 18.835 73.382 18.835C74.232 18.835 74.787 18.455 75.047 17.695H77.312C77.082 18.595 76.627 19.31 75.947 19.84C75.267 20.37 74.417 20.635 73.397 20.635C72.597 20.635 71.887 20.46 71.267 20.11C70.647 19.75 70.162 19.25 69.812 18.61C69.462 17.96 69.287 17.205 69.287 16.345ZM79.9154 11.2C79.5454 11.2 79.2354 11.085 78.9854 10.855C78.7454 10.615 78.6254 10.32 78.6254 9.97C78.6254 9.62 78.7454 9.33 78.9854 9.1C79.2354 8.86 79.5454 8.74 79.9154 8.74C80.2854 8.74 80.5904 8.86 80.8304 9.1C81.0804 9.33 81.2054 9.62 81.2054 9.97C81.2054 10.32 81.0804 10.615 80.8304 10.855C80.5904 11.085 80.2854 11.2 79.9154 11.2ZM80.9504 12.19V20.5H78.8504V12.19H80.9504ZM87.6302 12.07C88.6202 12.07 89.4202 12.385 90.0302 13.015C90.6402 13.635 90.9452 14.505 90.9452 15.625V20.5H88.8452V15.91C88.8452 15.25 88.6802 14.745 88.3502 14.395C88.0202 14.035 87.5702 13.855 87.0002 13.855C86.4202 13.855 85.9602 14.035 85.6202 14.395C85.2902 14.745 85.1252 15.25 85.1252 15.91V20.5H83.0252V12.19H85.1252V13.225C85.4052 12.865 85.7602 12.585 86.1902 12.385C86.6302 12.175 87.1102 12.07 87.6302 12.07ZM96.1972 12.055C96.8172 12.055 97.3622 12.18 97.8322 12.43C98.3022 12.67 98.6722 12.985 98.9422 13.375V12.19H101.057V20.56C101.057 21.33 100.902 22.015 100.592 22.615C100.282 23.225 99.8172 23.705 99.1972 24.055C98.5772 24.415 97.8272 24.595 96.9472 24.595C95.7672 24.595 94.7972 24.32 94.0372 23.77C93.2872 23.22 92.8622 22.47 92.7622 21.52H94.8472C94.9572 21.9 95.1922 22.2 95.5522 22.42C95.9222 22.65 96.3672 22.765 96.8872 22.765C97.4972 22.765 97.9922 22.58 98.3722 22.21C98.7522 21.85 98.9422 21.3 98.9422 20.56V19.27C98.6722 19.66 98.2972 19.985 97.8172 20.245C97.3472 20.505 96.8072 20.635 96.1972 20.635C95.4972 20.635 94.8572 20.455 94.2772 20.095C93.6972 19.735 93.2372 19.23 92.8972 18.58C92.5672 17.92 92.4022 17.165 92.4022 16.315C92.4022 15.475 92.5672 14.73 92.8972 14.08C93.2372 13.43 93.6922 12.93 94.2622 12.58C94.8422 12.23 95.4872 12.055 96.1972 12.055ZM98.9422 16.345C98.9422 15.835 98.8422 15.4 98.6422 15.04C98.4422 14.67 98.1722 14.39 97.8322 14.2C97.4922 14 97.1272 13.9 96.7372 13.9C96.3472 13.9 95.9872 13.995 95.6572 14.185C95.3272 14.375 95.0572 14.655 94.8472 15.025C94.6472 15.385 94.5472 15.815 94.5472 16.315C94.5472 16.815 94.6472 17.255 94.8472 17.635C95.0572 18.005 95.3272 18.29 95.6572 18.49C95.9972 18.69 96.3572 18.79 96.7372 18.79C97.1272 18.79 97.4922 18.695 97.8322 18.505C98.1722 18.305 98.4422 18.025 98.6422 17.665C98.8422 17.295 98.9422 16.855 98.9422 16.345ZM112.787 10.03V17.38C112.787 18.4 112.492 19.195 111.902 19.765C111.312 20.325 110.522 20.605 109.532 20.605C108.532 20.605 107.722 20.315 107.102 19.735C106.492 19.155 106.187 18.345 106.187 17.305H108.287C108.297 17.755 108.402 18.105 108.602 18.355C108.812 18.605 109.112 18.73 109.502 18.73C109.882 18.73 110.172 18.61 110.372 18.37C110.572 18.13 110.672 17.8 110.672 17.38V10.03H112.787ZM118.927 20.635C118.127 20.635 117.407 20.46 116.767 20.11C116.127 19.75 115.622 19.245 115.252 18.595C114.892 17.945 114.712 17.195 114.712 16.345C114.712 15.495 114.897 14.745 115.267 14.095C115.647 13.445 116.162 12.945 116.812 12.595C117.462 12.235 118.187 12.055 118.987 12.055C119.787 12.055 120.512 12.235 121.162 12.595C121.812 12.945 122.322 13.445 122.692 14.095C123.072 14.745 123.262 15.495 123.262 16.345C123.262 17.195 123.067 17.945 122.677 18.595C122.297 19.245 121.777 19.75 121.117 20.11C120.467 20.46 119.737 20.635 118.927 20.635ZM118.927 18.805C119.307 18.805 119.662 18.715 119.992 18.535C120.332 18.345 120.602 18.065 120.802 17.695C121.002 17.325 121.102 16.875 121.102 16.345C121.102 15.555 120.892 14.95 120.472 14.53C120.062 14.1 119.557 13.885 118.957 13.885C118.357 13.885 117.852 14.1 117.442 14.53C117.042 14.95 116.842 15.555 116.842 16.345C116.842 17.135 117.037 17.745 117.427 18.175C117.827 18.595 118.327 18.805 118.927 18.805ZM126.903 13.405C127.173 13.005 127.543 12.68 128.013 12.43C128.493 12.18 129.038 12.055 129.648 12.055C130.358 12.055 130.998 12.23 131.568 12.58C132.148 12.93 132.603 13.43 132.933 14.08C133.273 14.72 133.443 15.465 133.443 16.315C133.443 17.165 133.273 17.92 132.933 18.58C132.603 19.23 132.148 19.735 131.568 20.095C130.998 20.455 130.358 20.635 129.648 20.635C129.028 20.635 128.483 20.515 128.013 20.275C127.553 20.025 127.183 19.705 126.903 19.315V20.5H124.803V9.4H126.903V13.405ZM131.298 16.315C131.298 15.815 131.193 15.385 130.983 15.025C130.783 14.655 130.513 14.375 130.173 14.185C129.843 13.995 129.483 13.9 129.093 13.9C128.713 13.9 128.353 14 128.013 14.2C127.683 14.39 127.413 14.67 127.203 15.04C127.003 15.41 126.903 15.845 126.903 16.345C126.903 16.845 127.003 17.28 127.203 17.65C127.413 18.02 127.683 18.305 128.013 18.505C128.353 18.695 128.713 18.79 129.093 18.79C129.483 18.79 129.843 18.69 130.173 18.49C130.513 18.29 130.783 18.005 130.983 17.635C131.193 17.265 131.298 16.825 131.298 16.315ZM138.149 20.635C137.469 20.635 136.859 20.515 136.319 20.275C135.779 20.025 135.349 19.69 135.029 19.27C134.719 18.85 134.549 18.385 134.519 17.875H136.634C136.674 18.195 136.829 18.46 137.099 18.67C137.379 18.88 137.724 18.985 138.134 18.985C138.534 18.985 138.844 18.905 139.064 18.745C139.294 18.585 139.409 18.38 139.409 18.13C139.409 17.86 139.269 17.66 138.989 17.53C138.719 17.39 138.284 17.24 137.684 17.08C137.064 16.93 136.554 16.775 136.154 16.615C135.764 16.455 135.424 16.21 135.134 15.88C134.854 15.55 134.714 15.105 134.714 14.545C134.714 14.085 134.844 13.665 135.104 13.285C135.374 12.905 135.754 12.605 136.244 12.385C136.744 12.165 137.329 12.055 137.999 12.055C138.989 12.055 139.779 12.305 140.369 12.805C140.959 13.295 141.284 13.96 141.344 14.8H139.334C139.304 14.47 139.164 14.21 138.914 14.02C138.674 13.82 138.349 13.72 137.939 13.72C137.559 13.72 137.264 13.79 137.054 13.93C136.854 14.07 136.754 14.265 136.754 14.515C136.754 14.795 136.894 15.01 137.174 15.16C137.454 15.3 137.889 15.445 138.479 15.595C139.079 15.745 139.574 15.9 139.964 16.06C140.354 16.22 140.689 16.47 140.969 16.81C141.259 17.14 141.409 17.58 141.419 18.13C141.419 18.61 141.284 19.04 141.014 19.42C140.754 19.8 140.374 20.1 139.874 20.32C139.384 20.53 138.809 20.635 138.149 20.635Z" fill="#F6F6F6"/>
</svg>
