<svg width="203" height="45" viewBox="0 0 203 45" fill="none" xmlns="http://www.w3.org/2000/svg">
<path d="M22.0882 44.9567L22.2181 19.881H28V38.3511C27.8441 44.3026 23.9938 45.2346 22.0882 44.9567Z" fill="#BF272D"/>
<path d="M5.84687 2.88595C5.84687 4.47982 4.538 5.77191 2.92343 5.77191C1.30887 5.77191 0 4.47982 0 2.88595C0 1.29209 1.30887 0 2.92343 0C4.538 0 5.84687 1.29209 5.84687 2.88595Z" fill="#BF272D"/>
<path fill-rule="evenodd" clip-rule="evenodd" d="M17.3457 41.7501V18.2777H28V12.3134H6.10673C6.08507 10.4322 4.8594 6.73389 0.12993 6.99042V31.5531C0.779582 33.5198 2.88445 37.1967 6.10673 36.1706V18.2777H11.0441V36.1706C11.1307 38.0304 12.5123 41.7501 17.3457 41.7501ZM24.8817 17.5722C26.1374 17.5722 27.1555 16.5673 27.1555 15.3276C27.1555 14.0879 26.1374 13.083 24.8817 13.083C23.6259 13.083 22.6079 14.0879 22.6079 15.3276C22.6079 16.5673 23.6259 17.5722 24.8817 17.5722Z" fill="#BF272D"/>
<path d="M42.68 21.1V22.96H36.78V27.06H41.38V28.92H36.78V35H34.5V21.1H42.68ZM47.473 25.58C47.8063 25.02 48.2463 24.5867 48.793 24.28C49.353 23.96 50.013 23.8 50.773 23.8V26.16H50.193C49.2996 26.16 48.6196 26.3867 48.153 26.84C47.6996 27.2933 47.473 28.08 47.473 29.2V35H45.193V23.98H47.473V25.58ZM63.3688 29.22C63.3688 29.6333 63.3421 30.0067 63.2887 30.34H54.8687C54.9354 31.22 55.2621 31.9267 55.8487 32.46C56.4354 32.9933 57.1554 33.26 58.0087 33.26C59.2354 33.26 60.1021 32.7467 60.6087 31.72H63.0687C62.7354 32.7333 62.1287 33.5667 61.2487 34.22C60.3821 34.86 59.3021 35.18 58.0087 35.18C56.9554 35.18 56.0087 34.9467 55.1687 34.48C54.3421 34 53.6887 33.3333 53.2087 32.48C52.7421 31.6133 52.5087 30.6133 52.5087 29.48C52.5087 28.3467 52.7354 27.3533 53.1887 26.5C53.6554 25.6333 54.3021 24.9667 55.1287 24.5C55.9687 24.0333 56.9287 23.8 58.0087 23.8C59.0487 23.8 59.9754 24.0267 60.7887 24.48C61.6021 24.9333 62.2354 25.5733 62.6887 26.4C63.1421 27.2133 63.3688 28.1533 63.3688 29.22ZM60.9887 28.5C60.9754 27.66 60.6754 26.9867 60.0887 26.48C59.5021 25.9733 58.7754 25.72 57.9087 25.72C57.1221 25.72 56.4487 25.9733 55.8887 26.48C55.3287 26.9733 54.9954 27.6467 54.8887 28.5H60.9887ZM76.1125 29.22C76.1125 29.6333 76.0858 30.0067 76.0325 30.34H67.6125C67.6792 31.22 68.0058 31.9267 68.5925 32.46C69.1792 32.9933 69.8992 33.26 70.7525 33.26C71.9792 33.26 72.8458 32.7467 73.3525 31.72H75.8125C75.4792 32.7333 74.8725 33.5667 73.9925 34.22C73.1258 34.86 72.0458 35.18 70.7525 35.18C69.6992 35.18 68.7525 34.9467 67.9125 34.48C67.0858 34 66.4325 33.3333 65.9525 32.48C65.4858 31.6133 65.2525 30.6133 65.2525 29.48C65.2525 28.3467 65.4792 27.3533 65.9325 26.5C66.3992 25.6333 67.0458 24.9667 67.8725 24.5C68.7125 24.0333 69.6725 23.8 70.7525 23.8C71.7925 23.8 72.7192 24.0267 73.5325 24.48C74.3458 24.9333 74.9792 25.5733 75.4325 26.4C75.8858 27.2133 76.1125 28.1533 76.1125 29.22ZM73.7325 28.5C73.7192 27.66 73.4192 26.9867 72.8325 26.48C72.2458 25.9733 71.5192 25.72 70.6525 25.72C69.8658 25.72 69.1925 25.9733 68.6325 26.48C68.0725 26.9733 67.7392 27.6467 67.6325 28.5H73.7325ZM81.0362 20.2V35H78.7562V20.2H81.0362ZM83.6697 29.44C83.6697 28.3333 83.8964 27.3533 84.3497 26.5C84.8164 25.6467 85.443 24.9867 86.2297 24.52C87.0297 24.04 87.9097 23.8 88.8697 23.8C89.7364 23.8 90.4897 23.9733 91.1297 24.32C91.783 24.6533 92.303 25.0733 92.6897 25.58V23.98H94.9897V35H92.6897V33.36C92.303 33.88 91.7764 34.3133 91.1097 34.66C90.443 35.0067 89.683 35.18 88.8297 35.18C87.883 35.18 87.0164 34.94 86.2297 34.46C85.443 33.9667 84.8164 33.2867 84.3497 32.42C83.8964 31.54 83.6697 30.5467 83.6697 29.44ZM92.6897 29.48C92.6897 28.72 92.5297 28.06 92.2097 27.5C91.903 26.94 91.4964 26.5133 90.9897 26.22C90.483 25.9267 89.9364 25.78 89.3497 25.78C88.763 25.78 88.2164 25.9267 87.7097 26.22C87.203 26.5 86.7897 26.92 86.4697 27.48C86.163 28.0267 86.0097 28.68 86.0097 29.44C86.0097 30.2 86.163 30.8667 86.4697 31.44C86.7897 32.0133 87.203 32.4533 87.7097 32.76C88.2297 33.0533 88.7764 33.2 89.3497 33.2C89.9364 33.2 90.483 33.0533 90.9897 32.76C91.4964 32.4667 91.903 32.04 92.2097 31.48C92.5297 30.9067 92.6897 30.24 92.6897 29.48ZM103.944 23.8C104.811 23.8 105.584 23.98 106.264 24.34C106.958 24.7 107.498 25.2333 107.884 25.94C108.271 26.6467 108.464 27.5 108.464 28.5V35H106.204V28.84C106.204 27.8533 105.958 27.1 105.464 26.58C104.971 26.0467 104.298 25.78 103.444 25.78C102.591 25.78 101.911 26.0467 101.404 26.58C100.911 27.1 100.664 27.8533 100.664 28.84V35H98.3844V23.98H100.664V25.24C101.038 24.7867 101.511 24.4333 102.084 24.18C102.671 23.9267 103.291 23.8 103.944 23.8ZM111.013 29.48C111.013 28.3467 111.239 27.3533 111.693 26.5C112.159 25.6333 112.799 24.9667 113.613 24.5C114.426 24.0333 115.359 23.8 116.413 23.8C117.746 23.8 118.846 24.12 119.713 24.76C120.593 25.3867 121.186 26.2867 121.493 27.46H119.033C118.833 26.9133 118.513 26.4867 118.073 26.18C117.633 25.8733 117.079 25.72 116.413 25.72C115.479 25.72 114.733 26.0533 114.173 26.72C113.626 27.3733 113.353 28.2933 113.353 29.48C113.353 30.6667 113.626 31.5933 114.173 32.26C114.733 32.9267 115.479 33.26 116.413 33.26C117.733 33.26 118.606 32.68 119.033 31.52H121.493C121.173 32.64 120.573 33.5333 119.693 34.2C118.813 34.8533 117.719 35.18 116.413 35.18C115.359 35.18 114.426 34.9467 113.613 34.48C112.799 34 112.159 33.3333 111.693 32.48C111.239 31.6133 111.013 30.6133 111.013 29.48ZM125.325 22.52C124.912 22.52 124.565 22.38 124.285 22.1C124.005 21.82 123.865 21.4733 123.865 21.06C123.865 20.6467 124.005 20.3 124.285 20.02C124.565 19.74 124.912 19.6 125.325 19.6C125.725 19.6 126.065 19.74 126.345 20.02C126.625 20.3 126.765 20.6467 126.765 21.06C126.765 21.4733 126.625 21.82 126.345 22.1C126.065 22.38 125.725 22.52 125.325 22.52ZM126.445 23.98V35H124.165V23.98H126.445ZM135.398 23.8C136.265 23.8 137.038 23.98 137.718 24.34C138.412 24.7 138.952 25.2333 139.338 25.94C139.725 26.6467 139.918 27.5 139.918 28.5V35H137.658V28.84C137.658 27.8533 137.412 27.1 136.918 26.58C136.425 26.0467 135.752 25.78 134.898 25.78C134.045 25.78 133.365 26.0467 132.858 26.58C132.365 27.1 132.118 27.8533 132.118 28.84V35H129.838V23.98H132.118V25.24C132.492 24.7867 132.965 24.4333 133.538 24.18C134.125 23.9267 134.745 23.8 135.398 23.8ZM147.667 23.8C148.52 23.8 149.273 23.9733 149.927 24.32C150.593 24.6533 151.113 25.0733 151.487 25.58V23.98H153.787V35.18C153.787 36.1933 153.573 37.0933 153.147 37.88C152.72 38.68 152.1 39.3067 151.287 39.76C150.487 40.2133 149.527 40.44 148.407 40.44C146.913 40.44 145.673 40.0867 144.687 39.38C143.7 38.6867 143.14 37.74 143.007 36.54H145.267C145.44 37.1133 145.807 37.5733 146.367 37.92C146.94 38.28 147.62 38.46 148.407 38.46C149.327 38.46 150.067 38.18 150.627 37.62C151.2 37.06 151.487 36.2467 151.487 35.18V33.34C151.1 33.86 150.573 34.3 149.907 34.66C149.253 35.0067 148.507 35.18 147.667 35.18C146.707 35.18 145.827 34.94 145.027 34.46C144.24 33.9667 143.613 33.2867 143.147 32.42C142.693 31.54 142.467 30.5467 142.467 29.44C142.467 28.3333 142.693 27.3533 143.147 26.5C143.613 25.6467 144.24 24.9867 145.027 24.52C145.827 24.04 146.707 23.8 147.667 23.8ZM151.487 29.48C151.487 28.72 151.327 28.06 151.007 27.5C150.7 26.94 150.293 26.5133 149.787 26.22C149.28 25.9267 148.733 25.78 148.147 25.78C147.56 25.78 147.013 25.9267 146.507 26.22C146 26.5 145.587 26.92 145.267 27.48C144.96 28.0267 144.807 28.68 144.807 29.44C144.807 30.2 144.96 30.8667 145.267 31.44C145.587 32.0133 146 32.4533 146.507 32.76C147.027 33.0533 147.573 33.2 148.147 33.2C148.733 33.2 149.28 33.0533 149.787 32.76C150.293 32.4667 150.7 32.04 151.007 31.48C151.327 30.9067 151.487 30.24 151.487 29.48ZM173.877 21.1V35H171.597V28.92H165.057V35H162.777V21.1H165.057V27.06H171.597V21.1H173.877ZM187.258 23.98V35H184.978V33.7C184.618 34.1533 184.145 34.5133 183.558 34.78C182.985 35.0333 182.371 35.16 181.718 35.16C180.851 35.16 180.071 34.98 179.378 34.62C178.698 34.26 178.158 33.7267 177.758 33.02C177.371 32.3133 177.178 31.46 177.178 30.46V23.98H179.438V30.12C179.438 31.1067 179.685 31.8667 180.178 32.4C180.671 32.92 181.345 33.18 182.198 33.18C183.051 33.18 183.725 32.92 184.218 32.4C184.725 31.8667 184.978 31.1067 184.978 30.12V23.98H187.258ZM192.946 25.62C193.333 25.0867 193.86 24.6533 194.526 24.32C195.206 23.9733 195.96 23.8 196.786 23.8C197.76 23.8 198.64 24.0333 199.426 24.5C200.213 24.9667 200.833 25.6333 201.286 26.5C201.74 27.3533 201.966 28.3333 201.966 29.44C201.966 30.5467 201.74 31.54 201.286 32.42C200.833 33.2867 200.206 33.9667 199.406 34.46C198.62 34.94 197.746 35.18 196.786 35.18C195.933 35.18 195.173 35.0133 194.506 34.68C193.853 34.3467 193.333 33.92 192.946 33.4V35H190.666V20.2H192.946V25.62ZM199.646 29.44C199.646 28.68 199.486 28.0267 199.166 27.48C198.86 26.92 198.446 26.5 197.926 26.22C197.42 25.9267 196.873 25.78 196.286 25.78C195.713 25.78 195.166 25.9267 194.646 26.22C194.14 26.5133 193.726 26.94 193.406 27.5C193.1 28.06 192.946 28.72 192.946 29.48C192.946 30.24 193.1 30.9067 193.406 31.48C193.726 32.04 194.14 32.4667 194.646 32.76C195.166 33.0533 195.713 33.2 196.286 33.2C196.873 33.2 197.42 33.0533 197.926 32.76C198.446 32.4533 198.86 32.0133 199.166 31.44C199.486 30.8667 199.646 30.2 199.646 29.44Z" fill="#2E2E2E"/>
</svg>
