<svg width="178" height="161" viewBox="0 0 178 161" fill="none" xmlns="http://www.w3.org/2000/svg">
<path d="M160.2 0.5H80.1C70.31 0.5 62.3 8.5 62.3 18.2778V89.3889H124.6L151.3 116.056V89.3889H160.2C169.99 89.3889 178 81.3978 178 71.6111V18.2778C178 8.5 169.99 0.5 160.2 0.5Z" fill="#BF272D"/>
<path d="M57.62 94.0645V44.9444H17.8C8.01 44.9444 0 52.9444 0 62.7222V116.056C0 125.833 8.01 133.833 17.8 133.833H26.7V160.5L53.4 133.833H97.9C107.69 133.833 115.7 125.833 115.7 116.056L116 94.0645C115.473 94.0645 116.598 94.0621 116 94.0645H57.62Z" fill="#D7777B" fill-opacity="0.6"/>
</svg>
