<svg width="200" height="149" viewBox="0 0 200 149" fill="none" xmlns="http://www.w3.org/2000/svg">
<path d="M42.2222 143.556C51.1806 143.556 59.7722 139.997 66.1067 133.662C72.4413 127.328 76 118.736 76 109.778C76 100.819 72.4413 92.2278 66.1067 85.8933C59.7722 79.5587 51.1806 76 42.2222 76C33.2638 76 24.6723 79.5587 18.3377 85.8933C12.0032 92.2278 8.44444 100.819 8.44444 109.778C8.44444 118.736 12.0032 127.328 18.3377 133.662C24.6723 139.997 33.2638 143.556 42.2222 143.556ZM42.2222 67.5556C47.7669 67.5556 53.2573 68.6477 58.38 70.7695C63.5026 72.8914 68.1571 76.0015 72.0778 79.9222C75.9985 83.8429 79.1086 88.4974 81.2305 93.62C83.3523 98.7427 84.4444 104.233 84.4444 109.778C84.4444 120.976 79.996 131.715 72.0778 139.633C64.1596 147.552 53.4203 152 42.2222 152C18.8733 152 0 133 0 109.778C0 98.5798 4.4484 87.8404 12.3666 79.9222C20.2848 72.004 31.0242 67.5556 42.2222 67.5556ZM44.3333 88.6667V110.833L63.3333 122.107L60.1667 127.3L38 114V88.6667H44.3333Z" fill="#A7A5A5" fill-opacity="0.15"/>
<path d="M30.3232 0C23.9098 0 17.7591 2.54641 13.2241 7.07906C8.68913 11.6117 6.14141 17.7593 6.14141 24.1694V68.5324C9.58732 64.2786 13.662 60.5565 18.2323 57.4991V24.1694C18.2323 20.9644 19.5062 17.8906 21.7737 15.6243C24.0412 13.3579 27.1165 12.0847 30.3232 12.0847H175.414C178.621 12.0847 181.696 13.3579 183.964 15.6243C186.231 17.8906 187.505 20.9644 187.505 24.1694V120.847C187.505 124.052 186.231 127.126 183.964 129.392C181.696 131.659 178.621 132.932 175.414 132.932H93.7038C92.783 134.296 91.8069 135.623 90.7778 136.908V145.017H175.414C181.828 145.017 187.978 142.47 192.513 137.938C197.048 133.405 199.596 127.257 199.596 120.847V24.1694C199.596 17.7593 197.048 11.6117 192.513 7.07906C187.978 2.54641 181.828 0 175.414 0H30.3232ZM42.4141 42.2965C42.4141 40.694 43.0511 39.1571 44.1848 38.0239C45.3186 36.8908 46.8562 36.2542 48.4596 36.2542H157.278C158.881 36.2542 160.419 36.8908 161.553 38.0239C162.686 39.1571 163.323 40.694 163.323 42.2965C163.323 43.899 162.686 45.4359 161.553 46.5691C160.419 47.7023 158.881 48.3389 157.278 48.3389H48.4596C46.8562 48.3389 45.3186 47.7023 44.1848 46.5691C43.0511 45.4359 42.4141 43.899 42.4141 42.2965ZM108.914 84.593C107.311 84.593 105.773 85.2296 104.639 86.3628C103.506 87.4959 102.869 89.0329 102.869 90.6354C102.869 92.2379 103.506 93.7748 104.639 94.908C105.773 96.0411 107.311 96.6777 108.914 96.6777H157.278C158.881 96.6777 160.419 96.0411 161.553 94.908C162.686 93.7748 163.323 92.2379 163.323 90.6354C163.323 89.0329 162.686 87.4959 161.553 86.3628C160.419 85.2296 158.881 84.593 157.278 84.593H108.914Z" fill="#A7A5A5" fill-opacity="0.15"/>
</svg>
