<svg width="224" height="30" viewBox="0 0 224 30" fill="none" xmlns="http://www.w3.org/2000/svg">
<path d="M7 0V0C3.13401 0 0 3.13401 0 7V30V30C3.86599 30 7 26.866 7 23V0Z" fill="#BF272D"/>
<path d="M19.5 10.03V11.725H15.135V14.41H18.48V16.075H15.135V20.5H13.035V10.03H19.5ZM23.0891 13.48C23.3591 13.04 23.7091 12.695 24.1391 12.445C24.5791 12.195 25.0791 12.07 25.6391 12.07V14.275H25.0841C24.4241 14.275 23.9241 14.43 23.5841 14.74C23.2541 15.05 23.0891 15.59 23.0891 16.36V20.5H20.9891V12.19H23.0891V13.48ZM34.7786 16.165C34.7786 16.465 34.7586 16.735 34.7186 16.975H28.6436C28.6936 17.575 28.9036 18.045 29.2736 18.385C29.6436 18.725 30.0986 18.895 30.6386 18.895C31.4186 18.895 31.9736 18.56 32.3036 17.89H34.5686C34.3286 18.69 33.8686 19.35 33.1886 19.87C32.5086 20.38 31.6736 20.635 30.6836 20.635C29.8836 20.635 29.1636 20.46 28.5236 20.11C27.8936 19.75 27.3986 19.245 27.0386 18.595C26.6886 17.945 26.5136 17.195 26.5136 16.345C26.5136 15.485 26.6886 14.73 27.0386 14.08C27.3886 13.43 27.8786 12.93 28.5086 12.58C29.1386 12.23 29.8636 12.055 30.6836 12.055C31.4736 12.055 32.1786 12.225 32.7986 12.565C33.4286 12.905 33.9136 13.39 34.2536 14.02C34.6036 14.64 34.7786 15.355 34.7786 16.165ZM32.6036 15.565C32.5936 15.025 32.3986 14.595 32.0186 14.275C31.6386 13.945 31.1736 13.78 30.6236 13.78C30.1036 13.78 29.6636 13.94 29.3036 14.26C28.9536 14.57 28.7386 15.005 28.6586 15.565H32.6036ZM44.0364 16.165C44.0364 16.465 44.0164 16.735 43.9764 16.975H37.9014C37.9514 17.575 38.1614 18.045 38.5314 18.385C38.9014 18.725 39.3564 18.895 39.8964 18.895C40.6764 18.895 41.2314 18.56 41.5614 17.89H43.8264C43.5864 18.69 43.1264 19.35 42.4464 19.87C41.7664 20.38 40.9314 20.635 39.9414 20.635C39.1414 20.635 38.4214 20.46 37.7814 20.11C37.1514 19.75 36.6564 19.245 36.2964 18.595C35.9464 17.945 35.7714 17.195 35.7714 16.345C35.7714 15.485 35.9464 14.73 36.2964 14.08C36.6464 13.43 37.1364 12.93 37.7664 12.58C38.3964 12.23 39.1214 12.055 39.9414 12.055C40.7314 12.055 41.4364 12.225 42.0564 12.565C42.6864 12.905 43.1714 13.39 43.5114 14.02C43.8614 14.64 44.0364 15.355 44.0364 16.165ZM41.8614 15.565C41.8514 15.025 41.6564 14.595 41.2764 14.275C40.8964 13.945 40.4314 13.78 39.8814 13.78C39.3614 13.78 38.9214 13.94 38.5614 14.26C38.2114 14.57 37.9964 15.005 37.9164 15.565H41.8614ZM47.6692 9.4V20.5H45.5692V9.4H47.6692ZM49.204 16.315C49.204 15.475 49.369 14.73 49.699 14.08C50.039 13.43 50.494 12.93 51.064 12.58C51.644 12.23 52.289 12.055 52.999 12.055C53.619 12.055 54.159 12.18 54.619 12.43C55.089 12.68 55.464 12.995 55.744 13.375V12.19H57.859V20.5H55.744V19.285C55.474 19.675 55.099 20 54.619 20.26C54.149 20.51 53.604 20.635 52.984 20.635C52.284 20.635 51.644 20.455 51.064 20.095C50.494 19.735 50.039 19.23 49.699 18.58C49.369 17.92 49.204 17.165 49.204 16.315ZM55.744 16.345C55.744 15.835 55.644 15.4 55.444 15.04C55.244 14.67 54.974 14.39 54.634 14.2C54.294 14 53.929 13.9 53.539 13.9C53.149 13.9 52.789 13.995 52.459 14.185C52.129 14.375 51.859 14.655 51.649 15.025C51.449 15.385 51.349 15.815 51.349 16.315C51.349 16.815 51.449 17.255 51.649 17.635C51.859 18.005 52.129 18.29 52.459 18.49C52.799 18.69 53.159 18.79 53.539 18.79C53.929 18.79 54.294 18.695 54.634 18.505C54.974 18.305 55.244 18.025 55.444 17.665C55.644 17.295 55.744 16.855 55.744 16.345ZM64.515 12.07C65.505 12.07 66.305 12.385 66.915 13.015C67.525 13.635 67.83 14.505 67.83 15.625V20.5H65.73V15.91C65.73 15.25 65.565 14.745 65.235 14.395C64.905 14.035 64.455 13.855 63.885 13.855C63.305 13.855 62.845 14.035 62.505 14.395C62.175 14.745 62.01 15.25 62.01 15.91V20.5H59.91V12.19H62.01V13.225C62.29 12.865 62.645 12.585 63.075 12.385C63.515 12.175 63.995 12.07 64.515 12.07ZM69.287 16.345C69.287 15.485 69.462 14.735 69.812 14.095C70.162 13.445 70.647 12.945 71.267 12.595C71.887 12.235 72.597 12.055 73.397 12.055C74.427 12.055 75.277 12.315 75.947 12.835C76.627 13.345 77.082 14.065 77.312 14.995H75.047C74.927 14.635 74.722 14.355 74.432 14.155C74.152 13.945 73.802 13.84 73.382 13.84C72.782 13.84 72.307 14.06 71.957 14.5C71.607 14.93 71.432 15.545 71.432 16.345C71.432 17.135 71.607 17.75 71.957 18.19C72.307 18.62 72.782 18.835 73.382 18.835C74.232 18.835 74.787 18.455 75.047 17.695H77.312C77.082 18.595 76.627 19.31 75.947 19.84C75.267 20.37 74.417 20.635 73.397 20.635C72.597 20.635 71.887 20.46 71.267 20.11C70.647 19.75 70.162 19.25 69.812 18.61C69.462 17.96 69.287 17.205 69.287 16.345ZM79.9154 11.2C79.5454 11.2 79.2354 11.085 78.9854 10.855C78.7454 10.615 78.6254 10.32 78.6254 9.97C78.6254 9.62 78.7454 9.33 78.9854 9.1C79.2354 8.86 79.5454 8.74 79.9154 8.74C80.2854 8.74 80.5904 8.86 80.8304 9.1C81.0804 9.33 81.2054 9.62 81.2054 9.97C81.2054 10.32 81.0804 10.615 80.8304 10.855C80.5904 11.085 80.2854 11.2 79.9154 11.2ZM80.9504 12.19V20.5H78.8504V12.19H80.9504ZM87.6302 12.07C88.6202 12.07 89.4202 12.385 90.0302 13.015C90.6402 13.635 90.9452 14.505 90.9452 15.625V20.5H88.8452V15.91C88.8452 15.25 88.6802 14.745 88.3502 14.395C88.0202 14.035 87.5702 13.855 87.0002 13.855C86.4202 13.855 85.9602 14.035 85.6202 14.395C85.2902 14.745 85.1252 15.25 85.1252 15.91V20.5H83.0252V12.19H85.1252V13.225C85.4052 12.865 85.7602 12.585 86.1902 12.385C86.6302 12.175 87.1102 12.07 87.6302 12.07ZM96.1972 12.055C96.8172 12.055 97.3622 12.18 97.8322 12.43C98.3022 12.67 98.6722 12.985 98.9422 13.375V12.19H101.057V20.56C101.057 21.33 100.902 22.015 100.592 22.615C100.282 23.225 99.8172 23.705 99.1972 24.055C98.5772 24.415 97.8272 24.595 96.9472 24.595C95.7672 24.595 94.7972 24.32 94.0372 23.77C93.2872 23.22 92.8622 22.47 92.7622 21.52H94.8472C94.9572 21.9 95.1922 22.2 95.5522 22.42C95.9222 22.65 96.3672 22.765 96.8872 22.765C97.4972 22.765 97.9922 22.58 98.3722 22.21C98.7522 21.85 98.9422 21.3 98.9422 20.56V19.27C98.6722 19.66 98.2972 19.985 97.8172 20.245C97.3472 20.505 96.8072 20.635 96.1972 20.635C95.4972 20.635 94.8572 20.455 94.2772 20.095C93.6972 19.735 93.2372 19.23 92.8972 18.58C92.5672 17.92 92.4022 17.165 92.4022 16.315C92.4022 15.475 92.5672 14.73 92.8972 14.08C93.2372 13.43 93.6922 12.93 94.2622 12.58C94.8422 12.23 95.4872 12.055 96.1972 12.055ZM98.9422 16.345C98.9422 15.835 98.8422 15.4 98.6422 15.04C98.4422 14.67 98.1722 14.39 97.8322 14.2C97.4922 14 97.1272 13.9 96.7372 13.9C96.3472 13.9 95.9872 13.995 95.6572 14.185C95.3272 14.375 95.0572 14.655 94.8472 15.025C94.6472 15.385 94.5472 15.815 94.5472 16.315C94.5472 16.815 94.6472 17.255 94.8472 17.635C95.0572 18.005 95.3272 18.29 95.6572 18.49C95.9972 18.69 96.3572 18.79 96.7372 18.79C97.1272 18.79 97.4922 18.695 97.8322 18.505C98.1722 18.305 98.4422 18.025 98.6422 17.665C98.8422 17.295 98.9422 16.855 98.9422 16.345ZM107.747 11.2C107.367 11.2 107.052 11.085 106.802 10.855C106.562 10.615 106.442 10.32 106.442 9.97C106.442 9.62 106.562 9.33 106.802 9.1C107.052 8.86 107.367 8.74 107.747 8.74C108.117 8.74 108.422 8.86 108.662 9.1C108.902 9.33 109.022 9.62 109.022 9.97C109.022 10.32 108.902 10.615 108.662 10.855C108.422 11.085 108.117 11.2 107.747 11.2ZM108.782 21.865C108.782 22.785 108.552 23.445 108.092 23.845C107.642 24.255 106.992 24.46 106.142 24.46H105.212V22.675H105.812C106.132 22.675 106.357 22.61 106.487 22.48C106.617 22.36 106.682 22.16 106.682 21.88V12.19H108.782V21.865ZM114.547 20.635C113.747 20.635 113.027 20.46 112.387 20.11C111.747 19.75 111.242 19.245 110.872 18.595C110.512 17.945 110.332 17.195 110.332 16.345C110.332 15.495 110.517 14.745 110.887 14.095C111.267 13.445 111.782 12.945 112.432 12.595C113.082 12.235 113.807 12.055 114.607 12.055C115.407 12.055 116.132 12.235 116.782 12.595C117.432 12.945 117.942 13.445 118.312 14.095C118.692 14.745 118.882 15.495 118.882 16.345C118.882 17.195 118.687 17.945 118.297 18.595C117.917 19.245 117.397 19.75 116.737 20.11C116.087 20.46 115.357 20.635 114.547 20.635ZM114.547 18.805C114.927 18.805 115.282 18.715 115.612 18.535C115.952 18.345 116.222 18.065 116.422 17.695C116.622 17.325 116.722 16.875 116.722 16.345C116.722 15.555 116.512 14.95 116.092 14.53C115.682 14.1 115.177 13.885 114.577 13.885C113.977 13.885 113.472 14.1 113.062 14.53C112.662 14.95 112.462 15.555 112.462 16.345C112.462 17.135 112.657 17.745 113.047 18.175C113.447 18.595 113.947 18.805 114.547 18.805ZM122.523 13.405C122.793 13.005 123.163 12.68 123.633 12.43C124.113 12.18 124.658 12.055 125.268 12.055C125.978 12.055 126.618 12.23 127.188 12.58C127.768 12.93 128.223 13.43 128.553 14.08C128.893 14.72 129.063 15.465 129.063 16.315C129.063 17.165 128.893 17.92 128.553 18.58C128.223 19.23 127.768 19.735 127.188 20.095C126.618 20.455 125.978 20.635 125.268 20.635C124.648 20.635 124.103 20.515 123.633 20.275C123.173 20.025 122.803 19.705 122.523 19.315V20.5H120.423V9.4H122.523V13.405ZM126.918 16.315C126.918 15.815 126.813 15.385 126.603 15.025C126.403 14.655 126.133 14.375 125.793 14.185C125.463 13.995 125.103 13.9 124.713 13.9C124.333 13.9 123.973 14 123.633 14.2C123.303 14.39 123.033 14.67 122.823 15.04C122.623 15.41 122.523 15.845 122.523 16.345C122.523 16.845 122.623 17.28 122.823 17.65C123.033 18.02 123.303 18.305 123.633 18.505C123.973 18.695 124.333 18.79 124.713 18.79C125.103 18.79 125.463 18.69 125.793 18.49C126.133 18.29 126.403 18.005 126.603 17.635C126.813 17.265 126.918 16.825 126.918 16.315ZM137.853 20.635C137.053 20.635 136.333 20.46 135.693 20.11C135.053 19.75 134.548 19.245 134.178 18.595C133.818 17.945 133.638 17.195 133.638 16.345C133.638 15.495 133.823 14.745 134.193 14.095C134.573 13.445 135.088 12.945 135.738 12.595C136.388 12.235 137.113 12.055 137.913 12.055C138.713 12.055 139.438 12.235 140.088 12.595C140.738 12.945 141.248 13.445 141.618 14.095C141.998 14.745 142.188 15.495 142.188 16.345C142.188 17.195 141.993 17.945 141.603 18.595C141.223 19.245 140.703 19.75 140.043 20.11C139.393 20.46 138.663 20.635 137.853 20.635ZM137.853 18.805C138.233 18.805 138.588 18.715 138.918 18.535C139.258 18.345 139.528 18.065 139.728 17.695C139.928 17.325 140.028 16.875 140.028 16.345C140.028 15.555 139.818 14.95 139.398 14.53C138.988 14.1 138.483 13.885 137.883 13.885C137.283 13.885 136.778 14.1 136.368 14.53C135.968 14.95 135.768 15.555 135.768 16.345C135.768 17.135 135.963 17.745 136.353 18.175C136.753 18.595 137.253 18.805 137.853 18.805ZM148.333 12.07C149.323 12.07 150.123 12.385 150.733 13.015C151.343 13.635 151.648 14.505 151.648 15.625V20.5H149.548V15.91C149.548 15.25 149.383 14.745 149.053 14.395C148.723 14.035 148.273 13.855 147.703 13.855C147.123 13.855 146.663 14.035 146.323 14.395C145.993 14.745 145.828 15.25 145.828 15.91V20.5H143.728V12.19H145.828V13.225C146.108 12.865 146.463 12.585 146.893 12.385C147.333 12.175 147.813 12.07 148.333 12.07ZM159.32 13.39C159.59 13.01 159.96 12.695 160.43 12.445C160.91 12.185 161.455 12.055 162.065 12.055C162.775 12.055 163.415 12.23 163.985 12.58C164.565 12.93 165.02 13.43 165.35 14.08C165.69 14.72 165.86 15.465 165.86 16.315C165.86 17.165 165.69 17.92 165.35 18.58C165.02 19.23 164.565 19.735 163.985 20.095C163.415 20.455 162.775 20.635 162.065 20.635C161.455 20.635 160.915 20.51 160.445 20.26C159.985 20.01 159.61 19.695 159.32 19.315V24.46H157.22V12.19H159.32V13.39ZM163.715 16.315C163.715 15.815 163.61 15.385 163.4 15.025C163.2 14.655 162.93 14.375 162.59 14.185C162.26 13.995 161.9 13.9 161.51 13.9C161.13 13.9 160.77 14 160.43 14.2C160.1 14.39 159.83 14.67 159.62 15.04C159.42 15.41 159.32 15.845 159.32 16.345C159.32 16.845 159.42 17.28 159.62 17.65C159.83 18.02 160.1 18.305 160.43 18.505C160.77 18.695 161.13 18.79 161.51 18.79C161.9 18.79 162.26 18.69 162.59 18.49C162.93 18.29 163.2 18.005 163.4 17.635C163.61 17.265 163.715 16.825 163.715 16.315ZM169.486 9.4V20.5H167.386V9.4H169.486ZM171.02 16.315C171.02 15.475 171.185 14.73 171.515 14.08C171.855 13.43 172.31 12.93 172.88 12.58C173.46 12.23 174.105 12.055 174.815 12.055C175.435 12.055 175.975 12.18 176.435 12.43C176.905 12.68 177.28 12.995 177.56 13.375V12.19H179.675V20.5H177.56V19.285C177.29 19.675 176.915 20 176.435 20.26C175.965 20.51 175.42 20.635 174.8 20.635C174.1 20.635 173.46 20.455 172.88 20.095C172.31 19.735 171.855 19.23 171.515 18.58C171.185 17.92 171.02 17.165 171.02 16.315ZM177.56 16.345C177.56 15.835 177.46 15.4 177.26 15.04C177.06 14.67 176.79 14.39 176.45 14.2C176.11 14 175.745 13.9 175.355 13.9C174.965 13.9 174.605 13.995 174.275 14.185C173.945 14.375 173.675 14.655 173.465 15.025C173.265 15.385 173.165 15.815 173.165 16.315C173.165 16.815 173.265 17.255 173.465 17.635C173.675 18.005 173.945 18.29 174.275 18.49C174.615 18.69 174.975 18.79 175.355 18.79C175.745 18.79 176.11 18.695 176.45 18.505C176.79 18.305 177.06 18.025 177.26 17.665C177.46 17.295 177.56 16.855 177.56 16.345ZM184.171 13.915V17.935C184.171 18.215 184.236 18.42 184.366 18.55C184.506 18.67 184.736 18.73 185.056 18.73H186.031V20.5H184.711C182.941 20.5 182.056 19.64 182.056 17.92V13.915H181.066V12.19H182.056V10.135H184.171V12.19H186.031V13.915H184.171ZM191.352 13.915H189.897V20.5H187.767V13.915H186.822V12.19H187.767V11.77C187.767 10.75 188.057 10 188.637 9.52C189.217 9.04 190.092 8.815 191.262 8.845V10.615C190.752 10.605 190.397 10.69 190.197 10.87C189.997 11.05 189.897 11.375 189.897 11.845V12.19H191.352V13.915ZM196.403 20.635C195.603 20.635 194.883 20.46 194.243 20.11C193.603 19.75 193.098 19.245 192.728 18.595C192.368 17.945 192.188 17.195 192.188 16.345C192.188 15.495 192.373 14.745 192.743 14.095C193.123 13.445 193.638 12.945 194.288 12.595C194.938 12.235 195.663 12.055 196.463 12.055C197.263 12.055 197.988 12.235 198.638 12.595C199.288 12.945 199.798 13.445 200.168 14.095C200.548 14.745 200.738 15.495 200.738 16.345C200.738 17.195 200.543 17.945 200.153 18.595C199.773 19.245 199.253 19.75 198.593 20.11C197.943 20.46 197.213 20.635 196.403 20.635ZM196.403 18.805C196.783 18.805 197.138 18.715 197.468 18.535C197.808 18.345 198.078 18.065 198.278 17.695C198.478 17.325 198.578 16.875 198.578 16.345C198.578 15.555 198.368 14.95 197.948 14.53C197.538 14.1 197.033 13.885 196.433 13.885C195.833 13.885 195.328 14.1 194.918 14.53C194.518 14.95 194.318 15.555 194.318 16.345C194.318 17.135 194.513 17.745 194.903 18.175C195.303 18.595 195.803 18.805 196.403 18.805ZM204.378 13.48C204.648 13.04 204.998 12.695 205.428 12.445C205.868 12.195 206.368 12.07 206.928 12.07V14.275H206.373C205.713 14.275 205.213 14.43 204.873 14.74C204.543 15.05 204.378 15.59 204.378 16.36V20.5H202.278V12.19H204.378V13.48ZM218.663 12.07C219.683 12.07 220.503 12.385 221.123 13.015C221.753 13.635 222.068 14.505 222.068 15.625V20.5H219.968V15.91C219.968 15.26 219.803 14.765 219.473 14.425C219.143 14.075 218.693 13.9 218.123 13.9C217.553 13.9 217.098 14.075 216.758 14.425C216.428 14.765 216.263 15.26 216.263 15.91V20.5H214.163V15.91C214.163 15.26 213.998 14.765 213.668 14.425C213.338 14.075 212.888 13.9 212.318 13.9C211.738 13.9 211.278 14.075 210.938 14.425C210.608 14.765 210.443 15.26 210.443 15.91V20.5H208.343V12.19H210.443V13.195C210.713 12.845 211.058 12.57 211.478 12.37C211.908 12.17 212.378 12.07 212.888 12.07C213.538 12.07 214.118 12.21 214.628 12.49C215.138 12.76 215.533 13.15 215.813 13.66C216.083 13.18 216.473 12.795 216.983 12.505C217.503 12.215 218.063 12.07 218.663 12.07Z" fill="#2E2E2E"/>
</svg>
