<svg width="167" height="30" viewBox="0 0 167 30" fill="none" xmlns="http://www.w3.org/2000/svg">
<path d="M7 0V0C3.13401 0 0 3.13401 0 7V30V30C3.86599 30 7 26.866 7 23V0Z" fill="#BF272D"/>
<path d="M18.435 20.5L16.125 16.42H15.135V20.5H13.035V10.03H16.965C17.775 10.03 18.465 10.175 19.035 10.465C19.605 10.745 20.03 11.13 20.31 11.62C20.6 12.1 20.745 12.64 20.745 13.24C20.745 13.93 20.545 14.555 20.145 15.115C19.745 15.665 19.15 16.045 18.36 16.255L20.865 20.5H18.435ZM15.135 14.845H16.89C17.46 14.845 17.885 14.71 18.165 14.44C18.445 14.16 18.585 13.775 18.585 13.285C18.585 12.805 18.445 12.435 18.165 12.175C17.885 11.905 17.46 11.77 16.89 11.77H15.135V14.845ZM30.3694 16.165C30.3694 16.465 30.3494 16.735 30.3094 16.975H24.2344C24.2844 17.575 24.4944 18.045 24.8644 18.385C25.2344 18.725 25.6894 18.895 26.2294 18.895C27.0094 18.895 27.5644 18.56 27.8944 17.89H30.1594C29.9194 18.69 29.4594 19.35 28.7794 19.87C28.0994 20.38 27.2644 20.635 26.2744 20.635C25.4744 20.635 24.7544 20.46 24.1144 20.11C23.4844 19.75 22.9894 19.245 22.6294 18.595C22.2794 17.945 22.1044 17.195 22.1044 16.345C22.1044 15.485 22.2794 14.73 22.6294 14.08C22.9794 13.43 23.4694 12.93 24.0994 12.58C24.7294 12.23 25.4544 12.055 26.2744 12.055C27.0644 12.055 27.7694 12.225 28.3894 12.565C29.0194 12.905 29.5044 13.39 29.8444 14.02C30.1944 14.64 30.3694 15.355 30.3694 16.165ZM28.1944 15.565C28.1844 15.025 27.9894 14.595 27.6094 14.275C27.2294 13.945 26.7644 13.78 26.2144 13.78C25.6944 13.78 25.2544 13.94 24.8944 14.26C24.5444 14.57 24.3294 15.005 24.2494 15.565H28.1944ZM42.2222 12.07C43.2422 12.07 44.0622 12.385 44.6822 13.015C45.3122 13.635 45.6272 14.505 45.6272 15.625V20.5H43.5272V15.91C43.5272 15.26 43.3622 14.765 43.0322 14.425C42.7022 14.075 42.2522 13.9 41.6822 13.9C41.1122 13.9 40.6572 14.075 40.3172 14.425C39.9872 14.765 39.8222 15.26 39.8222 15.91V20.5H37.7222V15.91C37.7222 15.26 37.5572 14.765 37.2272 14.425C36.8972 14.075 36.4472 13.9 35.8772 13.9C35.2972 13.9 34.8372 14.075 34.4972 14.425C34.1672 14.765 34.0022 15.26 34.0022 15.91V20.5H31.9022V12.19H34.0022V13.195C34.2722 12.845 34.6172 12.57 35.0372 12.37C35.4672 12.17 35.9372 12.07 36.4472 12.07C37.0972 12.07 37.6772 12.21 38.1872 12.49C38.6972 12.76 39.0922 13.15 39.3722 13.66C39.6422 13.18 40.0322 12.795 40.5422 12.505C41.0622 12.215 41.6222 12.07 42.2222 12.07ZM51.31 20.635C50.51 20.635 49.79 20.46 49.15 20.11C48.51 19.75 48.005 19.245 47.635 18.595C47.275 17.945 47.095 17.195 47.095 16.345C47.095 15.495 47.28 14.745 47.65 14.095C48.03 13.445 48.545 12.945 49.195 12.595C49.845 12.235 50.57 12.055 51.37 12.055C52.17 12.055 52.895 12.235 53.545 12.595C54.195 12.945 54.705 13.445 55.075 14.095C55.455 14.745 55.645 15.495 55.645 16.345C55.645 17.195 55.45 17.945 55.06 18.595C54.68 19.245 54.16 19.75 53.5 20.11C52.85 20.46 52.12 20.635 51.31 20.635ZM51.31 18.805C51.69 18.805 52.045 18.715 52.375 18.535C52.715 18.345 52.985 18.065 53.185 17.695C53.385 17.325 53.485 16.875 53.485 16.345C53.485 15.555 53.275 14.95 52.855 14.53C52.445 14.1 51.94 13.885 51.34 13.885C50.74 13.885 50.235 14.1 49.825 14.53C49.425 14.95 49.225 15.555 49.225 16.345C49.225 17.135 49.42 17.745 49.81 18.175C50.21 18.595 50.71 18.805 51.31 18.805ZM59.6304 13.915V17.935C59.6304 18.215 59.6954 18.42 59.8254 18.55C59.9654 18.67 60.1954 18.73 60.5154 18.73H61.4904V20.5H60.1704C58.4004 20.5 57.5154 19.64 57.5154 17.92V13.915H56.5254V12.19H57.5154V10.135H59.6304V12.19H61.4904V13.915H59.6304ZM70.7258 16.165C70.7258 16.465 70.7058 16.735 70.6658 16.975H64.5908C64.6408 17.575 64.8508 18.045 65.2208 18.385C65.5908 18.725 66.0458 18.895 66.5858 18.895C67.3658 18.895 67.9208 18.56 68.2508 17.89H70.5158C70.2758 18.69 69.8158 19.35 69.1358 19.87C68.4558 20.38 67.6208 20.635 66.6308 20.635C65.8308 20.635 65.1108 20.46 64.4708 20.11C63.8408 19.75 63.3458 19.245 62.9858 18.595C62.6358 17.945 62.4608 17.195 62.4608 16.345C62.4608 15.485 62.6358 14.73 62.9858 14.08C63.3358 13.43 63.8258 12.93 64.4558 12.58C65.0858 12.23 65.8108 12.055 66.6308 12.055C67.4208 12.055 68.1258 12.225 68.7458 12.565C69.3758 12.905 69.8608 13.39 70.2008 14.02C70.5508 14.64 70.7258 15.355 70.7258 16.165ZM68.5508 15.565C68.5408 15.025 68.3458 14.595 67.9658 14.275C67.5858 13.945 67.1208 13.78 66.5708 13.78C66.0508 13.78 65.6108 13.94 65.2508 14.26C64.9008 14.57 64.6858 15.005 64.6058 15.565H68.5508ZM86.1529 12.07C87.1729 12.07 87.9929 12.385 88.6129 13.015C89.2429 13.635 89.5579 14.505 89.5579 15.625V20.5H87.4579V15.91C87.4579 15.26 87.2929 14.765 86.9629 14.425C86.6329 14.075 86.1829 13.9 85.6129 13.9C85.0429 13.9 84.5879 14.075 84.2479 14.425C83.9179 14.765 83.7529 15.26 83.7529 15.91V20.5H81.6529V15.91C81.6529 15.26 81.4879 14.765 81.1579 14.425C80.8279 14.075 80.3779 13.9 79.8079 13.9C79.2279 13.9 78.7679 14.075 78.4279 14.425C78.0979 14.765 77.9329 15.26 77.9329 15.91V20.5H75.8329V12.19H77.9329V13.195C78.2029 12.845 78.5479 12.57 78.9679 12.37C79.3979 12.17 79.8679 12.07 80.3779 12.07C81.0279 12.07 81.6079 12.21 82.1179 12.49C82.6279 12.76 83.0229 13.15 83.3029 13.66C83.5729 13.18 83.9629 12.795 84.4729 12.505C84.9929 12.215 85.5529 12.07 86.1529 12.07ZM95.2406 20.635C94.4406 20.635 93.7206 20.46 93.0806 20.11C92.4406 19.75 91.9356 19.245 91.5656 18.595C91.2056 17.945 91.0256 17.195 91.0256 16.345C91.0256 15.495 91.2106 14.745 91.5806 14.095C91.9606 13.445 92.4756 12.945 93.1256 12.595C93.7756 12.235 94.5006 12.055 95.3006 12.055C96.1006 12.055 96.8256 12.235 97.4756 12.595C98.1256 12.945 98.6356 13.445 99.0056 14.095C99.3856 14.745 99.5756 15.495 99.5756 16.345C99.5756 17.195 99.3806 17.945 98.9906 18.595C98.6106 19.245 98.0906 19.75 97.4306 20.11C96.7806 20.46 96.0506 20.635 95.2406 20.635ZM95.2406 18.805C95.6206 18.805 95.9756 18.715 96.3056 18.535C96.6456 18.345 96.9156 18.065 97.1156 17.695C97.3156 17.325 97.4156 16.875 97.4156 16.345C97.4156 15.555 97.2056 14.95 96.7856 14.53C96.3756 14.1 95.8706 13.885 95.2706 13.885C94.6706 13.885 94.1656 14.1 93.7556 14.53C93.3556 14.95 93.1556 15.555 93.1556 16.345C93.1556 17.135 93.3506 17.745 93.7406 18.175C94.1406 18.595 94.6406 18.805 95.2406 18.805ZM105.721 12.07C106.711 12.07 107.511 12.385 108.121 13.015C108.731 13.635 109.036 14.505 109.036 15.625V20.5H106.936V15.91C106.936 15.25 106.771 14.745 106.441 14.395C106.111 14.035 105.661 13.855 105.091 13.855C104.511 13.855 104.051 14.035 103.711 14.395C103.381 14.745 103.216 15.25 103.216 15.91V20.5H101.116V12.19H103.216V13.225C103.496 12.865 103.851 12.585 104.281 12.385C104.721 12.175 105.201 12.07 105.721 12.07ZM113.478 13.915V17.935C113.478 18.215 113.543 18.42 113.673 18.55C113.813 18.67 114.043 18.73 114.363 18.73H115.338V20.5H114.018C112.248 20.5 111.363 19.64 111.363 17.92V13.915H110.373V12.19H111.363V10.135H113.478V12.19H115.338V13.915H113.478ZM121.528 12.07C122.158 12.07 122.718 12.21 123.208 12.49C123.698 12.76 124.078 13.165 124.348 13.705C124.628 14.235 124.768 14.875 124.768 15.625V20.5H122.668V15.91C122.668 15.25 122.503 14.745 122.173 14.395C121.843 14.035 121.393 13.855 120.823 13.855C120.243 13.855 119.783 14.035 119.443 14.395C119.113 14.745 118.948 15.25 118.948 15.91V20.5H116.848V9.4H118.948V13.225C119.218 12.865 119.578 12.585 120.028 12.385C120.478 12.175 120.978 12.07 121.528 12.07ZM128.865 9.4V20.5H126.765V9.4H128.865ZM138.89 12.19L133.745 24.43H131.51L133.31 20.29L129.98 12.19H132.335L134.48 17.995L136.655 12.19H138.89ZM144.662 11.2C144.282 11.2 143.967 11.085 143.717 10.855C143.477 10.615 143.357 10.32 143.357 9.97C143.357 9.62 143.477 9.33 143.717 9.1C143.967 8.86 144.282 8.74 144.662 8.74C145.032 8.74 145.337 8.86 145.577 9.1C145.817 9.33 145.937 9.62 145.937 9.97C145.937 10.32 145.817 10.615 145.577 10.855C145.337 11.085 145.032 11.2 144.662 11.2ZM145.697 21.865C145.697 22.785 145.467 23.445 145.007 23.845C144.557 24.255 143.907 24.46 143.057 24.46H142.127V22.675H142.727C143.047 22.675 143.272 22.61 143.402 22.48C143.532 22.36 143.597 22.16 143.597 21.88V12.19H145.697V21.865ZM151.461 20.635C150.661 20.635 149.941 20.46 149.301 20.11C148.661 19.75 148.156 19.245 147.786 18.595C147.426 17.945 147.246 17.195 147.246 16.345C147.246 15.495 147.431 14.745 147.801 14.095C148.181 13.445 148.696 12.945 149.346 12.595C149.996 12.235 150.721 12.055 151.521 12.055C152.321 12.055 153.046 12.235 153.696 12.595C154.346 12.945 154.856 13.445 155.226 14.095C155.606 14.745 155.796 15.495 155.796 16.345C155.796 17.195 155.601 17.945 155.211 18.595C154.831 19.245 154.311 19.75 153.651 20.11C153.001 20.46 152.271 20.635 151.461 20.635ZM151.461 18.805C151.841 18.805 152.196 18.715 152.526 18.535C152.866 18.345 153.136 18.065 153.336 17.695C153.536 17.325 153.636 16.875 153.636 16.345C153.636 15.555 153.426 14.95 153.006 14.53C152.596 14.1 152.091 13.885 151.491 13.885C150.891 13.885 150.386 14.1 149.976 14.53C149.576 14.95 149.376 15.555 149.376 16.345C149.376 17.135 149.571 17.745 149.961 18.175C150.361 18.595 150.861 18.805 151.461 18.805ZM159.437 13.405C159.707 13.005 160.077 12.68 160.547 12.43C161.027 12.18 161.572 12.055 162.182 12.055C162.892 12.055 163.532 12.23 164.102 12.58C164.682 12.93 165.137 13.43 165.467 14.08C165.807 14.72 165.977 15.465 165.977 16.315C165.977 17.165 165.807 17.92 165.467 18.58C165.137 19.23 164.682 19.735 164.102 20.095C163.532 20.455 162.892 20.635 162.182 20.635C161.562 20.635 161.017 20.515 160.547 20.275C160.087 20.025 159.717 19.705 159.437 19.315V20.5H157.337V9.4H159.437V13.405ZM163.832 16.315C163.832 15.815 163.727 15.385 163.517 15.025C163.317 14.655 163.047 14.375 162.707 14.185C162.377 13.995 162.017 13.9 161.627 13.9C161.247 13.9 160.887 14 160.547 14.2C160.217 14.39 159.947 14.67 159.737 15.04C159.537 15.41 159.437 15.845 159.437 16.345C159.437 16.845 159.537 17.28 159.737 17.65C159.947 18.02 160.217 18.305 160.547 18.505C160.887 18.695 161.247 18.79 161.627 18.79C162.017 18.79 162.377 18.69 162.707 18.49C163.047 18.29 163.317 18.005 163.517 17.635C163.727 17.265 163.832 16.825 163.832 16.315Z" fill="#F6F6F6"/>
</svg>
